<svg xmlns="http://www.w3.org/2000/svg" width="65" height="72" fill="none"><g clip-path="url(#a)"><mask id="b" width="65" height="72" x="0" y="0" maskUnits="userSpaceOnUse" style="mask-type:luminance"><path fill="#fff" d="M.115 0h64v72h-64V0Z"/></mask><g mask="url(#b)"><path fill="#fff" d="m4.998 58.222 26.359 13.447a2.697 2.697 0 0 0 2.482-.016l25.433-13.419a2.712 2.712 0 0 0 1.447-2.397V2.713a2.704 2.704 0 0 0-2.701-2.71h-51.8a2.703 2.703 0 0 0-2.7 2.71v53.09c0 1.022.568 1.956 1.477 2.418l.003.001Z"/><path fill="#161616" d="M32.15 2.94c.302 0 .6 0 .902.077l-.902 1.735c-1.354-.077-2.552.978-2.625 2.334-.076 1.358.976 2.56 2.327 2.633h.301c.6 0 1.2-.226 1.652-.602l.976 1.658c-.768.54-1.685.83-2.624.829-2.4.076-4.43-1.735-4.504-4.142-.076-2.407 1.73-4.445 4.128-4.518h.376-.004l-.003-.004Zm3.076 3.693 1.128 1.88-1.128 1.806-1.052-1.805h-2.177l1.128-1.881h2.101Zm-1.799-.68c0-.303.077-.602.226-.828.15-.227.45-.453.677-.603l.15-.077c.3-.15.374-.226.374-.376s-.225-.303-.374-.303c-.303 0-.526.15-.678.453l-.375-.377c.077-.15.226-.302.375-.452.226-.15.451-.15.677-.15.225 0 .524.077.676.226.153.15.303.376.303.603 0 .376-.226.679-.677.83l-.225.15c-.226.149-.375.225-.452.452h1.354v.526l-2.024-.077h-.003l-.004.004Zm-.648 9.056 5.866-3.348a1.27 1.27 0 0 0 .639-1.1V.001H24.949v10.487c0 .453.242.87.633 1.097l5.948 3.418a1.248 1.248 0 0 0 1.25 0v.006Zm28.697 23.676H2.817a.899.899 0 0 0-.82.526L.198 43.16a.907.907 0 0 0 0 .749l1.799 3.947a.9.9 0 0 0 .82.527h58.659c.356 0 .68-.214.823-.539l1.741-3.948a.92.92 0 0 0 0-.733l-1.74-3.947a.903.903 0 0 0-.824-.54v.01Z"/><path fill="#25252F" d="M23.023 57.706s-.015.028-.013.041a.05.05 0 0 0 .042.019h2.704c.015 0 .03.002.045.009a.108.108 0 0 1 .038.026c.028.025.04.05.04.083v.972a.104.104 0 0 1-.04.083.108.108 0 0 1-.083.036h-4.487a.111.111 0 0 1-.09-.036.11.11 0 0 1-.034-.083v-.924c0-.058.019-.109.06-.15.344-.337.677-.685.998-1.043.337-.376.553-.612.639-.705.184-.22.372-.43.563-.634.603-.673.909-1.174.909-1.498a.758.758 0 0 0-.248-.582.948.948 0 0 0-.645-.22c-.264 0-.484.075-.645.22a.762.762 0 0 0-.258.6v.249a.11.11 0 0 1-.035.083.107.107 0 0 1-.083.035h-1.179a.107.107 0 0 1-.083-.035c-.028-.026-.04-.051-.04-.083V53.7c.025-.36.136-.68.346-.96.21-.282.494-.502.82-.635.366-.15.76-.226 1.156-.22.47 0 .883.09 1.233.271.35.175.62.411.808.714.19.306.288.638.288 1.002 0 .28-.072.567-.213.864a4.604 4.604 0 0 1-.625.953c-.204.259-.43.514-.668.775-.238.255-.594.622-1.064 1.097l-.15.15-.01-.007h.004Zm6.098 1.38c-.735 0-1.312-.204-1.735-.612-.426-.411-.639-.97-.639-1.68v-2.648c0-.694.213-1.243.639-1.65.423-.412 1.001-.613 1.735-.613.735 0 1.313.204 1.741.612.426.405.64.957.64 1.651v2.648c0 .707-.214 1.269-.64 1.68-.43.411-1.01.612-1.741.612Zm0-1.208c.295 0 .537-.093.712-.278.178-.185.27-.43.27-.74v-2.754c0-.307-.089-.549-.27-.734-.175-.185-.41-.277-.712-.277s-.531.092-.702.277c-.178.185-.27.427-.27.734v2.755c0 .309.088.554.27.74.174.184.41.277.702.277Zm5.173-.172s-.015.028-.006.041c.003.012.015.019.04.019h2.706a.11.11 0 0 1 .082.035.108.108 0 0 1 .035.083v.972a.11.11 0 0 1-.035.083.106.106 0 0 1-.082.036H32.54a.107.107 0 0 1-.082-.036.11.11 0 0 1-.035-.083v-.924c0-.058.016-.109.053-.15.33-.319.662-.663.998-1.043.337-.376.553-.612.639-.705.188-.22.378-.43.569-.634.603-.673.909-1.174.909-1.498a.76.76 0 0 0-.248-.582.98.98 0 0 0-.652-.22c-.26 0-.483.075-.644.22a.775.775 0 0 0-.249.6v.249a.11.11 0 0 1-.034.083.112.112 0 0 1-.09.035h-1.178a.107.107 0 0 1-.083-.035.11.11 0 0 1-.035-.083V53.7c.016-.36.13-.68.337-.96.204-.278.483-.488.826-.635a2.9 2.9 0 0 1 1.15-.22c.47 0 .884.09 1.233.271.353.175.626.411.814.714.187.306.283.638.283 1.002 0 .28-.067.567-.203.864a4.97 4.97 0 0 1-.633.953c-.204.259-.43.514-.668.775-.238.255-.594.622-1.064 1.097l-.15.15-.009-.006Zm8.713-1.783a.127.127 0 0 1 .116.073.11.11 0 0 1 .009.045v1.014a.11.11 0 0 1-.036.083.128.128 0 0 1-.089.035h-.425c-.032 0-.048.016-.048.047v1.64a.11.11 0 0 1-.035.083.127.127 0 0 1-.089.035h-1.163a.113.113 0 0 1-.089-.035.11.11 0 0 1-.035-.083v-1.64c0-.03-.016-.047-.047-.047h-3.064a.127.127 0 0 1-.115-.073.11.11 0 0 1-.009-.045v-.8c0-.042.01-.093.035-.15l1.795-4.047c.03-.057.073-.09.137-.09H41.1c.046 0 .08.01.096.036.016.025.016.058-.007.102l-1.664 3.756s-.003.029 0 .042c.009.012.018.019.034.019h1.513c.032 0 .048-.016.048-.055v-1.236a.12.12 0 0 1 .034-.09.113.113 0 0 1 .09-.035h1.163a.123.123 0 0 1 .088.036.11.11 0 0 1 .036.088v1.237c0 .04.015.055.047.055h.43-.001Z"/><path fill="#161616" d="m19.263 22.4.006-4.744c0-.054.053-.105.107-.105h1.237c.053 0 .104.054.104.108l-.005 4.745c0 .702.482 1.24 1.232 1.244.75 0 1.237-.486 1.24-1.238l.006-4.744c0-.055.054-.106.108-.106h1.236c.054 0 .105.055.105.11l-.007 4.743c0 1.512-1.08 2.478-2.69 2.474-1.612 0-2.686-1.026-2.683-2.483h-.003l.007-.003Zm6.234.89v-.109c0-.053.055-.107.111-.107h1.154c.054 0 .108.057.108.111 0 .329.381.552.931.555.496 0 .823-.22.826-.495 0-.443-.823-.443-1.595-.72-.715-.22-1.48-.61-1.48-1.547 0-1.048.882-1.705 2.256-1.705 1.372 0 2.249.72 2.249 1.712 0 .055-.054.108-.111.108h-1.154c-.054 0-.107-.057-.107-.111 0-.329-.328-.552-.877-.555-.443 0-.77.166-.77.495 0 .443.716.443 1.542.72.822.22 1.646.61 1.646 1.6 0 1.05-.94 1.652-2.314 1.652-1.483 0-2.419-.663-2.415-1.604Zm14.401-3.704c.054.054.054.104.054.162l-.219 1.185c0 .106-.054.106-.162.055-.162-.054-.375-.054-.591-.054-.486.054-.915.376-.915.915l-.007 2.857c0 .054-.053.105-.107.105h-1.237c-.053 0-.104-.054-.104-.108l.01-5.066c0-.054.053-.105.107-.105h1.236c.054 0 .105.054.105.108v.38c0 .054.054.054.054.054.27-.376.645-.645 1.131-.645.321 0 .486.055.642.163l.003-.006Zm.603 3.736v-.109c0-.053.054-.107.112-.107h1.153c.054 0 .108.057.108.111 0 .329.381.552.931.555.496 0 .824-.22.827-.495 0-.443-.824-.443-1.596-.72-.715-.22-1.48-.61-1.48-1.547 0-1.048.883-1.705 2.256-1.705 1.372 0 2.25.72 2.25 1.712 0 .054-.054.108-.111.108h-1.154c-.054 0-.108-.057-.108-.112 0-.328-.327-.551-.877-.554-.442 0-.77.166-.77.495 0 .443.715.443 1.542.72.823.22 1.646.61 1.646 1.6 0 1.05-.94 1.652-2.313 1.652-1.484 0-2.42-.663-2.416-1.604Zm-7.282-4.049c-1.141 0-1.96.65-2.288 1.636-.112.352-.168.72-.165 1.09 0 .545.054.924.216 1.31.375.982 1.191 1.589 2.39 1.589.87 0 1.633-.326 2.122-.925.055-.058.055-.109 0-.166l-.76-.769c-.053-.108-.108-.054-.164 0-.274.326-.601.543-1.09.543-.598 0-.925-.22-1.087-.603-.054-.166-.108-.275-.108-.44 0-.038.016-.054.054-.054l3.263.006c.108 0 .166 0 .166-.105 0-.326 0-.6-.108-.87-.162-1.315-1.027-2.242-2.444-2.246v.007l.003-.003Zm.978 2.235h-1.795c-.038 0-.053-.016-.053-.055 0-.108 0-.22.053-.325.108-.382.381-.599.87-.599.49 0 .818.22.922.657 0 .054.054.166.054.274 0 .038-.015.054-.054.05h.003v-.002ZM14.28 35.11l.013-7.124c0-.054.054-.108.108-.108h1.255c.054 0 .108.057.108.109l-.01 5.917c0 .038.016.054.055.054l3.441.007c.054 0 .108.054.108.108v1.043c0 .054-.057.109-.108.109l-4.858-.008c-.054 0-.109-.053-.109-.107h-.006.003Zm10.78-3.754c-.332-1.007-1.165-1.68-2.391-1.68-1.227 0-2.117.609-2.456 1.67-.109.278-.17.728-.17 1.117 0 .39.055.781.166 1.116.276 1.116 1.22 1.789 2.444 1.738 1.173 0 2.062-.663 2.4-1.782.107-.278.167-.67.167-1.062 0-.393-.053-.781-.165-1.117h.004Zm-1.454 1.898c-.168.5-.502.835-.947.778-.502 0-.833-.28-1-.785-.054-.168-.054-.45-.054-.727 0-.335 0-.612.11-.781.111-.504.449-.778.948-.778.448 0 .778.28.947.785.053.223.107.503.107.78 0 .224-.056.505-.11.728Zm3.562 1.881-1.683-5.21c-.055-.11 0-.166.107-.166h1.367c.054 0 .107.058.165.111l.867 3.18c0 .054.054.054.054 0l.88-3.176c0-.054.055-.109.166-.109h1.367c.107 0 .165.058.107.17l-1.7 5.146c0 .054-.054.109-.165.109h-1.366c-.108.05-.166.05-.166-.058h-.003l.003.003ZM33.22 29.7c-1.141 0-1.96.651-2.288 1.636-.112.353-.168.72-.165 1.09 0 .546.054.926.216 1.311.375.982 1.191 1.589 2.39 1.589.87 0 1.633-.326 2.122-.925.055-.058.055-.109 0-.166l-.76-.77c-.053-.107-.108-.053-.164 0-.274.327-.601.544-1.09.544-.598 0-.925-.22-1.087-.604-.054-.165-.108-.274-.108-.44 0-.038.016-.054.054-.054l3.263.007c.108 0 .166 0 .166-.105 0-.326 0-.6-.108-.87-.162-1.315-1.027-2.243-2.444-2.246v.007l.003-.004Zm.978 2.236h-1.795c-.038 0-.053-.016-.053-.054 0-.11 0-.22.053-.326.108-.382.381-.6.87-.6.49 0 .818.221.922.658 0 .053.054.165.054.274 0 .038-.015.054-.054.05h.003v-.002Zm4.67.921.005-4.824c0-.054.054-.109.109-.109h1.255c.054 0 .108.058.108.11l-.006 4.823c0 .714.488 1.26 1.251 1.266.766 0 1.256-.49 1.261-1.256l.008-4.824a.117.117 0 0 1 .107-.11h1.256c.053 0 .107.059.107.11l-.006 4.824c0 1.534-1.096 2.519-2.736 2.516-1.64-.004-2.73-1.046-2.727-2.526h-.002.01Zm6.386.839v-.109c0-.053.054-.108.108-.108h1.147c.054 0 .108.057.108.11 0 .326.381.547.925.55.492 0 .82-.217.823-.491 0-.44-.82-.44-1.586-.717-.712-.22-1.47-.603-1.47-1.54 0-1.043.876-1.697 2.242-1.694 1.367 0 2.237.718 2.237 1.703 0 .054-.054.109-.108.109h-1.147c-.054 0-.108-.058-.108-.11 0-.327-.327-.548-.874-.55-.438 0-.765.162-.765.49 0 .44.705.44 1.528.718.82.22 1.636.606 1.636 1.59 0 1.044-.93 1.643-2.297 1.643-1.474 0-2.4-.66-2.4-1.594Z"/><path fill="#FF5E15" d="m46.34 42.464 2.215-.35 1.144-2.223 1.068 2.155 2.354.434-1.643 1.645.353 2.366-2.142-1.008-2.145.998.296-2.363-1.5-1.654Zm-8.805 0 2.214-.35 1.145-2.223 1.064 2.155 2.358.434-1.643 1.645.352 2.366-2.141-1.008-2.146.998.293-2.363-1.496-1.654Zm-8.81 0 2.218-.35 1.144-2.223 1.064 2.155 2.355.434-1.643 1.645.353 2.366-2.142-1.008-2.142.998.293-2.363-1.5-1.654Zm-8.804 0 2.215-.35 1.144-2.223 1.064 2.155 2.359.434-1.644 1.645.353 2.366-2.141-1.008-2.146.998.293-2.363-1.497-1.654Zm-8.81 0 2.218-.35 1.144-2.223 1.065 2.155 2.354.434-1.639 1.646.35 2.365-2.143-1.008-2.141.999.292-2.364-1.5-1.654Z"/></g></g><defs><clipPath id="a"><path fill="#fff" d="M.117 0h64v72h-64z"/></clipPath></defs></svg>