<svg xmlns="http://www.w3.org/2000/svg" width="48" height="48" fill="none"><path fill="#FA6450" d="M40.5 22.5v-6h-3.346a13.418 13.418 0 0 0-1.735-4.178l2.37-2.368-4.243-4.243-2.369 2.37A13.415 13.415 0 0 0 27 6.346V3h-6v3.346a13.39 13.39 0 0 0-4.177 1.735l-2.369-2.37-4.243 4.243 2.37 2.368a13.415 13.415 0 0 0-1.735 4.178H7.5v6h3.346a13.4 13.4 0 0 0 1.735 4.177l-2.37 2.369 4.243 4.243 2.369-2.37A13.535 13.535 0 0 0 21 32.657V36h6v-3.343c1.48-.34 2.892-.928 4.177-1.737l2.369 2.369 4.243-4.243-2.37-2.37a13.403 13.403 0 0 0 1.735-4.176H40.5Zm-4.5 0a3 3 0 0 1-3 3h-2.305a8.971 8.971 0 0 1-13.39 0H15a3 3 0 0 1-3-3v-6a3 3 0 0 1 3-3h2.305a8.971 8.971 0 0 1 13.39 0H33a3 3 0 0 1 3 3v6Z"/><path fill="#505050" d="M7.5 42h9v3h-9v-3Z"/><path fill="#3C3C3C" d="M7.5 42h3v3h-3v-3Z"/><path fill="#505050" d="M31.5 42h9v3h-9v-3Z"/><path fill="#3C3C3C" d="M31.5 42h3v3h-3v-3Z"/><path fill="#F0C8A0" d="M45 22.5h-.225a1.5 1.5 0 0 0-1.479 1.253l-.975 5.85a6.005 6.005 0 0 1-1.676 3.257L39 34.5l1.184-2.367a3 3 0 0 0 .316-1.341v-.482a.75.75 0 0 0-1.28-.53l-4.463 4.463A6.001 6.001 0 0 0 33 38.485V42h6v-1.447a3.75 3.75 0 0 1 1.099-2.651l3.143-3.144A5.987 5.987 0 0 0 45 30.518V22.5Zm-41.995 0h.225a1.5 1.5 0 0 1 1.48 1.253l.974 5.85A6 6 0 0 0 7.36 32.86L9 34.5l-1.184-2.367a3 3 0 0 1-.316-1.341v-.482a.75.75 0 0 1 1.28-.53l4.463 4.463A6 6 0 0 1 15 38.485V42H9v-1.447a3.75 3.75 0 0 0-1.098-2.651l-3.144-3.144A5.987 5.987 0 0 1 3 30.518c0-3.104.004-8.018.005-8.018Z"/><path fill="#DC4632" d="M18.323 8.08A13.397 13.397 0 0 1 22.5 6.347V3H21v3.346a13.344 13.344 0 0 0-3.225 1.188l.548.547ZM7.5 16.5H9v6H7.5v-6Zm10.823 14.42-.547.546c1.02.533 2.103.933 3.224 1.191V36h1.5v-3.343a13.516 13.516 0 0 1-4.177-1.737ZM13.1 14.197c.278-.649.606-1.276.98-1.874l-2.369-2.369 3.493-3.493-.75-.75-4.243 4.243 2.37 2.368a13.415 13.415 0 0 0-1.735 4.178H12a2.982 2.982 0 0 1 1.1-2.303ZM12 22.5h-1.154a13.4 13.4 0 0 0 1.735 4.177l-2.37 2.369 4.243 4.243.75-.75-3.493-3.493 2.37-2.37a13.577 13.577 0 0 1-.98-1.874A2.983 2.983 0 0 1 12 22.5Zm13.5-12a9.2 9.2 0 0 0-.75.037 8.986 8.986 0 0 1 5.948 2.963h1.5a8.966 8.966 0 0 0-6.698-3Zm-.75 17.962c.248.02.497.038.75.038a8.966 8.966 0 0 0 6.694-3h-1.5a8.982 8.982 0 0 1-5.944 2.962Z"/><path fill="#FAB400" d="M33 15H15a1.5 1.5 0 0 0-1.5 1.5v6A1.5 1.5 0 0 0 15 24h18a1.5 1.5 0 0 0 1.5-1.5v-6A1.5 1.5 0 0 0 33 15Z"/><path fill="#DC9600" d="M15 22.5v-6a1.5 1.5 0 0 1 1.5-1.5H15a1.5 1.5 0 0 0-1.5 1.5v6A1.5 1.5 0 0 0 15 24h1.5a1.5 1.5 0 0 1-1.5-1.5Z"/><path fill="#F0F0F0" d="M15 17v1h3v1h-3v3h4v-1h-3v-1h3v-3h-4Zm8 0v2h-2v-2h-1v3h3v2h1v-5h-1Zm4 0-2 5h1l2-5h-1Zm2 0v1h3l-2 4h1l2-4v-1h-4Z"/></svg>