<svg xmlns="http://www.w3.org/2000/svg" width="48" height="48" fill="none"><path fill="#3CC8B4" d="M25.784 30.013a3.013 3.013 0 0 1-.756 3.043 3.012 3.012 0 0 1-.756 3.044 3.015 3.015 0 0 1-2.576 3.892v5.02l6-3 6 3v-15h-7.912v.001Z"/><path fill="#FA6450" d="M41.96 16.666c-.443-.45-.54-1.26-.22-1.803a1.174 1.174 0 0 0-.391-1.587c-.537-.33-.826-1.095-.645-1.698a1.174 1.174 0 0 0-.76-1.447c-.6-.193-1.064-.866-1.031-1.495a1.174 1.174 0 0 0-1.084-1.223c-.629-.044-1.24-.586-1.36-1.205a1.174 1.174 0 0 0-1.345-.928c-.62.108-1.344-.272-1.608-.844a1.174 1.174 0 0 0-1.528-.58c-.575.254-1.369.059-1.762-.434a1.173 1.173 0 0 0-1.622-.197c-.5.384-1.316.384-1.816 0a1.173 1.173 0 0 0-1.622.197c-.393.493-1.187.688-1.763.434a1.174 1.174 0 0 0-1.529.58c-.264.572-.987.952-1.608.844a1.174 1.174 0 0 0-1.345.928c-.12.619-.73 1.16-1.36 1.205a1.174 1.174 0 0 0-1.083 1.223c.032.63-.432 1.302-1.031 1.495-.6.192-.942.843-.76 1.447.182.603-.108 1.367-.644 1.698a1.173 1.173 0 0 0-.391 1.587c.32.542.223 1.353-.22 1.803a1.173 1.173 0 0 0 0 1.634c.329.334.465.867.383 1.34a2.16 2.16 0 0 1 2.312-.686 4.08 4.08 0 0 1 2.686 5.1l-.245.792h5.087a3.026 3.026 0 0 1 2.79 4.183 3.015 3.015 0 0 1-.66.983c.089.284.137.587.137.901 0 .358-.074.696-.188 1.015a1.17 1.17 0 0 0 1.054-.186c.5-.384 1.316-.384 1.816 0s1.23.295 1.622-.197c.393-.493 1.187-.688 1.763-.435a1.174 1.174 0 0 0 1.529-.58c.264-.572.987-.951 1.608-.843a1.174 1.174 0 0 0 1.345-.929c.12-.618.73-1.16 1.36-1.204a1.174 1.174 0 0 0 1.083-1.223c-.032-.63.432-1.302 1.032-1.495.6-.193.941-.844.76-1.448-.182-.603.108-1.367.644-1.698.536-.33.713-1.044.392-1.587-.321-.542-.225-1.353.217-1.803a1.173 1.173 0 0 0 0-1.634Z"/><path fill="#F0F0F0" d="M27.695 5.809c-6.448 0-11.675 5.227-11.675 11.675 0 .5.041.988.102 1.47l.003.001a4.08 4.08 0 0 1 2.687 5.1l-.225.724c.018.022.033.045.05.067h5.017a3.027 3.027 0 0 1 3.023 3.022c0 .434-.095.844-.26 1.218.42.045.846.073 1.278.073 6.447 0 11.675-5.227 11.675-11.675S34.143 5.809 27.695 5.809Z"/><path fill="#FAB400" d="M35.195 18.984v-3H33.5a5.976 5.976 0 0 0-.64-1.544l1.2-1.199-2.12-2.12-1.2 1.198a5.962 5.962 0 0 0-1.544-.639V9.984h-3v1.696a5.978 5.978 0 0 0-1.543.64l-1.2-1.2-2.12 2.121 1.199 1.2a5.97 5.97 0 0 0-.64 1.543h-1.696v3h1.697a5.98 5.98 0 0 0 .639 1.543l-1.2 1.2 2.122 2.12 1.199-1.199a5.97 5.97 0 0 0 1.543.64v1.696h3v-1.697a5.976 5.976 0 0 0 1.544-.639l1.2 1.2 2.12-2.121-1.2-1.2c.285-.482.5-1.001.64-1.543h1.696Zm-7.5 1.5c-1.654 0-3-1.346-3-3 0-1.655 1.346-3 3-3 1.655 0 3 1.345 3 3 0 1.654-1.345 3-3 3Z"/><path fill="#DC9600" d="M26.15 12.32a5.96 5.96 0 0 1 1.543-.64V9.984h-1.5v1.696c-.175.045-.342.111-.511.171l.468.468Zm0 10.328-.468.468c.169.06.335.126.511.171v1.697h1.5v-1.697a5.966 5.966 0 0 1-1.543-.639Zm3.043-8.164c-.26 0-.509.043-.75.106 1.29.336 2.25 1.5 2.25 2.894 0 1.393-.96 2.558-2.25 2.893.241.063.49.107.75.107 1.655 0 3-1.346 3-3 0-1.655-1.345-3-3-3Zm-7.303 1.5h1.5a5.97 5.97 0 0 1 .639-1.544l-1.2-1.199 1.372-1.37-.75-.75-2.121 2.12 1.199 1.2a5.952 5.952 0 0 0-.64 1.543Zm.939 5.742 1.2-1.2a5.963 5.963 0 0 1-.64-1.543h-1.5a5.98 5.98 0 0 0 .64 1.544l-1.2 1.199 2.12 2.12.75-.75-1.37-1.37Zm-2.636-5.742h1.5v3h-1.5v-3Z"/><path fill="#F0C8A0" d="m16.531 26.346.849-2.736a2.576 2.576 0 0 0-1.698-3.222.68.68 0 0 0-.85.448l-.233.754c-.002.005-2.643 5.983-4.132 5.95v10.188h.804c.468 0 .926.14 1.315.399.39.26.847.398 1.315.398h6.078v-12.18h-3.448Z"/><path fill="#D2AA82" d="M16.224 26.346a.714.714 0 0 0-.67.954 3.775 3.775 0 0 1-1.781 4.571.42.42 0 0 0 0 .734 3.776 3.776 0 0 1 1.943 3.939c-.17 1.042.664 1.98 1.72 1.98h2.543V26.346h-3.755Z"/><path fill="#F0C8A0" d="M22.898 32.435h-3.88a1.522 1.522 0 1 1 0-3.045h3.88a1.522 1.522 0 1 1 0 3.045Zm-.757 3.045h-3.88a1.523 1.523 0 1 1 0-3.045h3.88a1.522 1.522 0 0 1 0 3.045Z"/><path fill="#F0C8A0" d="M21.385 38.524h-3.88a1.522 1.522 0 1 1 0-3.045h3.88a1.523 1.523 0 1 1 0 3.045Zm2.27-9.133h-3.881a1.523 1.523 0 1 1 0-3.045h3.88a1.522 1.522 0 1 1 0 3.045Z"/><path fill="#D2AA82" d="M23.655 26.346h-.757a1.523 1.523 0 1 1 0 3.045h.756a1.522 1.522 0 1 0 .001-3.045Z"/><path fill="#D2AA82" d="M22.899 29.39h-.756a1.522 1.522 0 1 1 0 3.046h.756a1.522 1.522 0 1 0 0-3.045Z"/><path fill="#D2AA82" d="M22.143 32.435h-.756a1.522 1.522 0 1 1 0 3.045h.756a1.522 1.522 0 1 0 0-3.045Zm-.756 3.045h-.756a1.522 1.522 0 1 1 0 3.045h.756a1.522 1.522 0 1 0 0-3.045Z"/><path fill="#505050" d="M9.716 38.524H6.46a.75.75 0 0 1-.75-.75V27.171a.75.75 0 0 1 .75-.75h3.255a.75.75 0 0 1 .75.75v10.603a.75.75 0 0 1-.75.75Z"/><path fill="#3C3C3C" d="M10.465 37.66v.431a.432.432 0 0 1-.432.432h-3.89a.433.433 0 0 1-.432-.432v-.432c0 .238.194.432.432.432h3.89a.432.432 0 0 0 .432-.432Zm-2.376-7.348a1.08 1.08 0 1 0 0-2.162 1.08 1.08 0 0 0 0 2.162Z"/><path fill="#F0F0F0" d="M8.089 29.88a1.08 1.08 0 1 0 0-2.162 1.08 1.08 0 0 0 0 2.162Z"/><path fill="#1EAA96" d="M21.695 39.992v5.02l1.202-.6v-4.808a2.97 2.97 0 0 1-1.202.389Z"/><path fill="#DC4632" d="M13.815 19.64a2.15 2.15 0 0 1 1.037-.687c-.064-.245-.166-.479-.337-.652a1.173 1.173 0 0 1 0-1.635c.442-.449.54-1.26.22-1.803a1.175 1.175 0 0 1 .39-1.587c.536-.33.826-1.095.644-1.698a1.174 1.174 0 0 1 .76-1.447c.6-.193 1.064-.866 1.032-1.495a1.174 1.174 0 0 1 1.084-1.223c.628-.044 1.24-.586 1.359-1.205a1.174 1.174 0 0 1 1.345-.928c.621.108 1.344-.272 1.608-.844.117-.253.318-.44.555-.554-.036-.012-.075-.01-.11-.026a1.174 1.174 0 0 0-1.528.58c-.264.572-.987.952-1.608.844a1.174 1.174 0 0 0-1.346.928c-.12.619-.73 1.16-1.359 1.205a1.174 1.174 0 0 0-1.084 1.223c.033.63-.432 1.302-1.032 1.495-.6.192-.94.844-.76 1.447.183.603-.107 1.367-.644 1.698a1.174 1.174 0 0 0-.391 1.587c.32.543.223 1.353-.22 1.803a1.173 1.173 0 0 0 0 1.634c.33.334.467.867.385 1.34Z"/></svg>