<svg xmlns="http://www.w3.org/2000/svg" width="72" height="72" fill="none"><path fill="#fff" d="M35.92 72c-1.83 0-3.582-.92-4.808-2.525-.757-.992-2.151-1.632-3.551-1.632a4.01 4.01 0 0 0-1.823.414c-.975.498-1.98.75-2.99.75-2.796.001-5.082-1.973-5.688-4.912-.384-1.86-2.323-3.43-4.233-3.43h-.082a8.96 8.96 0 0 1-.179.003c-1.973 0-3.739-.813-4.845-2.23-1.112-1.425-1.473-3.352-.988-5.289.464-1.855-.657-4.173-2.398-4.96-1.844-.834-3.137-2.338-3.548-4.124-.41-1.787.097-3.703 1.39-5.258 1.223-1.47 1.22-4.044-.008-5.51C.869 31.745.357 29.83.763 28.042c.405-1.787 1.692-3.294 3.533-4.133 1.74-.794 2.854-3.115 2.384-4.969-.492-1.936-.136-3.868.976-5.297 1.106-1.422 2.876-2.238 4.855-2.238.052 0 .105 0 .158.002h.069c1.916 0 3.854-1.577 4.233-3.444.6-2.95 2.887-4.931 5.692-4.931 1.004 0 2.004.249 2.974.74.528.268 1.154.41 1.812.41 1.405 0 2.802-.645 3.558-1.642C32.233.926 33.99 0 35.825 0c1.83 0 3.582.92 4.808 2.525.769 1.006 2.13 1.632 3.55 1.632.664 0 1.294-.143 1.824-.415.974-.498 1.981-.75 2.991-.75 2.795 0 5.08 1.974 5.688 4.913.384 1.859 2.322 3.43 4.233 3.43l.082-.001.179-.002c1.973 0 3.74.813 4.845 2.23 1.112 1.425 1.472 3.352.987 5.288-.464 1.854.657 4.173 2.4 4.96 1.842.835 3.135 2.337 3.546 4.123.41 1.787-.096 3.703-1.39 5.258-1.223 1.47-1.22 4.044.009 5.511 1.298 1.551 1.81 3.466 1.405 5.254-.405 1.788-1.693 3.294-3.533 4.134-1.74.793-2.853 3.114-2.383 4.968.49 1.938.135 3.87-.977 5.298-1.107 1.422-2.877 2.238-4.858 2.238l-.154-.001-.071-.001c-1.915 0-3.854 1.577-4.233 3.443-.6 2.95-2.886 4.931-5.69 4.931-1.004 0-2.006-.25-2.976-.742a4.016 4.016 0 0 0-1.809-.408c-1.405 0-2.804.646-3.561 1.644-1.225 1.614-2.98 2.54-4.817 2.54Z"/><path fill="#000" d="M63.102 53.557c.714 2.816-1.078 5.07-3.982 5.01-2.904-.061-5.754 2.218-6.332 5.065-.578 2.846-3.171 4.1-5.762 2.785-2.59-1.314-6.146-.496-7.902 1.817-1.756 2.314-4.635 2.319-6.399.01-1.764-2.308-5.323-3.115-7.908-1.792-2.587 1.322-5.184.078-5.77-2.766-.588-2.846-3.445-5.116-6.349-5.047-2.904.07-4.702-2.18-3.997-4.998.705-2.817-.883-6.103-3.53-7.3s-3.292-4.004-1.434-6.236c1.858-2.234 1.853-5.883-.012-8.11-1.866-2.227-1.23-5.035 1.413-6.24 2.644-1.206 4.222-4.496 3.508-7.311-.714-2.816 1.078-5.07 3.982-5.01 2.904.06 5.753-2.22 6.331-5.066.579-2.847 3.172-4.1 5.762-2.786 2.59 1.315 6.147.498 7.903-1.816 1.756-2.314 4.636-2.318 6.399-.01 1.764 2.309 5.322 3.114 7.908 1.792 2.587-1.323 5.183-.078 5.77 2.767.588 2.845 3.445 5.116 6.35 5.046 2.903-.07 4.702 2.18 3.996 4.997-.705 2.817.883 6.103 3.53 7.3 2.647 1.198 3.292 4.004 1.434 6.238-1.858 2.232-1.853 5.88.013 8.109 1.864 2.226 1.228 5.035-1.415 6.24-2.643 1.207-4.22 4.496-3.507 7.312Z"/><path fill="url(#a)" d="M67.19 30.616c.405-.629.553-1.293.411-1.91-.17-.739-.741-1.363-1.608-1.755-3.25-1.47-5.188-5.479-4.321-8.937.23-.924.097-1.759-.377-2.351-.475-.593-1.259-.906-2.21-.883-3.565.085-7.051-2.686-7.772-6.178-.318-1.538-1.413-2.37-2.79-2.12a3.437 3.437 0 0 0-.945.33 7.184 7.184 0 0 1-1.983.666c-2.895.527-5.989-.622-7.699-2.86-.675-.883-1.566-1.298-2.445-1.137-.63.115-1.215.51-1.696 1.143-1.114 1.469-2.873 2.515-4.824 2.87-1.697.31-3.42.08-4.85-.646-.632-.32-1.266-.435-1.834-.332-.965.176-1.656.954-1.896 2.134-.613 3.016-3.22 5.52-6.34 6.089a7.06 7.06 0 0 1-1.412.114 3.634 3.634 0 0 0-.724.055c-.71.13-1.266.477-1.605 1.006-.37.576-.459 1.35-.248 2.18.877 3.457-1.05 7.472-4.294 8.952-.866.395-1.435 1.02-1.602 1.76-.168.74.076 1.549.687 2.278 2.29 2.734 2.296 7.187.015 9.929-.349.42-.572.864-.672 1.307 8.15-4.92 18.836-8.917 30.846-11.107 11.758-2.143 22.94-2.216 32.188-.598Z"/><path fill="url(#b)" d="M5.756 45.048c3.249 1.47 5.188 5.479 4.322 8.938-.23.923-.097 1.758.377 2.35.474.593 1.259.907 2.21.885 3.565-.086 7.05 2.686 7.772 6.178.317 1.539 1.412 2.37 2.79 2.119.31-.057.628-.168.944-.329a7.171 7.171 0 0 1 1.985-.667c2.894-.527 5.987.622 7.697 2.86.675.883 1.566 1.298 2.445 1.137.63-.114 1.216-.51 1.697-1.143 1.115-1.469 2.873-2.515 4.826-2.871 1.695-.31 3.417-.08 4.849.647.631.32 1.265.435 1.832.332.965-.176 1.657-.955 1.897-2.135.612-3.016 3.22-5.518 6.339-6.087a7.07 7.07 0 0 1 1.412-.114c.252.004.496-.014.724-.055.71-.13 1.266-.478 1.606-1.006.37-.577.458-1.352.248-2.182-.876-3.456 1.05-7.471 4.294-8.95.865-.395 1.434-1.02 1.602-1.76.168-.74-.076-1.55-.687-2.28-2.29-2.734-2.296-7.188-.016-9.927.102-.122.19-.247.27-.373-9.249-1.618-20.43-1.545-32.189.598-12.01 2.19-22.696 6.187-30.845 11.107a2.19 2.19 0 0 0-.008.973c.17.74.74 1.364 1.607 1.755Z"/><path fill="#000" d="M61.531 39.404c1.885-14.168-8.073-27.183-22.242-29.068C25.12 8.45 12.105 18.408 10.22 32.577c-1.885 14.17 8.073 27.184 22.242 29.07 14.17 1.884 27.184-8.073 29.069-22.242Z"/><path fill="#fff" d="M34.254 60.767a.3.3 0 1 1 .038-.6 24.334 24.334 0 0 0 1.886.049.3.3 0 1 1 .008.6l-.314.003c-.544 0-1.084-.018-1.618-.052Zm3.536-.32a.3.3 0 0 1 .272-.327 24.178 24.178 0 0 0 1.871-.241.3.3 0 1 1 .1.593 24.844 24.844 0 0 1-1.944.248.302.302 0 0 1-.3-.273Zm-5.46.121a24.984 24.984 0 0 1-1.901-.348.3.3 0 0 1 .131-.587 24 24 0 0 0 1.855.34.301.301 0 0 1-.084.595Zm9.231-.711a.3.3 0 0 1 .219-.365c.613-.153 1.217-.33 1.81-.53a.301.301 0 0 1 .191.57c-.608.204-1.227.386-1.855.543a.3.3 0 0 1-.364-.218Zm-13.001-.133c-.62-.19-1.229-.405-1.826-.641a.301.301 0 0 1 .221-.56c.583.231 1.177.44 1.782.626a.3.3 0 1 1-.177.575Zm16.633-1.037a.3.3 0 0 1 .158-.394 25.06 25.06 0 0 0 1.705-.806.3.3 0 0 1 .278.532c-.57.298-1.152.573-1.747.827a.301.301 0 0 1-.394-.159Zm-20.229-.388a24.67 24.67 0 0 1-1.703-.918.3.3 0 0 1 .306-.518c.541.32 1.095.619 1.662.896a.3.3 0 1 1-.265.54Zm23.633-1.334a.3.3 0 0 1 .096-.415 24.363 24.363 0 0 0 1.559-1.061.3.3 0 1 1 .357.484 25.2 25.2 0 0 1-1.597 1.087.3.3 0 0 1-.415-.095Zm-26.961-.633a24.959 24.959 0 0 1-1.54-1.17.3.3 0 1 1 .383-.465c.486.4.986.781 1.502 1.143a.3.3 0 1 1-.345.492Zm30.058-1.598a.3.3 0 0 1 .03-.424c.476-.412.935-.843 1.377-1.29a.3.3 0 0 1 .428.423c-.453.458-.924.899-1.41 1.321a.3.3 0 0 1-.425-.03Zm-33.04-.86a24.575 24.575 0 0 1-1.34-1.394.3.3 0 1 1 .45-.4c.418.471.853.925 1.306 1.362a.3.3 0 0 1-.416.433Zm35.756-1.823a.3.3 0 0 1-.035-.424c.406-.48.793-.976 1.161-1.487a.3.3 0 1 1 .488.35 24.882 24.882 0 0 1-1.19 1.525.3.3 0 0 1-.424.036Zm-38.323-1.065a24.644 24.644 0 0 1-1.107-1.584.301.301 0 0 1 .505-.325c.34.53.7 1.045 1.081 1.546a.301.301 0 0 1-.48.363ZM56.68 48.98a.3.3 0 0 1-.1-.413c.326-.537.632-1.087.917-1.65a.3.3 0 1 1 .536.272 24.618 24.618 0 0 1-.94 1.691.302.302 0 0 1-.413.1Zm-42.682-1.242A24.828 24.828 0 0 1 13.15 46a.3.3 0 0 1 .55-.242c.255.577.53 1.142.828 1.694a.3.3 0 1 1-.53.285Zm44.448-2.145a.3.3 0 0 1-.164-.392c.239-.58.455-1.172.649-1.773a.3.3 0 1 1 .572.184c-.198.616-.42 1.223-.665 1.817a.3.3 0 0 1-.392.164ZM12.44 44.204a24.635 24.635 0 0 1-.567-1.849.3.3 0 1 1 .582-.153c.16.61.345 1.212.552 1.803a.3.3 0 1 1-.567.199Zm47.22-2.232a.3.3 0 0 1-.223-.362c.144-.609.265-1.226.363-1.852a.3.3 0 0 1 .594.093c-.1.64-.224 1.274-.372 1.897a.3.3 0 0 1-.362.224Zm-48.207-1.504a24.756 24.756 0 0 1-.271-1.914.3.3 0 1 1 .598-.06c.064.629.153 1.252.265 1.867a.3.3 0 0 1-.592.107Zm48.841-2.26a.3.3 0 0 1-.276-.323 24.568 24.568 0 0 0 .042-3.107.3.3 0 1 1 .6-.03 25.072 25.072 0 0 1-.043 3.182.301.301 0 0 1-.323.277ZM11.06 36.625a23.66 23.66 0 0 1 .026-1.933.3.3 0 1 1 .6.031 24.662 24.662 0 0 0-.025 1.887.301.301 0 0 1-.293.308h-.007a.3.3 0 0 1-.301-.293Zm48.833-3.726a24.127 24.127 0 0 0-.312-1.86.3.3 0 1 1 .59-.123c.13.627.236 1.263.319 1.907a.3.3 0 0 1-.597.076Zm-48.373.205a.301.301 0 0 1-.26-.337c.085-.644.193-1.28.325-1.906a.3.3 0 0 1 .588.123 24.235 24.235 0 0 0-.316 1.86.3.3 0 0 1-.337.26Zm47.605-3.895a23.959 23.959 0 0 0-.599-1.79v.001a.3.3 0 1 1 .562-.213c.228.6.433 1.212.614 1.833a.3.3 0 1 1-.577.169Zm-46.865.15a.3.3 0 0 1-.203-.373c.183-.621.39-1.232.618-1.832a.3.3 0 0 1 .562.214 24.16 24.16 0 0 0-.603 1.788.3.3 0 0 1-.374.203Zm45.53-3.674a24.181 24.181 0 0 0-.87-1.673.3.3 0 0 1 .522-.298c.319.558.616 1.13.892 1.715a.301.301 0 0 1-.544.256Zm-44.212.09a.3.3 0 0 1-.143-.4c.277-.585.577-1.157.897-1.715a.3.3 0 1 1 .521.299 24.345 24.345 0 0 0-.875 1.672.301.301 0 0 1-.4.143Zm42.344-3.363a24.316 24.316 0 0 0-1.12-1.518.3.3 0 1 1 .47-.376 24.98 24.98 0 0 1 1.147 1.556.3.3 0 0 1-.497.338Zm-40.483.027a.3.3 0 0 1-.08-.418 25.8 25.8 0 0 1 1.153-1.554.3.3 0 0 1 .468.377c-.393.49-.768.996-1.124 1.516a.3.3 0 0 1-.417.079Zm38.13-2.973c-.43-.46-.878-.902-1.342-1.327a.3.3 0 1 1 .406-.444c.476.436.934.89 1.374 1.361a.3.3 0 1 1-.439.41Zm-35.776-.033a.3.3 0 0 1-.013-.425c.442-.47.9-.922 1.378-1.357a.301.301 0 0 1 .405.445c-.465.423-.914.865-1.345 1.323a.3.3 0 0 1-.425.014Zm32.995-2.515a24.232 24.232 0 0 0-1.53-1.104.3.3 0 1 1 .332-.501c.538.357 1.06.735 1.568 1.132a.3.3 0 0 1-.37.473Zm-30.205-.091a.3.3 0 0 1 .053-.422 25.093 25.093 0 0 1 1.57-1.127.3.3 0 0 1 .332.501c-.526.348-1.037.715-1.533 1.1a.3.3 0 0 1-.422-.052Zm27.063-1.996c-.548-.306-1.11-.59-1.684-.854a.3.3 0 1 1 .251-.546c.588.27 1.164.562 1.726.875a.301.301 0 0 1-.293.525Zm-23.904-.147a.3.3 0 0 1 .117-.409 24.827 24.827 0 0 1 1.725-.87.3.3 0 1 1 .25.548c-.574.261-1.135.545-1.684.849a.302.302 0 0 1-.408-.118Zm20.475-1.427a24.053 24.053 0 0 0-1.796-.58.3.3 0 1 1 .163-.579c.624.175 1.237.374 1.84.595a.3.3 0 0 1-.207.564Zm-17.024-.198a.3.3 0 0 1 .179-.385c.603-.22 1.217-.417 1.841-.59a.3.3 0 0 1 .161.579c-.609.169-1.208.361-1.796.575a.3.3 0 0 1-.385-.179Zm13.394-.819a23.734 23.734 0 0 0-1.864-.293.3.3 0 1 1 .07-.597 24.42 24.42 0 0 1 1.91.3.3.3 0 0 1-.116.59Zm-9.73-.248a.3.3 0 0 1 .238-.353 24.83 24.83 0 0 1 1.91-.296.3.3 0 0 1 .07.598c-.63.072-1.251.169-1.865.288a.3.3 0 0 1-.353-.237Zm5.985-.192a24.818 24.818 0 0 0-1.887-.002.3.3 0 1 1-.022-.6 24.796 24.796 0 0 1 1.933.002.3.3 0 0 1-.012.6h-.012Z"/><path fill="#fff" d="M58.872 37.842c1.02-12.704-8.452-23.83-21.156-24.849-12.704-1.02-23.829 8.453-24.848 21.156-1.02 12.704 8.452 23.83 21.156 24.849 12.704 1.02 23.829-8.453 24.848-21.156Z"/><path fill="#000" d="M13.621 36c0-12.29 9.963-22.253 22.253-22.253 12.29 0 22.252 9.963 22.253 22.252 0 12.29-9.964 22.253-22.253 22.253-12.29 0-22.253-9.963-22.253-22.253Zm6.954-15.3A21.568 21.568 0 0 0 14.236 36a21.568 21.568 0 0 0 6.338 15.299 21.57 21.57 0 0 0 15.299 6.337 21.568 21.568 0 0 0 15.299-6.337 21.569 21.569 0 0 0 6.337-15.3A21.568 21.568 0 0 0 51.173 20.7a21.567 21.567 0 0 0-15.3-6.337A21.568 21.568 0 0 0 20.576 20.7Z"/><path fill="#fff" d="M35.82 3.447c.758 0 1.493.416 2.07 1.17 1.407 1.842 3.818 2.986 6.29 2.986a7.484 7.484 0 0 0 3.393-.792c.484-.248.963-.373 1.422-.373 1.168 0 2.032.809 2.312 2.164.716 3.465 4.057 6.18 7.608 6.18a7.891 7.891 0 0 1 .261-.003c.918 0 1.674.32 2.129.903.46.591.59 1.42.36 2.33-.865 3.46 1.074 7.469 4.322 8.94.867.391 1.439 1.015 1.608 1.754.171.74-.07 1.55-.68 2.282-2.28 2.739-2.274 7.192.016 9.927.61.73.855 1.54.687 2.28-.168.74-.737 1.364-1.602 1.759-3.244 1.48-5.17 5.496-4.294 8.951.231.913.105 1.742-.356 2.334-.456.587-1.215.91-2.138.91l-.084-.002-.142-.001c-3.56 0-6.903 2.724-7.61 6.203-.275 1.36-1.14 2.172-2.313 2.172-.456 0-.932-.124-1.415-.37a7.47 7.47 0 0 0-3.369-.78c-2.482 0-4.899 1.151-6.306 3.005-.576.76-1.312 1.178-2.072 1.178-.757 0-1.492-.416-2.07-1.171-1.407-1.842-3.817-2.986-6.29-2.986a7.483 7.483 0 0 0-3.392.792c-.484.247-.962.373-1.422.373-1.168 0-2.032-.808-2.312-2.163-.715-3.466-4.057-6.18-7.608-6.18-.055 0-.11 0-.164.002h-.097c-.917 0-1.673-.32-2.128-.903-.462-.591-.59-1.42-.362-2.332.866-3.46-1.073-7.468-4.322-8.937-.866-.392-1.437-1.016-1.607-1.756-.17-.74.071-1.55.68-2.28 2.28-2.741 2.273-7.195-.015-9.928-.611-.73-.856-1.54-.688-2.28.168-.74.736-1.364 1.602-1.759 3.244-1.479 5.17-5.495 4.294-8.95-.231-.914-.105-1.742.357-2.336.455-.585 1.213-.907 2.135-.907h.085l.142.002c3.56 0 6.904-2.725 7.61-6.205.276-1.36 1.142-2.17 2.314-2.17.457 0 .933.123 1.415.368a7.476 7.476 0 0 0 3.37.782c2.483 0 4.899-1.152 6.305-3.006.576-.76 1.312-1.177 2.072-1.177Zm0 .608c-.565 0-1.128.332-1.586.936-1.52 2.003-4.121 3.246-6.79 3.246A8.084 8.084 0 0 1 23.8 7.39c-.396-.201-.78-.303-1.14-.303-.874 0-1.5.614-1.718 1.684-.762 3.752-4.367 6.692-8.206 6.692-.051 0-.103 0-.154-.002h-.08c-.723 0-1.311.239-1.649.673-.343.44-.43 1.085-.247 1.812.946 3.727-1.132 8.058-4.631 9.653-.689.314-1.136.79-1.261 1.34-.125.551.074 1.174.56 1.755 2.47 2.948 2.476 7.75.017 10.707-.484.582-.681 1.205-.555 1.755.126.55.576 1.026 1.266 1.338 3.504 1.584 5.595 5.908 4.661 9.64-.182.726-.093 1.37.251 1.81.337.431.923.67 1.65.67l.083-.002.176-.002c3.83 0 7.433 2.928 8.205 6.666.22 1.066.845 1.678 1.716 1.678.362 0 .747-.103 1.145-.307 1.098-.562 2.367-.859 3.67-.859 2.657 0 5.252 1.236 6.773 3.225.459.602 1.022.932 1.586.932.565 0 1.129-.332 1.587-.936 1.52-2.003 4.122-3.247 6.791-3.247a8.08 8.08 0 0 1 3.644.848c.396.2.78.303 1.14.303.874 0 1.5-.614 1.718-1.685.762-3.751 4.366-6.69 8.205-6.69l.153.001h.079c.725 0 1.314-.238 1.652-.673.343-.44.43-1.084.246-1.81-.944-3.728 1.133-8.059 4.631-9.655.69-.314 1.137-.79 1.262-1.34.125-.551-.074-1.175-.56-1.756-2.47-2.948-2.477-7.752-.017-10.706.485-.583.682-1.206.555-1.756-.126-.55-.576-1.025-1.266-1.338-3.504-1.585-5.594-5.91-4.661-9.64.182-.726.093-1.368-.25-1.809-.337-.432-.923-.67-1.65-.67l-.088.001a5.85 5.85 0 0 1-.173.002c-3.828 0-7.431-2.927-8.203-6.664-.22-1.067-.846-1.68-1.717-1.68-.362 0-.747.104-1.145.307a8.094 8.094 0 0 1-3.67.859c-2.658 0-5.253-1.236-6.773-3.225-.46-.6-1.023-.931-1.586-.931Z"/><path fill="#000" d="M29.12 22.743c-.462.087-.716-.033-.716-.514 0-.89.703-1.87 2.354-2.178.308-.058 1.123-.037 1.805-.164.328-.062.622-.157.81-.312-.168.332-.261.537-.576 2.18.295-.282.636-.54.956-.6.361-.068.77.244.77.692 0 .053 0 .106-.014.163l-.274 1.328a1.02 1.02 0 0 0-.034.22c0 .147.074.233.334.184.268-.05.616-.489.883-.753l.228-.042c-.308.365-1.064 1.395-1.585 1.493-.522.097-.829-.073-.829-.574 0-.107.013-.216.04-.348l.254-1.251a.868.868 0 0 0 .02-.178c0-.24-.127-.37-.307-.337-.188.035-.328.128-.495.287-.127.679-.288 1.55-.495 2.74l-.963.18.916-4.436c-.267.023-.575.033-.882.05l-.943 4.555-.963.18.956-4.617c-.742.172-1.344.566-1.344 1.615 0 .34.087.378.094.437Z"/><path fill="#000" d="M34.85 23.23c0-.85.36-2.408 1.578-2.635.548-.103.855.067.855.535 0 .816-.875 1.447-1.51 1.646-.014.11-.02.211-.02.291 0 .442.22.534.48.485.315-.058.583-.289.857-.587 0 .722-.582 1.018-1.25 1.143-.643.12-.99-.304-.99-.879Zm1.798-2.322c-.374.07-.682.883-.822 1.537.615-.121 1.05-.73 1.056-1.206 0-.14-.033-.369-.234-.331Zm-9.886 21.654-2.236.475v-1.495c0-.434-.024-.7-.072-.798-.048-.098-.153-.13-.316-.095-.184.039-.301.13-.35.271-.05.142-.075.43-.075.866v3.994c0 .418.024.685.074.802.05.117.162.157.335.12.166-.035.275-.122.327-.26.051-.14.077-.445.077-.917v-1.08l2.236-.476v.336c0 .89-.063 1.534-.189 1.933-.125.4-.403.785-.834 1.156-.43.372-.96.624-1.59.758-.656.14-1.196.135-1.62-.012-.426-.147-.707-.416-.845-.806-.138-.39-.207-1.007-.207-1.85v-2.512c0-.62.02-1.09.063-1.408.043-.319.17-.644.38-.976.21-.331.503-.62.876-.863a3.757 3.757 0 0 1 1.288-.52c.66-.14 1.203-.128 1.631.035.428.164.71.422.845.773.134.352.201.929.201 1.732v.817Zm5.944-5.007v8.6l-2.236.475v-3.612l-.67.142v3.612l-2.236.475v-8.6l2.236-.475v3.076l.67-.142V38.03l2.236-.475Zm6.011 3.761c0 .864-.02 1.48-.061 1.848a2.528 2.528 0 0 1-.383 1.066 2.81 2.81 0 0 1-.868.87c-.365.237-.79.407-1.275.51-.46.097-.874.11-1.24.037a1.536 1.536 0 0 1-.885-.49 1.631 1.631 0 0 1-.398-.897c-.042-.345-.064-.96-.064-1.846v-1.471c0-.864.02-1.48.061-1.848.04-.368.168-.724.383-1.067.214-.343.503-.633.868-.87.365-.236.79-.406 1.275-.509.46-.098.874-.11 1.24-.038.367.073.662.236.885.49.223.254.355.553.398.898.042.345.064.96.064 1.846v1.47Zm-2.237-2.351c0-.4-.022-.652-.066-.754-.044-.102-.135-.139-.273-.11a.395.395 0 0 0-.269.194c-.062.103-.093.376-.093.819v4.015c0 .5.02.803.061.911.041.108.136.147.285.115a.36.36 0 0 0 .292-.264c.042-.143.064-.468.064-.975v-3.951Zm5.301-3.337v8.6l-2.236.474v-8.6l2.236-.474Zm6.119 2.446-2.236.475v-1.495c0-.434-.024-.7-.072-.798-.048-.098-.153-.13-.316-.095-.184.04-.3.13-.35.271-.05.142-.075.43-.075.866v3.994c0 .418.025.685.075.802.05.117.16.157.334.12.167-.035.276-.122.327-.26.051-.139.077-.444.077-.917v-1.08l2.236-.475v.335c0 .89-.063 1.534-.188 1.933-.126.4-.404.785-.834 1.156-.43.372-.961.624-1.591.758-.655.14-1.195.135-1.62-.012-.425-.147-.707-.416-.845-.806-.138-.39-.207-1.007-.207-1.85v-2.512c0-.62.021-1.089.064-1.408.042-.319.169-.644.38-.976.21-.331.503-.62.876-.863a3.75 3.75 0 0 1 1.288-.52c.659-.14 1.202-.128 1.63.035.429.164.71.422.845.773.135.352.202.93.202 1.732v.817Zm.803-3.914 3.729-.793v1.722l-1.493.316v1.631l1.397-.297v1.637l-1.397.296v1.89l1.642-.348v1.721l-3.878.823V34.16Zm-23.332-6.084 2.23-.474c.705-.15 1.24-.208 1.602-.175.363.032.656.192.88.48.222.286.334.801.334 1.544 0 .503-.079.87-.237 1.102-.157.232-.468.45-.932.654.517.007.868.127 1.052.359.184.232.276.628.276 1.188v.797c0 .58-.066 1.026-.199 1.333a1.455 1.455 0 0 1-.635.71c-.29.164-.885.341-1.784.532l-2.587.55v-8.6Zm2.236.996v1.912l.224-.052c.219-.047.359-.13.42-.251.06-.121.09-.436.09-.946 0-.27-.025-.453-.075-.55-.05-.098-.114-.152-.194-.163-.08-.012-.235.005-.465.05Zm0 3.251v2.406c.316-.078.517-.17.603-.277.087-.106.13-.334.13-.68v-.803c0-.368-.038-.583-.116-.644-.078-.061-.284-.062-.617-.002Zm3.77-5.523 3.729-.792v1.721l-1.493.317v1.631l1.397-.297v1.636l-1.397.297v1.89l1.642-.348v1.721l-3.878.824v-8.6Zm9.263.637-2.078.441v-.638c0-.297-.026-.48-.08-.551-.053-.07-.141-.092-.265-.066a.442.442 0 0 0-.305.23c-.07.124-.104.298-.104.522 0 .287.039.494.117.623.074.13.284.26.631.392.996.38 1.623.731 1.881 1.055.259.324.388.908.388 1.75 0 .613-.072 1.08-.215 1.4-.144.321-.42.623-.831.907-.411.284-.89.484-1.435.6-.598.127-1.109.122-1.532-.015-.423-.137-.7-.367-.831-.69-.131-.322-.197-.805-.197-1.45v-.563l2.077-.44v1.045c0 .323.03.524.088.603.058.08.161.104.31.072a.474.474 0 0 0 .332-.246c.073-.132.11-.313.11-.543 0-.506-.07-.823-.208-.95-.142-.125-.49-.312-1.047-.558-.555-.25-.924-.44-1.104-.568-.181-.128-.33-.326-.45-.595-.118-.269-.177-.631-.177-1.088 0-.659.084-1.158.252-1.498.168-.34.44-.637.816-.888.375-.251.828-.434 1.36-.546.58-.123 1.075-.135 1.484-.034.409.1.68.28.813.537.132.257.199.727.199 1.41v.34Zm5.39-3.747v1.721l-1.329.282v6.879l-2.236.474v-6.878l-1.322.28v-1.72l4.886-1.038Z"/><defs><linearGradient id="a" x1="36.706" x2="28.235" y1="40.045" y2="-6.41" gradientUnits="userSpaceOnUse"><stop offset=".198" stop-color="#fff"/><stop offset="1" stop-color="#00142B"/></linearGradient><linearGradient id="b" x1="41.358" x2="36.486" y1="68.154" y2="41.438" gradientUnits="userSpaceOnUse"><stop stop-color="#5C6977"/><stop offset=".692" stop-color="#00142B"/><stop offset="1"/></linearGradient></defs></svg>