<svg xmlns="http://www.w3.org/2000/svg" width="48" height="49" fill="none"><path fill="#FFA91A" d="M10.986 21.62A13.015 13.015 0 1 0 24.001 8.604 13.063 13.063 0 0 0 10.986 21.62Z"/><path fill="#FFC91D" d="M13.757 28.027a.375.375 0 0 1-.323-.184A12.262 12.262 0 0 1 29 10.421a.362.362 0 0 1 .197.208.372.372 0 0 1-.008.287.386.386 0 0 1-.497.189A11.514 11.514 0 0 0 14.08 27.462a.373.373 0 0 1-.322.565Zm16.415-16.19a.382.382 0 0 1-.365-.288.375.375 0 1 1 .365.287Z"/><path fill="#F79219" d="M32.22 11.527a13.015 13.015 0 0 1-18.312 18.31 13.016 13.016 0 1 0 18.311-18.31Z"/><path fill="#EF7816" d="M32.722 11.96A13.015 13.015 0 0 1 14.34 30.342a13.017 13.017 0 0 0 18.862.48 13.015 13.015 0 0 0-.48-18.862Z"/><path fill="#fff" d="M25.01 19.93h-.388v-3.799h.387a1.902 1.902 0 0 1 1.9 1.9.621.621 0 1 0 1.243 0 3.147 3.147 0 0 0-3.143-3.142h-.387V14.5a.621.621 0 1 0-1.243 0v.387h-.387a3.142 3.142 0 1 0 0 6.285h.387v4.808h-.387a1.902 1.902 0 0 1-1.9-1.9.622.622 0 0 0-1.242 0 3.146 3.146 0 0 0 3.142 3.143h.387v.388a.622.622 0 0 0 1.243 0v-.388h.387a3.147 3.147 0 0 0 3.143-3.142v-1.009a3.146 3.146 0 0 0-3.143-3.142Zm-2.018-3.799h.387v3.8h-.387a1.9 1.9 0 1 1 0-3.8Zm3.917 6.942v1.009a1.902 1.902 0 0 1-1.9 1.9h-.387v-4.809h.387a1.902 1.902 0 0 1 1.9 1.9Z"/><path fill="#FCC4AE" d="M42.097 33.644c-1.927 1.528-8.565 6.69-13.114 8.998-5.373 2.728-10.553 0-14.761-.515-2.503-.375-5.03 1.17-6.391 2.677l-.03.005a.504.504 0 0 1-.572-.497v-7.357a5.66 5.66 0 0 1 4.168-5.47c1.899-.512 4.044-.463 6.277-.679a23.795 23.795 0 0 0 8.276-2.616c.51-.377 1.06-.083 1.167.508.377 2.087-.878 4.372-2.846 4.794l-1.036.236a.335.335 0 0 0 .037.657c3.611 1.247 7.283.424 10.806-1.11 2.328-1.012 6.054-3.596 8.154-.794a.863.863 0 0 1-.135 1.163Z"/><path fill="#F2AD97" d="M42.234 32.48a2.976 2.976 0 0 0-1.73-1.177.802.802 0 0 1-.28.466c-1.928 1.528-8.566 6.69-13.115 8.998-5.373 2.728-10.553 0-14.762-.515-1.853-.278-3.721.497-5.118 1.531v2.529a.502.502 0 0 0 .572.497l.03-.005c1.362-1.508 3.89-3.053 6.392-2.677 4.208.515 9.388 3.243 14.762.515 4.549-2.307 11.186-7.47 13.114-8.998a.862.862 0 0 0 .135-1.163Z"/><path fill="#FA6450" d="M8.13 20.407A15.946 15.946 0 0 1 23.466 5.63a15.742 15.742 0 0 1 14.828 8.896 16.284 16.284 0 0 1 1.579 5.884 1.03 1.03 0 0 0 1.445.863 1.037 1.037 0 0 0 .62-1.025 18.045 18.045 0 0 0-.593-3.45C38.868 7.731 29.695 2.062 20.48 3.911a18.009 18.009 0 0 0-14.413 16.33 1.038 1.038 0 0 0 1.734.844c.19-.177.308-.419.328-.678Zm33.173 2.309h-.712a.68.68 0 0 0 0 1.358h.712a.68.68 0 0 0 0-1.358Zm0 2.654h-.712a.68.68 0 0 0 0 1.357h.712a.68.68 0 0 0 0-1.358Zm0 2.652h-.712a.68.68 0 0 0 0 1.358h.712a.68.68 0 0 0 0-1.358ZM7.454 22.716h-.712a.68.68 0 0 0 0 1.358h.712a.68.68 0 0 0 0-1.358Zm-.534 7.133-2.706-3.97a.375.375 0 0 1 .31-.587h5.411a.376.376 0 0 1 .31.586l-2.706 3.97a.374.374 0 0 1-.62 0Z"/><path fill="#505050" d="M4 45V35h3v10H4Z"/></svg>