<svg xmlns="http://www.w3.org/2000/svg" width="121" height="32" fill="none"><g clip-path="url(#a)"><path fill="#E30613" d="M11.582 1.012A16.07 16.07 0 0 1 17.222 0c8.842 0 16 7.16 16 16s-7.158 16-16 16c-8.84 0-16-6.132-16-16.61V.402H4.84v15.092c0 7.814 5.537 12.874 12.369 12.874 6.831 0 12.368-5.536 12.368-12.368 0-6.832-5.537-12.368-12.368-12.368-2.024 0-3.944.49-5.641 1.354V1.012h.015Z"/><path fill="#142F45" d="M11.582 6.757a10.82 10.82 0 0 1 5.64-1.577c5.97 0 10.821 4.837 10.821 10.82 0 5.968-4.837 10.82-10.82 10.82-5.969 0-10.82-4.107-10.82-12.04V.402h3.616v14.6c0 5.284 3.215 8.187 7.189 8.187A7.184 7.184 0 0 0 24.397 16a7.184 7.184 0 0 0-7.19-7.189 8.752 8.752 0 0 0-5.64 2.04V6.756h.015Zm44.04 3.9h5.24V24.87h-5.224V10.657h-.015Zm2.62-6.162c.745 0 1.355.253 1.86.744.507.506.76 1.116.76 1.86a2.62 2.62 0 0 1-.744 1.876c-.506.506-1.132.759-1.876.759s-1.354-.253-1.86-.76c-.506-.505-.744-1.13-.744-1.874 0-.715.253-1.34.774-1.86.49-.507 1.101-.745 1.83-.745ZM76.475 16.03a1.124 1.124 0 0 0-.804-.328c-.327 0-.58.104-.774.313a1.147 1.147 0 0 0-.327.819v8.037h-5.224v-8.037a1.1 1.1 0 0 0-.328-.82c-.208-.207-.476-.312-.804-.312-.327 0-.58.104-.773.313a1.147 1.147 0 0 0-.328.819v8.037h-5.224v-7.859c0-1.83.595-3.393 1.8-4.659 1.191-1.265 2.695-1.905 4.54-1.905a4.74 4.74 0 0 1 1.935.402c.61.268 1.22.64 1.801 1.102a8.154 8.154 0 0 1 1.83-1.132 4.736 4.736 0 0 1 1.906-.386c1.83 0 3.349.64 4.554 1.92 1.206 1.28 1.816 2.813 1.816 4.643v7.859h-5.284v-8.037c0-.298-.104-.58-.312-.79Zm13.544-.313c-.58 0-1.072.194-1.459.596-.401.387-.595.878-.595 1.473 0 .58.194 1.057.596 1.459.401.401.878.595 1.458.595s1.072-.194 1.459-.595c.402-.387.595-.879.595-1.459a2.14 2.14 0 0 0-.566-1.473c-.386-.402-.893-.596-1.488-.596Zm-7.278 2.054c0-2.024.7-3.75 2.113-5.18 1.4-1.428 3.126-2.128 5.18-2.128 2.01 0 3.736.715 5.15 2.129 1.429 1.428 2.143 3.155 2.143 5.18 0 2.023-.714 3.735-2.143 5.164-1.43 1.414-3.14 2.128-5.15 2.128-2.01 0-3.736-.7-5.15-2.128-1.444-1.414-2.143-3.14-2.143-5.165ZM98.026 7.1h5.24v3.557h1.875v5.224h-1.875v1.89c0 .521.178.953.535 1.28.358.313.819.476 1.355.476v5.24c-.179.03-.357.059-.521.074-.164.015-.372.03-.61.03-1.667 0-3.081-.58-4.242-1.757-1.176-1.175-1.757-2.59-1.757-4.241V7.1Zm-45.29 5.492c-1.43-1.43-3.141-2.129-5.15-2.129-.224 0-.432.015-.64.03-.105.015-.194.03-.283.045v5.224c.238-.03.536-.045.923-.045.595 0 1.101.194 1.488.596.372.416.566.908.566 1.473 0 .58-.194 1.057-.596 1.459a1.964 1.964 0 0 1-1.458.595c-.58 0-1.072-.194-1.459-.595-.387-.387-.58-.864-.595-1.43V7.1h-5.224v10.67c0 2.024.714 3.736 2.128 5.165 1.429 1.414 3.14 2.128 5.15 2.128 2.009 0 3.735-.7 5.15-2.128 1.428-1.429 2.143-3.14 2.143-5.165 0-2.024-.715-3.75-2.144-5.18Zm65.413.014c-1.429-1.413-3.14-2.113-5.149-2.113-2.01 0-3.736.714-5.15 2.114-1.429 1.428-2.129 3.14-2.129 5.164 0 2.024.715 3.75 2.129 5.18 1.429 1.428 3.14 2.128 5.15 2.128.223 0 .431-.015.64-.03.089-.015.193-.03.282-.044V19.78c-.238.03-.535.044-.922.044-.596 0-1.102-.193-1.489-.595a2.147 2.147 0 0 1-.565-1.474c0-.58.193-1.056.595-1.458.387-.402.878-.596 1.459-.596.58 0 1.071.194 1.458.596.402.402.596.878.596 1.458v7.1h5.224v-7.1c.015-2.009-.7-3.72-2.129-5.15Z"/></g><defs><clipPath id="a"><path fill="#fff" d="M.518 0H121v32H.518z"/></clipPath></defs></svg>