<svg xmlns="http://www.w3.org/2000/svg" width="20" height="18" fill="none"><path fill="#fff" d="M17.953 4.92c.011.176.011.353.011.53 0 5.423-4.128 11.675-11.675 11.675v-.003A11.614 11.614 0 0 1 0 15.282a8.235 8.235 0 0 0 6.072-1.7 4.108 4.108 0 0 1-3.833-2.85 4.105 4.105 0 0 0 1.853-.07A4.104 4.104 0 0 1 .8 6.639v-.051a4.07 4.07 0 0 0 1.863.513 4.106 4.106 0 0 1-1.271-5.477A11.651 11.651 0 0 0 9.848 5.91a4.107 4.107 0 0 1 6.992-3.743c.92-.18 1.8-.518 2.607-.995a4.123 4.123 0 0 1-1.805 2.27A8.243 8.243 0 0 0 20 2.796a8.34 8.34 0 0 1-2.047 2.124Z"/></svg>