<svg xmlns="http://www.w3.org/2000/svg" width="88" height="72" fill="none"><path fill="url(#a)" d="M62.732 37.477a77.916 77.916 0 0 0 17.627-6.769 77.562 77.562 0 0 1-1.43 7.21 82.529 82.529 0 0 0 7.239 3.002 90.225 90.225 0 0 1-20.409 7.837l-3.027-11.28Z"/><path fill="#001430" d="M62.728 37.481c4.165.642 8.522.942 13.021.846l4.766 10.704a87.515 87.515 0 0 1-14.76-.27c-1.01-3.76-2.018-7.52-3.026-11.28Z"/><path fill="url(#b)" d="M24.385 37.477a77.925 77.925 0 0 1-17.626-6.769 77.568 77.568 0 0 0 1.43 7.21A82.546 82.546 0 0 1 .95 40.92a90.24 90.24 0 0 0 20.41 7.838l3.026-11.28Z"/><path fill="#001430" d="M24.388 37.481a75.007 75.007 0 0 1-13.02.846c-1.59 3.568-3.178 7.136-4.766 10.704a87.53 87.53 0 0 0 14.76-.27l3.026-11.28Z"/><path fill="#fff" d="M44.136 72a2.15 2.15 0 0 1-.724-.125l-.031-.012c-.284-.11-7.027-2.752-13.82-9.852-3.983-4.161-7.154-9-9.428-14.383-2.833-6.705-4.27-14.268-4.27-22.48V9.589c0-1.1.831-2.01 1.898-2.134l25.983-7.4a1.44 1.44 0 0 1 .785 0l25.945 7.4a2.152 2.152 0 0 1 1.897 2.134V25.15c0 8.254-1.435 15.844-4.263 22.558-2.271 5.392-5.44 10.229-9.416 14.377-6.787 7.078-13.525 9.674-13.808 9.782l-.022.008a2.137 2.137 0 0 1-.726.126Z"/><path fill="#000" d="M68.945 25.149c-.66 0-1.194-.535-1.194-1.194v-.085c0-.66.534-1.195 1.194-1.195h1.992V9.588a.716.716 0 0 0-.716-.716l-26.085-7.44-26.125 7.44a.716.716 0 0 0-.716.716v13.088h1.992c.66 0 1.194.534 1.194 1.194v.085c0 .66-.535 1.194-1.194 1.194h-1.992c0 35.156 26.599 45.376 26.599 45.376a.713.713 0 0 0 .483 0s26.56-10.029 26.56-45.376h-1.992Z"/><path fill="url(#c)" d="M22.737 46.429c2.122 5.051 5.083 9.594 8.8 13.502 5.616 5.907 11.312 8.585 12.603 9.145 1.274-.54 6.881-3.13 12.485-8.975 3.733-3.894 6.709-8.438 8.844-13.506 1.346-3.196 2.355-6.61 3.03-10.212H19.748c.67 3.538 1.665 6.895 2.989 10.046Z"/><path fill="url(#d)" d="M68.946 26.581a2.63 2.63 0 0 1-2.626-2.626v-.085a2.63 2.63 0 0 1 2.626-2.627h.56V10.157l-25.37-7.235-25.408 7.235v11.086h.56a2.63 2.63 0 0 1 2.627 2.627v.085a2.63 2.63 0 0 1-2.627 2.626h-.544c.073 3.4.41 6.67 1.003 9.803h48.751c.586-3.13.92-6.402.993-9.803h-.545Z"/><path fill="#FF5E15" d="m44.138 2.922 25.37 7.235v11.086h-.56a2.63 2.63 0 0 0-2.627 2.627v.085a2.63 2.63 0 0 0 2.627 2.626h.545c-.156 7.315-1.507 14.042-4.023 20.014-2.135 5.068-5.11 9.612-8.844 13.506-5.604 5.845-11.21 8.435-12.484 8.975-1.292-.56-6.988-3.238-12.604-9.144-3.716-3.909-6.678-8.452-8.8-13.503-2.496-5.94-3.837-12.61-3.992-19.848h.544a2.63 2.63 0 0 0 2.627-2.627v-.084a2.63 2.63 0 0 0-2.627-2.627h-.56V10.157l25.408-7.235Zm0 .447L19.16 10.48v10.332h.13a3.06 3.06 0 0 1 3.056 3.057v.085a3.06 3.06 0 0 1-3.056 3.056h-.104c.198 7.013 1.526 13.487 3.948 19.251 2.102 5.003 5.034 9.502 8.716 13.373 5.368 5.646 10.866 8.333 12.294 8.972 1.409-.618 6.818-3.22 12.172-8.803 3.697-3.856 6.643-8.357 8.758-13.376 2.442-5.798 3.78-12.329 3.978-19.417h-.104a3.06 3.06 0 0 1-3.056-3.056v-.085a3.06 3.06 0 0 1 3.056-3.057h.13V10.481l-24.94-7.112Z"/><path fill="#142F45" d="M44.084 66.547c-1.84-.85-6.77-3.414-11.613-8.386a42.151 42.151 0 0 1-8.546-12.804c-2.275-5.285-3.567-11.199-3.849-17.592a.141.141 0 1 1 .283-.013c.28 6.363 1.566 12.242 3.826 17.493a41.873 41.873 0 0 0 8.489 12.718c4.758 4.886 9.606 7.432 11.47 8.3 1.84-.843 6.604-3.313 11.343-8.139a41.582 41.582 0 0 0 8.53-12.718c2.28-5.285 3.575-11.217 3.855-17.653a.142.142 0 1 1 .283.012c-.281 6.467-1.584 12.433-3.88 17.753a41.868 41.868 0 0 1-8.586 12.804c-4.824 4.912-9.67 7.4-11.487 8.226a.14.14 0 0 1-.118 0Zm23.85-46.942v-8.137L44.136 5.013l-23.835 6.456v8.136a.14.14 0 1 1-.28 0v-8.243a.14.14 0 0 1 .104-.135L44.1 4.733a.144.144 0 0 1 .073 0l23.937 6.494a.14.14 0 0 1 .103.135v8.243a.14.14 0 1 1-.279 0Z"/><path fill="#FF5E15" d="m42.844 14.546.154-1.453-.91-1.143 1.429-.302.806-1.219.73 1.266 1.408.39-.98 1.085.065 1.46-1.334-.597-1.368.513Zm-4.444.375-.586-.95-1.086-.264.723-.852-.084-1.114 1.034.424 1.033-.424-.084 1.114.722.852-1.084.264-.587.95Zm11.436 0-.587-.95-1.085-.264.722-.852-.083-1.114 1.033.424 1.034-.424-.084 1.114.722.852-1.085.264-.587.95Zm4.779.602-.438-.71-.812-.198.54-.637-.062-.833.772.317.773-.317-.063.833.54.637-.81.197-.44.711Zm-20.994 0-.439-.71-.81-.198.54-.637-.063-.833.772.317.773-.317-.063.833.54.637-.81.197-.44.711Z"/><path fill="#F1F2FA" d="M11.37 38.328c20.54 8.542 43.84 8.541 64.38-.002l4.765 10.705c-23.58 9.808-50.33 9.808-73.91.002l4.766-10.705Z"/><path fill="#142F45" d="M42.999 55.166A.213.213 0 0 1 43 54.74a115.4 115.4 0 0 0 1.348-.002.212.212 0 1 1 .004.425 91.183 91.183 0 0 1-1.354.002Zm-1.354-.017c-.452-.01-.903-.021-1.354-.036a.213.213 0 0 1 .015-.425c.448.015.897.027 1.347.036a.212.212 0 0 1-.004.425h-.004Zm3.843-.213a.212.212 0 0 1 .208-.217c.449-.01.898-.023 1.346-.04v.001a.212.212 0 1 1 .015.425c-.45.016-.9.029-1.352.039H45.7a.213.213 0 0 1-.212-.208Zm-6.55.122a93.454 93.454 0 0 1-1.352-.075.212.212 0 0 1 .027-.423c.448.027.897.052 1.346.073a.212.212 0 0 1-.01.425h-.01Zm9.247-.213a.212.212 0 0 1 .202-.223c.449-.022.897-.048 1.344-.077a.212.212 0 1 1 .027.424 100.549 100.549 0 0 1-1.36.078.213.213 0 0 1-.213-.202Zm-11.95.046c-.45-.035-.9-.072-1.348-.112a.212.212 0 1 1 .038-.423c.447.04.895.077 1.343.11a.213.213 0 0 1-.032.425Zm14.645-.213a.212.212 0 0 1 .195-.228 96.69 96.69 0 0 0 1.342-.115.212.212 0 1 1 .039.423 94.503 94.503 0 0 1-1.364.116.212.212 0 0 1-.212-.196Zm-17.34-.03a91.27 91.27 0 0 1-1.346-.151.212.212 0 1 1 .05-.422c.446.053.892.103 1.34.15a.212.212 0 1 1-.045.422Zm20.028-.213a.212.212 0 0 1 .188-.234c.447-.047.893-.098 1.339-.152a.212.212 0 1 1 .05.421 96.907 96.907 0 0 1-1.367.155.212.212 0 0 1-.21-.19Zm-22.717-.108c-.448-.06-.895-.122-1.34-.188a.212.212 0 0 1 .062-.42c.444.065.889.128 1.334.187a.212.212 0 1 1-.056.422Zm25.398-.211a.212.212 0 0 1 .181-.24c.446-.06.89-.123 1.334-.19a.212.212 0 1 1 .063.42 89.882 89.882 0 0 1-1.368.194.212.212 0 0 1-.21-.184Zm-28.076-.185c-.446-.073-.89-.149-1.335-.228a.212.212 0 1 1 .075-.418c.442.079.884.154 1.328.226a.213.213 0 0 1-.068.42Zm30.746-.211a.212.212 0 0 1 .175-.244c.443-.073.886-.15 1.328-.23a.213.213 0 0 1 .075.419c-.444.08-.888.156-1.334.23a.212.212 0 0 1-.244-.175Zm-33.411-.263a92.685 92.685 0 0 1-1.328-.265.212.212 0 1 1 .087-.416 88 88 0 0 0 1.32.264.212.212 0 1 1-.08.417Zm36.07-.21a.212.212 0 0 1 .168-.249c.44-.086.88-.175 1.32-.267a.212.212 0 1 1 .087.416c-.441.093-.883.182-1.326.269a.213.213 0 0 1-.25-.168Zm-38.72-.34a100.7 100.7 0 0 1-1.32-.303.212.212 0 1 1 .099-.413c.436.103.874.204 1.312.302a.213.213 0 0 1-.092.414Zm41.364-.208a.212.212 0 0 1 .16-.254 83.3 83.3 0 0 0 1.313-.305.212.212 0 1 1 .099.413c-.439.105-.878.208-1.319.307a.213.213 0 0 1-.254-.16Zm-43.998-.417c-.437-.11-.874-.225-1.31-.342a.212.212 0 1 1 .11-.41c.434.116.87.23 1.304.34a.213.213 0 0 1-.104.412Zm46.625-.208a.212.212 0 0 1 .153-.258c.435-.111.87-.226 1.303-.343a.212.212 0 1 1 .111.41c-.435.118-.871.233-1.309.344a.212.212 0 0 1-.258-.153ZM17.61 51.58c-.433-.123-.866-.25-1.298-.379a.212.212 0 1 1 .121-.407c.43.13.862.255 1.294.378a.213.213 0 0 1-.117.408Zm51.848-.206a.212.212 0 0 1 .145-.263c.432-.123.863-.25 1.293-.38a.212.212 0 0 1 .123.407c-.432.13-.865.258-1.299.382a.213.213 0 0 1-.263-.146Zm-54.44-.57c-.43-.135-.86-.274-1.287-.416a.212.212 0 1 1 .133-.403c.427.141.854.279 1.282.414a.212.212 0 1 1-.128.405Zm57.027-.205a.212.212 0 0 1 .138-.266 91.09 91.09 0 0 0 1.282-.418.212.212 0 1 1 .134.404c-.428.142-.857.282-1.287.418a.212.212 0 0 1-.267-.138Zm-59.596-.645a94.67 94.67 0 0 1-1.274-.453.212.212 0 1 1 .144-.399c.422.153.845.304 1.27.45a.213.213 0 0 1-.14.402Zm62.16-.204a.213.213 0 0 1 .131-.27c.424-.148.847-.3 1.27-.454a.213.213 0 0 1 .145.4c-.424.154-.849.306-1.275.455a.213.213 0 0 1-.27-.13Zm-64.703-.719c-.421-.16-.842-.322-1.262-.488a.213.213 0 0 1 .156-.395c.418.165.837.327 1.257.486a.212.212 0 1 1-.15.397Zm67.243-.202a.212.212 0 0 1 .123-.275c.42-.16.838-.323 1.256-.489a.212.212 0 1 1 .157.395c-.42.166-.84.33-1.261.491a.213.213 0 0 1-.275-.122ZM43.55 46.167a.211.211 0 0 1 .212-.213c.449-.001.898-.006 1.347-.014a.212.212 0 1 1 .007.425c-.45.008-.902.013-1.354.014a.213.213 0 0 1-.213-.212Zm-1.141.204a84.477 84.477 0 0 1-1.353-.028.212.212 0 1 1 .012-.424c.448.012.897.022 1.346.028a.212.212 0 0 1-.005.424Zm3.842-.246a.212.212 0 0 1 .205-.22c.45-.014.898-.032 1.347-.055a.212.212 0 0 1 .02.425 80 80 0 0 1-1.353.055h-.007a.212.212 0 0 1-.212-.205Zm-6.547.17c-.451-.02-.901-.044-1.351-.071a.212.212 0 1 1 .025-.424c.448.026.896.05 1.345.07a.212.212 0 0 1-.01.424h-.01ZM48.95 46a.212.212 0 0 1 .198-.226c.449-.03.896-.062 1.344-.097a.212.212 0 1 1 .034.423c-.45.036-.9.069-1.35.098h-.015A.212.212 0 0 1 48.95 46Zm-11.947.132c-.45-.033-.9-.071-1.349-.112a.213.213 0 0 1 .039-.423c.447.04.894.078 1.342.112a.212.212 0 1 1-.032.423Zm14.64-.342a.212.212 0 0 1 .191-.232c.447-.043.894-.09 1.34-.14a.212.212 0 1 1 .048.422c-.449.05-.898.098-1.347.14v.001a.212.212 0 0 1-.232-.191Zm-17.335.096c-.449-.048-.897-.1-1.345-.156a.212.212 0 1 1 .053-.42c.445.054.89.106 1.337.154a.212.212 0 1 1-.045.422Zm20.02-.391a.212.212 0 0 1 .183-.238c.446-.057.891-.118 1.335-.182a.213.213 0 0 1 .06.42 83.871 83.871 0 0 1-1.367.185.213.213 0 0 1-.211-.185Zm-22.706.059a85.013 85.013 0 0 1-1.34-.198.213.213 0 0 1 .066-.42c.443.07.887.135 1.332.197a.213.213 0 0 1-.058.421Zm25.38-.44a.212.212 0 0 1 .176-.243c.444-.071.886-.146 1.328-.224a.212.212 0 1 1 .075.418c-.445.079-.89.154-1.335.226a.213.213 0 0 1-.243-.176Zm-28.055.023a84.833 84.833 0 0 1-1.332-.24.212.212 0 1 1 .079-.418c.44.083.883.163 1.325.24a.212.212 0 1 1-.072.418Zm30.716-.487a.212.212 0 0 1 .168-.25c.44-.085.88-.174 1.32-.266a.213.213 0 0 1 .087.416c-.441.092-.883.182-1.326.268a.212.212 0 0 1-.249-.168Zm-33.376-.015c-.442-.09-.883-.185-1.324-.283a.212.212 0 0 1 .092-.415c.439.098.878.191 1.317.282a.213.213 0 0 1-.085.416Zm36.02-.535a.212.212 0 0 1 .16-.255c.437-.099.874-.202 1.31-.309a.213.213 0 0 1 .101.413c-.438.107-.877.211-1.317.31a.213.213 0 0 1-.255-.16Zm-38.663-.052a81.26 81.26 0 0 1-1.314-.326.213.213 0 0 1 .106-.411c.435.111.87.22 1.307.324a.212.212 0 0 1-.099.413Zm41.287-.583a.213.213 0 0 1 .152-.259 83 83 0 0 0 1.3-.35.212.212 0 1 1 .114.408c-.434.122-.87.24-1.307.353a.212.212 0 0 1-.259-.152Zm-43.91-.089c-.435-.119-.87-.241-1.303-.367a.212.212 0 1 1 .119-.408c.431.125.863.247 1.296.365a.212.212 0 1 1-.111.41Zm46.513-.628a.212.212 0 0 1 .144-.264c.43-.128.86-.258 1.288-.392a.212.212 0 1 1 .127.405c-.43.135-.862.266-1.295.394a.213.213 0 0 1-.264-.143Zm-49.113-.127c-.43-.133-.861-.269-1.29-.409a.213.213 0 0 1 .131-.404c.427.14.855.275 1.284.407a.213.213 0 0 1-.125.406Zm51.692-.674a.213.213 0 0 1 .135-.268c.426-.141.85-.285 1.275-.433a.212.212 0 1 1 .14.401c-.427.148-.854.294-1.282.435a.213.213 0 0 1-.268-.135Zm-54.267-.164a83.374 83.374 0 0 1-1.277-.45.212.212 0 1 1 .144-.4c.423.153.846.303 1.271.448a.212.212 0 1 1-.138.402Zm56.818-.718a.212.212 0 0 1 .127-.272c.42-.155.841-.313 1.26-.473a.212.212 0 1 1 .153.396c-.422.162-.844.32-1.267.476a.213.213 0 0 1-.273-.127ZM13.3 40.864c-.422-.16-.843-.323-1.263-.49a.212.212 0 1 1 .157-.395c.418.166.837.329 1.257.488a.212.212 0 1 1-.15.397Zm11.406 5.888-.814 1.587c.65.097 1.273-.467 1.387-1.001.08-.373-.085-.735-.649-.855-1.039-.221-1.759.105-1.922.871-.055.258.02.316.016.362-.442-.094-.66-.272-.582-.635.143-.67 1.46-1.06 2.53-.832 1.053.224 1.413.797 1.303 1.316-.137.64-.988 1.203-2.142.957l-.032-.007-.698 1.354-.923-.197 1.556-3.021.97.101Zm2.409 1.28-.116.24c.258-.1.536-.165.807-.117.29.052.44.215.406.408-.032.177-.238.366-.555.31-.361-.065-.12-.368-.314-.403-.194-.034-.307.003-.474.083l-.893 1.894-.93-.166 1.14-2.416.93.166Zm2.009 2.566c.317.049.907-.164 1.191-.506l.292.044c-.45.469-1.15.888-1.987.76-.622-.095-.902-.519-.835-.957.1-.647.623-1.73 1.803-1.55.531.082.803.3.748.657-.095.622-.999.85-1.624.816-.025.08-.043.155-.053.216-.051.337.212.481.465.52Zm.636-1.906c-.363-.055-.749.475-.958.933.597.087 1.08-.252 1.141-.612.017-.108.012-.291-.183-.32Z"/><path fill="#142F45" d="M34.434 50.812a.647.647 0 0 0-.054.186c-.013.118.035.217.243.24.26.03.569-.24.744-.444l.306.035c-.331.242-.994.841-1.502.784-.508-.058-.787-.267-.743-.651a.994.994 0 0 1 .069-.257l.353-.894a.504.504 0 0 0 .034-.13c.022-.185-.089-.317-.265-.337a.802.802 0 0 0-.388.049c.012.063.019.121.012.183-.004.036-.015.07-.025.106l-.688 1.743-.945-.108.669-1.688a.5.5 0 0 0 .034-.13c.022-.185-.089-.317-.265-.337a.76.76 0 0 0-.41.062l-.796 2.006-.938-.107.983-2.483.938.107-.103.263c.278-.119.591-.207.872-.175.24.027.485.195.606.411.307-.146.67-.266.99-.23.358.041.714.383.675.732-.005.04-.016.076-.027.116l-.379.948Z"/><path fill="#142F45" d="m36.572 49.219-.61 1.71c-.017.056-.035.111-.038.158-.01.113.05.2.31.221.262.02.625-.24.9-.384l.222.018c-.32.212-1.113.837-1.622.797-.504-.04-.803-.24-.773-.626.006-.077.026-.163.06-.259l.61-1.71.94.075Zm-.214-1.114c.288.023.508.227.49.453-.018.226-.267.387-.555.365-.288-.023-.502-.221-.484-.448.018-.226.261-.393.549-.37Z"/><path fill="#142F45" d="m40.012 49.421-.563 1.726a.78.78 0 0 0-.035.158c-.006.114.055.2.317.214.262.013.618-.257.888-.408l.223.012c-.314.22-1.09.866-1.6.84-.446-.024-.74-.174-.783-.476-.32.21-.684.398-.966.383-.504-.026-.81-.218-.789-.604a1.02 1.02 0 0 1 .053-.26l.564-1.727.943.05-.564 1.726c-.016.056-.032.112-.035.158-.005.114.056.2.318.213.137.007.305-.066.474-.16a.972.972 0 0 1 .048-.169l.564-1.726.943.05Z"/><path fill="#142F45" d="M44.054 52.066c-.426-.004-.666-.182-.662-.57 0-.082.015-.164.042-.262l.26-.925a.492.492 0 0 0 .02-.134c.003-.185-.12-.305-.298-.307a.785.785 0 0 0-.368.083.61.61 0 0 1 .03.186.605.605 0 0 1-.013.108l-.506 1.805-.95-.01.491-1.748a.5.5 0 0 0 .021-.134c.002-.186-.121-.306-.298-.308a.76.76 0 0 0-.401.104l-.587 2.077-.944-.01.723-2.57.944.01-.075.272c.264-.146.567-.267.85-.264.242.003.496.14.638.337.297-.172.633-.323.955-.32.36.005.75.308.747.659 0 .041-.008.077-.015.118-.035.17-.326 1.074-.328 1.188 0 .087.05.16.241.162a.628.628 0 0 0 .17-.013c-.188.441-.464.469-.687.466Zm3.688-1.327c.008.17.043.328.095.46a1.89 1.89 0 0 1 .39-.066.956.956 0 0 1 .558.127c.392-.438.705-1.274.671-1.96-.028-.566-.183-1.043-1.008-1.002-1.06.053-1.745.556-1.706 1.34.013.262.1.299.11.345-.453.022-.708-.094-.726-.465-.034-.685 1.138-1.399 2.232-1.453 1.296-.064 1.819.41 1.863 1.306.037.731-.333 1.751-.99 2.274.2.202.413.377.813.357.045-.002.09-.01.143-.017-.152.364-.37.462-.652.476-.544.027-.722-.248-.847-.53a1.45 1.45 0 0 1-.3.05c-.845.042-1.424-.249-1.467-1.119-.047-.958.385-2.3 1.302-2.346.091-.005.19.006.296.026a3.093 3.093 0 0 0-.777 2.197Zm.175.616c.092.13.213.206.384.197a.425.425 0 0 0 .168-.044.431.431 0 0 0-.396-.177.892.892 0 0 0-.156.024Zm5.47-2.381-.313 1.788a.772.772 0 0 0-.012.162c.01.113.083.19.344.166.261-.024.575-.342.822-.53l.222-.02c-.28.264-.956 1.013-1.466 1.059-.444.04-.756-.067-.842-.36-.286.254-.62.491-.901.516-.503.045-.832-.101-.867-.486a1.033 1.033 0 0 1 .016-.266l.313-1.788.94-.085-.313 1.789a.787.787 0 0 0-.012.161c.01.113.083.19.344.166.138-.012.293-.109.447-.226a.97.97 0 0 1 .024-.173l.314-1.789.94-.084Z"/><path fill="#142F45" d="m56.569 48.585-.252 1.798a.778.778 0 0 0-.006.162c.014.112.09.186.35.154.26-.033.563-.362.803-.558l.22-.027c-.27.272-.92 1.044-1.427 1.108-.423.052-.725-.035-.843-.29-.169.234-.435.48-.832.53-.625.077-.85-.248-.888-.55-.11-.88.162-1.984 1.463-2.146a.834.834 0 0 1 .452.073l.023-.137.937-.117Zm-2.014 2.08c.038.307.26.336.423.316.15-.019.279-.15.384-.308 0-.052.007-.11.018-.174l.196-1.4a.578.578 0 0 0-.33-.053c-.489.06-.778.923-.69 1.619Z"/><path fill="#142F45" d="m58.297 47.276-.328 2.867c-.008.08-.014.127-.008.168.017.112.1.178.353.14.26-.04.553-.377.788-.579l.22-.033c-.262.28-.892 1.069-1.398 1.145-.499.076-.83-.05-.888-.433a1.03 1.03 0 0 1 0-.266l.317-2.761.944-.248Z"/><path fill="#142F45" d="m59.892 48.052-.17 1.808a.795.795 0 0 0 0 .162c.02.111.098.182.357.138.258-.044.546-.387.777-.593l.22-.038c-.258.284-.873 1.085-1.377 1.172-.498.085-.837-.035-.902-.416a1.025 1.025 0 0 1-.006-.266l.17-1.808.931-.16Zm-.481-1.027c.284-.049.548.094.586.318.039.224-.164.441-.448.49-.285.049-.541-.09-.58-.314-.038-.224.157-.446.442-.494Z"/><path fill="#142F45" d="M61.72 46.881s-.032.363-.067.842l.386-.073-.013.212-.386.074c-.14 1.686-.123 1.735-.118 1.76.022.117.1.18.359.132.257-.05.538-.398.765-.609l.219-.041c-.252.29-.852 1.102-1.354 1.198-.496.094-.832-.02-.904-.4-.051-.269.08-1.407.105-1.864l-.212.041.013-.212.212-.04.06-.737.934-.283Z"/><path fill="#142F45" d="m63.397 47.364-.094 1.815a.514.514 0 0 0 .003.168c.025.111.111.171.361.117.148-.032.3-.161.443-.308l.094-1.968.93-.203-.145 3.093c-.035.762-.556 1.018-.979 1.11-.39.086-.803-.05-.875-.378-.102-.469.366-.724.944-.998l.02-.368c-.243.269-.53.522-.787.578-.5.109-.831.002-.914-.376a1 1 0 0 1-.017-.266l.074-1.81.942-.206Zm.368 3.409c.128-.028.28-.162.292-.476l.012-.314c-.38.194-.656.407-.597.68.016.07.152.14.293.11Zm-35.1-31.068-.757 3.562c1.066-.085 1.866-1.493 1.866-2.624 0-.789-.384-1.45-1.322-1.45-1.728 0-2.763.97-2.763 2.592 0 .544.139.629.15.725-.736 0-1.142-.267-1.142-1.035 0-1.418 1.963-2.773 3.744-2.773 1.75 0 2.517 1.003 2.517 2.101 0 1.355-1.162 2.859-3.082 2.859h-.054l-.65 3.04h-1.536l1.45-6.784 1.579-.213Zm4.405 1.663-.118.534c.384-.299.81-.534 1.258-.534.48 0 .768.278.768.683 0 .373-.277.832-.8.832-.597 0-.298-.704-.618-.704s-.49.118-.736.341l-.886 4.182h-1.536l1.131-5.334h1.536Zm3.97 4.566c.522 0 1.418-.619 1.791-1.408h.48c-.608 1.099-1.632 2.176-3.008 2.176-1.023 0-1.578-.779-1.578-1.696 0-1.355.576-3.733 2.517-3.733.875 0 1.365.362 1.365 1.109 0 1.3-1.397 2.048-2.41 2.176a3.82 3.82 0 0 0-.033.458c0 .704.46.918.875.918Zm.554-4.096c-.597 0-1.088 1.205-1.312 2.208.981-.01 1.675-.854 1.685-1.61 0-.225-.053-.598-.373-.598Z"/><path fill="#142F45" d="M45.69 24.995a1.673 1.673 0 0 0-.054.395c0 .245.096.437.437.437.427 0 .875-.63 1.12-1.088h.502c-.491.576-1.451 1.962-2.283 1.962-.832 0-1.323-.362-1.323-1.162 0-.17.022-.341.064-.544l.406-1.92c.02-.096.032-.192.032-.277 0-.384-.203-.63-.491-.63-.235 0-.416.064-.619.192.032.128.054.246.054.373 0 .075-.01.15-.021.224l-.79 3.744h-1.546l.767-3.626c.022-.096.032-.192.032-.278 0-.383-.202-.629-.49-.629-.256 0-.438.075-.65.224l-.918 4.31h-1.536l1.13-5.334h1.537l-.118.565c.427-.309.917-.565 1.376-.565.395 0 .821.288 1.056.704.47-.373 1.035-.704 1.557-.704.587 0 1.227.619 1.227 1.344 0 .085-.01.16-.021.245l-.438 2.038Z"/><path fill="#142F45" d="m48.993 21.369-.768 3.626a2.003 2.003 0 0 0-.043.33c0 .236.107.406.533.406.427 0 .982-.597 1.409-.939h.362c-.49.491-1.696 1.91-2.528 1.91-.82 0-1.333-.363-1.333-1.163 0-.16.021-.341.064-.544l.768-3.626h1.536Zm-.49-2.262c.468 0 .852.384.852.854a.846.846 0 0 1-.853.842.838.838 0 0 1-.843-.842c0-.47.374-.854.843-.854Z"/><path fill="#142F45" d="m54.712 21.368-.768 3.627a1.992 1.992 0 0 0-.043.33c0 .235.107.406.534.406.426 0 .981-.598 1.408-.939h.362c-.49.49-1.696 1.91-2.528 1.91-.725 0-1.216-.278-1.312-.897-.501.47-1.077.896-1.536.896-.82 0-1.333-.362-1.333-1.162 0-.16.021-.341.064-.544l.768-3.627h1.536l-.768 3.627a2.003 2.003 0 0 0-.043.33c0 .235.107.406.534.406.224 0 .49-.17.757-.384.01-.107.032-.224.064-.352l.768-3.627h1.536Z"/><path fill="#142F45" d="M61.506 26.702c-.694 0-1.088-.363-1.088-1.163 0-.17.02-.341.064-.544l.405-1.92a1.31 1.31 0 0 0 .032-.277c0-.384-.203-.63-.49-.63a1.06 1.06 0 0 0-.598.182c.032.128.053.256.053.384 0 .074-.01.15-.02.224l-.79 3.744h-1.547l.768-3.627c.021-.096.032-.192.032-.277 0-.384-.203-.63-.49-.63-.257 0-.438.075-.651.224l-.918 4.31h-1.536l1.131-5.334H57.4l-.117.566c.427-.31.917-.566 1.376-.566.394 0 .81.278 1.045.683.48-.363 1.024-.683 1.547-.683.586 0 1.226.62 1.226 1.344 0 .086-.01.16-.021.246-.053.352-.512 2.229-.512 2.464 0 .18.085.33.395.33.074 0 .192 0 .277-.032-.299.918-.747.982-1.11.982Zm-22.192 8.281v5.182h-1.293v-2.778c0-.401-.009-.642-.028-.723a.27.27 0 0 0-.159-.184c-.086-.042-.279-.063-.577-.063h-.128v-.604c.625-.134 1.1-.411 1.424-.83h.761Zm3.552 1.754v1.728c0 .393-.021.679-.064.858a1.16 1.16 0 0 1-.265.502 1.147 1.147 0 0 1-.487.336c-.19.069-.402.103-.637.103-.309 0-.566-.036-.77-.107a1.056 1.056 0 0 1-.49-.335 1.433 1.433 0 0 1-.26-.478c-.051-.168-.077-.434-.077-.799v-1.808c0-.476.041-.832.124-1.069.082-.236.245-.426.49-.57.244-.142.54-.214.887-.214.284 0 .538.05.762.15.224.098.391.22.502.362.111.143.186.304.226.483.04.18.06.466.06.858Zm-1.293-.435c0-.275-.013-.447-.04-.517-.026-.07-.089-.104-.187-.104-.096 0-.16.037-.19.11-.031.074-.047.244-.047.51v2.529c0 .3.015.482.044.544.029.062.091.093.187.093s.159-.036.189-.109c.03-.073.045-.236.045-.49v-2.566Zm4.807.435v1.728c0 .393-.022.679-.064.858-.043.18-.131.347-.266.502a1.147 1.147 0 0 1-.486.336c-.19.069-.402.103-.637.103a2.38 2.38 0 0 1-.771-.107 1.057 1.057 0 0 1-.49-.335 1.433 1.433 0 0 1-.26-.478c-.05-.168-.076-.434-.076-.799v-1.808c0-.476.041-.832.123-1.069.082-.236.246-.426.49-.57.244-.142.54-.214.888-.214.284 0 .538.05.762.15.224.098.391.22.502.362.11.143.186.304.226.483.039.18.059.466.059.858Zm-1.293-.435c0-.275-.013-.447-.04-.517-.027-.07-.09-.104-.187-.104-.096 0-.16.037-.19.11-.032.074-.047.244-.047.51v2.529c0 .3.015.482.043.544.029.062.092.093.188.093.095 0 .158-.036.188-.109.03-.073.045-.236.045-.49v-2.566Zm3.551-.435v.89c0 .232-.022.407-.066.523a.624.624 0 0 1-.282.304c-.144.086-.334.13-.57.13-.274 0-.482-.042-.625-.124a.652.652 0 0 1-.29-.296c-.05-.115-.075-.28-.075-.496v-.931c0-.256.027-.445.079-.568a.615.615 0 0 1 .302-.3c.15-.076.334-.115.554-.115.243 0 .44.042.592.127a.66.66 0 0 1 .304.305c.051.12.077.303.077.55Zm-.82-.227a.87.87 0 0 0-.02-.253c-.014-.032-.052-.048-.114-.048-.058 0-.095.017-.112.05a.725.725 0 0 0-.026.25v1.306c0 .15.008.239.023.269.015.03.054.045.118.045.056 0 .091-.017.107-.051a.719.719 0 0 0 .024-.24V35.64Zm2.327-.756-2.026 5.38h-.493l2.033-5.38h.486Zm.896 3.485v.893c0 .23-.022.404-.066.522a.622.622 0 0 1-.281.305c-.144.087-.335.13-.571.13-.271 0-.479-.041-.623-.125a.659.659 0 0 1-.291-.297c-.05-.116-.075-.28-.075-.493v-.934c0-.254.026-.443.078-.565a.622.622 0 0 1 .302-.301c.15-.078.334-.117.554-.117.245 0 .444.043.595.128a.657.657 0 0 1 .303.307c.05.12.075.302.075.547Zm-.82-.224a.898.898 0 0 0-.02-.254c-.014-.033-.052-.05-.114-.05-.057 0-.094.017-.11.051a.783.783 0 0 0-.024.253v1.306c0 .147.007.236.022.266.015.03.054.044.115.044.058 0 .094-.016.11-.05a.768.768 0 0 0 .022-.24v-1.326Zm-19.366-7.763a.413.413 0 0 1-.1.288.367.367 0 0 1-.193.114.597.597 0 0 1-.155.018.48.48 0 0 1-.271-.07.409.409 0 0 1-.143-.158.57.57 0 0 1-.061-.228l.265-.017c.012.094.04.162.086.205a.153.153 0 0 0 .115.045.174.174 0 0 0 .174-.185c0-.067-.035-.134-.104-.2l-.249-.205a.958.958 0 0 1-.196-.21.436.436 0 0 1-.062-.226c0-.146.057-.258.17-.333a.468.468 0 0 1 .26-.068c.099 0 .184.02.255.058.055.03.1.072.134.126a.423.423 0 0 1 .061.186l-.267.043a.26.26 0 0 0-.065-.155.15.15 0 0 0-.11-.04c-.052 0-.09.02-.117.06a.205.205 0 0 0-.033.118c0 .074.036.149.11.225a.89.89 0 0 0 .123.102c.065.048.108.08.129.1a.848.848 0 0 1 .202.253c.027.057.04.109.042.154Zm.855.401V29.17h.795v.244h-.515v.44h.376v.244h-.376v.44h.515v.244h-.794Zm2.485-.386a.35.35 0 0 1-.128.273.453.453 0 0 1-.31.113h-.439V29.17h.439c.122 0 .225.038.31.113a.35.35 0 0 1 .128.271v.842Zm-.598.146h.169a.16.16 0 0 0 .112-.042.13.13 0 0 0 .046-.099v-.843a.127.127 0 0 0-.047-.099.163.163 0 0 0-.111-.04h-.169v1.123Zm2.673.258a.461.461 0 0 1-.313-.112.347.347 0 0 1-.129-.27v-1.246h.273v1.243c0 .038.016.07.048.098.031.027.069.04.113.04a.166.166 0 0 0 .113-.04.126.126 0 0 0 .047-.098v-1.243h.29v1.245a.344.344 0 0 1-.13.272.466.466 0 0 1-.312.111Zm1.585-1.384h-.296v-.244h.87v.244h-.294v1.366h-.28v-1.366Zm2.647-.244a.46.46 0 0 1 .325.112.36.36 0 0 1 .113.272v.234a.352.352 0 0 1-.128.272.45.45 0 0 1-.31.113h-.16v.607h-.28v-1.61h.44Zm.167.388a.13.13 0 0 0-.043-.102.168.168 0 0 0-.116-.038h-.169v.515h.169a.165.165 0 0 0 .113-.04.127.127 0 0 0 .046-.1v-.235Zm1.118 1.222V29.17h.794v.244h-.515v.44h.377v.244h-.377v.44h.515v.244h-.794Zm2.047-1.61c.156 0 .27.037.343.112a.372.372 0 0 1 .096.272v.234c0 .114-.05.21-.15.289l.208.703h-.302l-.17-.607h-.185v.607h-.28v-1.61h.44Zm.167.388c0-.094-.053-.14-.16-.14h-.167v.515h.168a.165.165 0 0 0 .113-.041.128.128 0 0 0 .046-.099v-.235Zm2.019.821a.413.413 0 0 1-.1.288.366.366 0 0 1-.192.114.597.597 0 0 1-.155.018c-.11 0-.2-.023-.272-.07a.408.408 0 0 1-.142-.158.566.566 0 0 1-.061-.228l.265-.017c.012.094.04.162.086.205a.153.153 0 0 0 .115.045.174.174 0 0 0 .174-.185c0-.067-.034-.134-.104-.2a68.88 68.88 0 0 1-.248-.205.956.956 0 0 1-.197-.21.435.435 0 0 1-.062-.226c0-.146.057-.258.17-.333a.468.468 0 0 1 .26-.068c.1 0 .184.02.255.058.055.03.1.072.134.126a.42.42 0 0 1 .061.186l-.267.043a.26.26 0 0 0-.065-.155.15.15 0 0 0-.11-.04c-.052 0-.09.02-.117.06a.205.205 0 0 0-.033.118c0 .074.037.149.11.225a.894.894 0 0 0 .123.102c.065.048.108.08.129.1a.84.84 0 0 1 .202.253c.027.057.04.109.042.154Zm1.297-1.209c.136 0 .244.037.325.112a.36.36 0 0 1 .112.272v.234a.352.352 0 0 1-.128.272.45.45 0 0 1-.31.113h-.16v.607h-.279v-1.61h.44Zm.167.388a.13.13 0 0 0-.044-.102.168.168 0 0 0-.116-.038h-.168v.515h.168a.165.165 0 0 0 .113-.04.128.128 0 0 0 .047-.1v-.235Zm1.396 1.222h-.278v-1.61h.279v1.61Zm1.313.021a.461.461 0 0 1-.314-.113.348.348 0 0 1-.129-.271v-.88c0-.107.043-.198.13-.273a.462.462 0 0 1 .313-.112c.123 0 .227.037.313.113a.35.35 0 0 1 .128.272v.184h-.29v-.189a.126.126 0 0 0-.046-.099.167.167 0 0 0-.114-.04.164.164 0 0 0-.113.04.127.127 0 0 0-.046.1v.88c0 .04.015.072.046.1a.17.17 0 0 0 .113.04.17.17 0 0 0 .114-.04.125.125 0 0 0 .047-.1v-.222h.29v.225a.347.347 0 0 1-.13.273.462.462 0 0 1-.312.112Zm1.574-.021h-.279v-1.61h.28v1.61Zm1.214-.37-.068.37h-.29l.315-1.61h.383l.31 1.61h-.293l-.065-.37h-.292Zm.147-.872-.103.635h.206l-.103-.635Zm1.399-.124h-.297v-.244h.872v.244h-.296v1.366h-.279v-1.366Zm1.701 1.366h-.279v-1.61h.28v1.61Zm1.779-.401a.413.413 0 0 1-.1.288.366.366 0 0 1-.193.114.597.597 0 0 1-.155.018.483.483 0 0 1-.271-.07.409.409 0 0 1-.143-.158.568.568 0 0 1-.061-.228l.266-.017c.011.094.04.162.085.205a.153.153 0 0 0 .115.045.178.178 0 0 0 .147-.079.175.175 0 0 0 .028-.107c0-.066-.035-.133-.105-.2l-.248-.204a.96.96 0 0 1-.196-.21.435.435 0 0 1-.062-.226c0-.146.056-.258.17-.333a.468.468 0 0 1 .26-.068c.099 0 .184.02.255.058.055.03.1.072.133.126a.42.42 0 0 1 .062.186l-.268.043a.26.26 0 0 0-.065-.155c-.025-.026-.062-.04-.11-.04-.051 0-.09.02-.117.06a.205.205 0 0 0-.032.118c0 .074.036.149.109.225a.9.9 0 0 0 .124.102c.065.048.108.08.129.1a.84.84 0 0 1 .202.253c.026.057.04.109.04.154Z"/><defs><linearGradient id="a" x1="79.619" x2="73.822" y1="36.578" y2="39.526" gradientUnits="userSpaceOnUse"><stop stop-color="#fff"/><stop offset=".78" stop-color="#C9C9C9"/></linearGradient><linearGradient id="b" x1="12.039" x2="17.836" y1="39.526" y2="36.578" gradientUnits="userSpaceOnUse"><stop stop-color="#fff"/><stop offset=".78" stop-color="#C9C9C9"/></linearGradient><linearGradient id="c" x1="44.123" x2="44.123" y1="69.076" y2="36.383" gradientUnits="userSpaceOnUse"><stop stop-color="#E0E0E0"/><stop offset="1" stop-color="#DFDFDF"/></linearGradient><linearGradient id="d" x1="44.117" x2="44.117" y1="2.922" y2="36.384" gradientUnits="userSpaceOnUse"><stop stop-color="#fff"/><stop offset="1" stop-color="#DDD"/></linearGradient></defs></svg>