<svg xmlns="http://www.w3.org/2000/svg" width="73" height="72" fill="none"><path fill="#C3D5EA" d="M53.28 52.903c9.335-9.335 9.335-24.471 0-33.807-9.336-9.336-24.472-9.336-33.808 0-9.336 9.336-9.336 24.472 0 33.807 9.336 9.336 24.472 9.336 33.807 0Z"/><path fill="#fff" d="M36.375 72c-4.86 0-9.575-.952-14.013-2.83a35.879 35.879 0 0 1-11.443-7.714 35.88 35.88 0 0 1-7.715-11.443A35.776 35.776 0 0 1 .375 36c0-4.86.952-9.575 2.83-14.013a35.878 35.878 0 0 1 7.714-11.443A35.88 35.88 0 0 1 22.362 2.83 35.775 35.775 0 0 1 36.375 0c4.86 0 9.574.952 14.013 2.83a35.878 35.878 0 0 1 11.443 7.714 35.88 35.88 0 0 1 7.715 11.443A35.775 35.775 0 0 1 72.375 36c0 4.86-.952 9.574-2.83 14.013a35.88 35.88 0 0 1-7.714 11.443 35.876 35.876 0 0 1-11.443 7.715A35.774 35.774 0 0 1 36.375 72Zm0-71.184C16.975.816 1.191 16.6 1.191 36s15.784 35.183 35.184 35.183S71.558 55.4 71.558 36 55.775.816 36.375.816Z"/><path fill="#fff" d="M13.476 51.29a1.66 1.66 0 0 0-.787-.085c-.262.036-.761.198-1.497.485-.736.287-1.354.442-1.855.465-.5.023-.996-.101-1.486-.372a2.83 2.83 0 0 1-1.14-1.15c-.19-.352-.26-.686-.204-1.001a.93.93 0 0 1 .49-.694.392.392 0 0 1 .302-.041c.1.028.259.11.477.247.218.136.345.24.383.309a.192.192 0 0 1 .018.146.175.175 0 0 1-.087.112 4.552 4.552 0 0 1-.33.128c-.191.07-.304.114-.337.132-.33.18-.42.407-.269.685.17.313.497.476.98.49.484.014 1.141-.144 1.973-.472.832-.328 1.462-.483 1.888-.464.427.02.778.122 1.054.308.275.186.44.329.494.429.038.069.015.183-.067.343Zm.656-1.37c.318.586.429 1.128.333 1.629-.095.5-.38.88-.854 1.138-.438.238-.859.3-1.263.188-.404-.113-.656-.262-.757-.447a.484.484 0 0 1-.036-.285c.013-.12.045-.194.095-.221.027-.015.163-.004.405.033.543.1 1 .049 1.371-.153.313-.17.505-.411.574-.722.07-.31.007-.646-.189-1.006a2.729 2.729 0 0 0-1.299-1.206c-.57-.26-1.052-.284-1.446-.07-.26.142-.374.358-.341.65.01.116-.022.194-.094.233-.075.04-.219-.016-.431-.17-.213-.153-.342-.271-.387-.354-.068-.125-.05-.288.055-.488.105-.2.254-.353.448-.459.52-.283 1.174-.276 1.961.022.786.297 1.405.86 1.855 1.689Zm-1.203 7.957c-1.101-.13-1.786-.361-2.055-.695a.606.606 0 0 1-.116-.532.923.923 0 0 1 .345-.534c.346-.279.96-.468 1.84-.566a2.634 2.634 0 0 1-.676-.44c-.424.079-.942.084-1.556.016l-.068-.085.331-.267c.353.03.706.032 1.06.002-.078-.286-.024-.504.16-.652.19-.152.443-.25.762-.295.319-.044.57.047.751.272.155.192.134.367-.063.525-.154.125-.42.248-.796.369.372.372.971.477 1.796.314l.285.323-1.219.418c-.512.178-.857.304-1.035.378a1.783 1.783 0 0 0-.431.245.502.502 0 0 0-.19.27.299.299 0 0 0 .065.268c.071.089.17.15.295.181.125.033.438.08.938.143l-.423.342Zm2.904 2.815c-.562.007-1.023-.032-1.382-.118a2.042 2.042 0 0 1-.956-.528c-.31-.297-.464-.636-.464-1.016s.156-.732.466-1.055c.463-.482 1.049-.758 1.758-.827.71-.068 1.267.093 1.674.484.212.203.329.42.352.652a.747.747 0 0 1-.222.613c-.453.471-1.32.373-2.603-.295-.335.53-.31.98.074 1.35.15.144.332.242.546.292.214.05.592.069 1.134.056l-.377.392Zm-1.181-2.349c.74.396 1.321.373 1.745-.068.21-.218.235-.404.076-.557-.15-.144-.403-.168-.76-.07-.355.097-.71.33-1.061.695Zm7.481 6.705c-.54.107-.98.164-1.32.172-.341.008-.622-.06-.844-.206a.614.614 0 0 1-.296-.45c-.024-.187.031-.381.164-.585.186-.285.493-.6.922-.946.429-.345.674-.566.736-.66.055-.085.04-.156-.048-.213a.266.266 0 0 0-.113-.034 1.172 1.172 0 0 0-.186-.009 2.497 2.497 0 0 0-.25.029 3.61 3.61 0 0 0-.302.063 4.154 4.154 0 0 0-.353.092c-.206.061-.35.132-.431.21l-.502.481-.85.78-1.122-.474 1.45-1.382c.106-.1.254-.252.444-.455.19-.204.299-.329.328-.374.059-.09.058-.154-.003-.194a.224.224 0 0 0-.098-.024.982.982 0 0 0-.189-.005c-.085.005-.18.015-.284.03a6.41 6.41 0 0 0-.83.181c-.22.06-.408.175-.564.344a8.042 8.042 0 0 0-.91 1.135l-1.016-.364c.177-.317.332-.578.465-.781.315-.484.64-.872.974-1.164.333-.292.77-.604 1.31-.933l1.08.439c-.453.318-.858.648-1.215.987 1.25-.363 2.064-.422 2.441-.175a.48.48 0 0 1 .225.386c.013.169-.04.344-.16.526-.054.085-.17.232-.344.442.738-.155 1.248-.237 1.531-.247.283-.009.507.04.67.147a.52.52 0 0 1 .244.407.824.824 0 0 1-.151.534c-.185.283-.5.596-.945.938-.445.342-.714.585-.807.727-.096.148-.09.257.018.328.069.044.194.061.376.05.182-.011.533-.08 1.052-.209l-.297.456Zm2.798 1.047c-.986.417-1.647.552-1.983.406-.185-.08-.3-.243-.344-.488-.045-.245-.005-.51.12-.797.268-.615.848-1.378 1.739-2.287l1.202.25.052.023-1.025 1.169c-.424.483-.688.844-.793 1.084a.428.428 0 0 0-.038.26c.016.077.056.13.12.157.112.05.244.058.394.025.15-.033.408-.133.773-.3l-.217.498Zm1.836-4.453c-.302.694-.709.93-1.22.707a1.037 1.037 0 0 1-.54-.504c.278-.18.533-.41.764-.688.167.24.32.392.459.452a.85.85 0 0 0 .537.033Zm3.494 6.083c-.508.266-.923.45-1.244.554-.321.104-.59.126-.805.064a.652.652 0 0 1-.471-.443c-.075-.228-.066-.506.027-.834-.438.273-.814.459-1.127.558-.314.1-.596.114-.848.043a.68.68 0 0 1-.474-.445c-.085-.23-.081-.51.012-.837.179-.632.643-1.46 1.394-2.487l1.284.103c-.913 1.313-1.428 2.175-1.546 2.587-.083.291-.015.468.204.53.157.044.39-.028.696-.218.306-.19.515-.373.627-.547l1.147-1.77 1.31.101a95.557 95.557 0 0 0-1.135 1.758c-.212.34-.339.584-.381.733-.08.285-.024.456.17.51.158.046.433-.032.824-.232l.485-.251-.149.523Zm7.726.639c-.417.36-.772.627-1.064.801-.292.175-.57.255-.834.238a.614.614 0 0 1-.48-.245c-.113-.15-.162-.347-.147-.59.021-.34.133-.766.335-1.278s.306-.824.313-.938c.007-.1-.042-.154-.146-.16a.264.264 0 0 0-.115.026c-.05.019-.104.047-.167.084-.062.04-.13.09-.203.149-.073.059-.15.127-.23.204a4.145 4.145 0 0 0-.263.254c-.148.155-.239.287-.27.395l-.2.666-.353 1.097-1.21.144.578-1.918c.043-.14.097-.345.161-.616a4.67 4.67 0 0 0 .101-.486c.007-.107-.026-.163-.099-.167a.224.224 0 0 0-.096.027.965.965 0 0 0-.167.09 3.09 3.09 0 0 0-.233.165 6.632 6.632 0 0 0-.632.568c-.162.16-.268.353-.32.577a7.969 7.969 0 0 0-.23 1.436l-1.064.186c-.003-.363.003-.666.018-.909.035-.576.126-1.073.272-1.493.146-.419.371-.905.677-1.458l1.157-.152c-.237.5-.426.987-.569 1.458.908-.933 1.586-1.386 2.037-1.358a.48.48 0 0 1 .386.225c.094.14.135.319.121.536a5.86 5.86 0 0 1-.081.555c.565-.5.968-.823 1.21-.971.24-.148.46-.216.654-.204a.52.52 0 0 1 .413.234.824.824 0 0 1 .133.539c-.021.337-.14.764-.358 1.282-.218.517-.332.861-.343 1.03-.01.177.048.269.177.277.082.005.2-.043.352-.142.153-.1.424-.334.812-.702l-.033.544Zm9.593-2.035c-.273.482-.514.848-.72 1.098-.207.25-.41.401-.612.454a.777.777 0 0 1-.556-.053 4.572 4.572 0 0 1-.668-.425c-.49.665-.986 1.065-1.492 1.199-.441.117-.851.032-1.229-.256-.378-.288-.643-.719-.795-1.292a5.25 5.25 0 0 1-.13-1.943c.076-.683.236-1.31.48-1.882.244-.572.463-.969.66-1.19.195-.222.536-.398 1.024-.527l.026.062c-.521.836-.839 1.676-.951 2.518-.113.843-.077 1.612.107 2.306.12.452.302.781.546.989.245.207.521.27.83.189.204-.055.416-.197.635-.429-.21-.175-.37-.286-.48-.332a.536.536 0 0 0-.353-.02.742.742 0 0 0-.085.04.8.8 0 0 1-.085.04c-.043.011-.07-.003-.08-.042-.021-.08.039-.22.18-.422.14-.202.304-.328.49-.378a.708.708 0 0 1 .423.016c.138.048.309.131.51.25.645-1.498.812-2.836.5-4.013-.071-.265-.17-.465-.299-.599-.128-.134-.263-.182-.406-.144-.265.07-.457.335-.578.794-.12.46-.14.842-.06 1.147.062.228.198.33.41.302.09-.014.144.013.162.08.036.137.002.288-.102.453-.105.165-.232.267-.382.306a.576.576 0 0 1-.524-.122c-.167-.13-.283-.32-.35-.57-.14-.528-.076-1.093.19-1.696.266-.602.603-.957 1.011-1.066a.823.823 0 0 1 .772.16c.225.184.39.475.496.874.333 1.253.147 2.696-.557 4.328.399.348.72.49.965.424.305-.08.618-.465.938-1.154l.14.526Zm5.2-2.582c-.197.539-.38.954-.547 1.247-.168.293-.352.49-.553.59a.652.652 0 0 1-.647-.012c-.209-.118-.389-.33-.54-.635-.141.496-.294.886-.46 1.17-.164.285-.364.486-.598.603a.68.68 0 0 1-.65-.01c-.218-.114-.403-.323-.555-.628-.291-.588-.505-1.514-.64-2.778l1.02-.787c.207 1.585.406 2.57.595 2.954.135.27.304.356.507.255.147-.073.27-.283.369-.63.099-.346.13-.622.096-.827l-.342-2.08 1.038-.807c.156.983.27 1.67.342 2.065.072.393.143.66.211.798.133.266.289.353.47.264.147-.073.298-.316.453-.727l.19-.512.242.487Zm4.618-3.398c-.117.686-.22 1.152-.307 1.399-.087.246-.21.429-.37.548-.399.298-.85.087-1.354-.635.017.55-.017.99-.102 1.322-.085.332-.24.582-.468.752-.222.166-.49.203-.8.111-.311-.092-.58-.29-.807-.593a2.57 2.57 0 0 1-.498-1.317c-.048-.5.011-.977.178-1.433.167-.456.376-.777.626-.964.316-.236.645-.256.989-.06l.454-1.007.212-.16.496 1.36c.246.688.446 1.135.6 1.342.163.217.321.268.475.153.099-.074.168-.207.209-.401.04-.194.087-.478.14-.853l.327.436ZM54.78 62.63c.253-.189.33-.582.231-1.18-.098-.598-.283-1.078-.555-1.442-.106-.142-.22-.228-.343-.26a.384.384 0 0 0-.343.07c-.253.188-.331.582-.236 1.18.095.6.277 1.079.547 1.44a.647.647 0 0 0 .349.256.39.39 0 0 0 .35-.064Zm5.191-4.935c-.023.582-.082 1.054-.176 1.415-.095.362-.246.647-.453.855a.989.989 0 0 1-.854.301c-.33-.038-.653-.212-.966-.523-.47-.468-.932-1.13-1.388-1.987a15.168 15.168 0 0 1-1.081-2.549l.532-1.166a.3.3 0 0 1 .046-.073c.065-.065.165-.071.301-.018.136.053.285.16.446.32.456.453.794.998 1.012 1.633.218.635.347 1.417.388 2.347.215.249.366.417.453.504.195.193.385.31.57.352.185.042.337.004.455-.115.12-.12.204-.292.252-.516.049-.223.074-.61.077-1.164l.386.384Zm-2.59-.02a5.774 5.774 0 0 0-.374-1.746c-.216-.566-.465-.99-.748-1.27a.646.646 0 0 0-.236-.162c-.075-.026-.132-.02-.17.019-.082.082.005.407.26.975.256.567.679 1.295 1.269 2.185Zm.521-5.081c.587.479.704.934.351 1.367-.171.21-.381.338-.63.384a3.434 3.434 0 0 0-.457-.922c.277-.096.464-.202.56-.32a.849.849 0 0 0 .176-.509Zm3.793 2.97c.136 1.061.088 1.734-.143 2.018-.128.156-.315.223-.563.2-.248-.023-.493-.133-.735-.33-.52-.424-1.099-1.188-1.734-2.291l.565-1.09.036-.044.85 1.302c.35.538.627.89.83 1.055.08.066.16.101.24.107a.206.206 0 0 0 .184-.073.634.634 0 0 0 .13-.373c.009-.153-.018-.428-.081-.826l.421.344Zm1.749-2.574c.106.55.155.997.15 1.342-.007.346-.083.627-.229.844a.783.783 0 0 1-.653.357c-.284.012-.58-.085-.889-.293-.272-.183-.586-.492-.943-.926l-.482-.566-.187.311-.532-.54.236-.384-.977-1.192.49-1.193 1.092 1.324.342-.576.517.536-.362.64.704.854c.244.296.457.505.638.627a.571.571 0 0 0 .362.11.35.35 0 0 0 .276-.16.871.871 0 0 0 .14-.483c.002-.189-.045-.5-.144-.936l.451.303Zm2.538-4.984c.174.53.252 1.278.234 2.247.621.627 1.007 1.181 1.158 1.661.151.48.14.9-.033 1.257a.65.65 0 0 1-.378.356.67.67 0 0 1-.522-.051c-.56-.271-.817-1.03-.775-2.274l-.789-.703c.339.826.41 1.443.213 1.848a.703.703 0 0 1-.525.4c-.245.048-.516 0-.813-.145-.429-.207-.843-.524-1.244-.949l-.883-.932.383-1.34 1.006 1.143c.492.539.893.883 1.203 1.032.255.124.425.1.51-.074.084-.176.04-.445-.134-.809a4.19 4.19 0 0 0-.772-1.076l-1.1-1.133.346-1.266 2.79 2.721c.018-.794-.104-1.511-.365-2.15l.49.237Zm.046 3.524c-.013.425.032.779.134 1.062.103.283.248.47.435.56.19.093.325.058.403-.104.153-.315-.171-.82-.972-1.518ZM6.16 23.25l.658-1.372c.754-1.57 1.91-1.244 2.373-1.021.617.295 1.359 1.059.675 2.483l-.223.464 1.856.89-.436.908-4.903-2.353Zm2.602.131.258-.536c.114-.239.332-.794-.27-1.084-.604-.29-.901.228-1.016.467l-.257.537 1.285.616Zm-.43-4.339.55-.843 3.735 2.44.908-1.39.819.534-1.46 2.233-4.552-2.974Zm2.848-3.982 2.58 2.26c.332.291.902.733 1.435.125.528-.602.005-1.11-.321-1.395l-2.581-2.262.663-.757 2.554 2.237c1.16 1.017 1.074 2.075.415 2.827-.499.569-1.508 1.14-2.856-.041l-2.553-2.237.663-.758Zm3.111-3.407 1.086-.83 3.669 2.434-1.378-4.18 1.086-.83 3.299 4.323-.8.61-2.47-3.235 1.377 4.07-.678.517-3.561-2.403 2.469 3.236-.8.61-3.299-4.322Zm6.125-4.305 1.172-.58c.303-.15 1.697-.83 2.328.448.3.606.022 1.055-.074 1.192.615-.082 1.143.222 1.413.77.348.704.35 1.67-1.21 2.442l-1.22.602-2.409-4.874Zm2.252 1.223c.593-.293.453-.692.392-.817-.235-.474-.69-.282-.887-.184l-.421.208.495 1.001.421-.208Zm1.213 2.04c.106-.053.768-.388.468-.994-.091-.185-.378-.6-1.083-.252l-.586.29.615 1.245.586-.29Zm.928-5.264.947-.341 1.84 5.117-.946.34-1.841-5.116Zm2.521-.91.985-.21 3.14 3.085-.77-3.593.985-.21 1.138 5.317-.984.21-3.14-3.085.768 3.593-.984.21-1.138-5.317Zm11.747 1.432c.007 1.293-.76 2.915-2.84 2.949-1.976.032-2.926-1.459-2.948-2.767-.02-1.307.938-2.866 2.841-2.897 1.25-.02 2.237.595 2.658 1.654l-1.205.02c-.43-.684-1.18-.701-1.437-.697-1.27.02-1.864 1.015-1.85 1.867.014.926.706 1.863 1.955 1.842.66-.01 1.288-.322 1.57-1.003l-2.27.037-.015-.947 3.541-.058Zm3.244 1.891c-.077.42.178.745.55.833.43.102.783-.116.873-.495.127-.536-.283-.845-.572-1.027-.158-.098-.325-.19-.472-.3-.722-.527-.739-1.188-.64-1.602.164-.694.892-1.375 1.929-1.129 1.008.24 1.311 1.127 1.174 1.864l-1.008-.239c.063-.264-.034-.59-.42-.68-.393-.094-.63.137-.697.423-.099.415.255.642.526.804.158.098.31.187.46.29.227.16.962.72.713 1.77-.222.937-1.105 1.506-2.113 1.267-.786-.187-1.574-.94-1.325-2.021l1.022.242Zm4.582-2.813 2.72 1.055-.354.911-1.781-.691-.455 1.171 1.706.662-.353.912-1.706-.662-.452 1.164 1.78.692-.353.91-2.72-1.055 1.968-5.07Zm4.154 1.724 1.369.774c1.593.9 1.185 2.054.928 2.509-.427.754-1.3 1.121-2.118.76l.343 2.499-1.081-.611-.24-2.441-.014-.007-.987 1.746-.876-.496 2.676-4.733Zm-.4 2.753.518.293c.205.116.887.477 1.274-.208.387-.684-.274-1.083-.478-1.199l-.518-.293-.796 1.407Zm4.382-.459.822.666-1.47 4.134 3.741-2.292.822.667-5.057 2.9-.65-.528 1.792-5.547Zm4.695 4.071.695.729-3.936 3.752-.694-.729 3.935-3.752Zm2.904 6.047c.122-.423.129-.98-.249-1.505a1.834 1.834 0 0 0-2.568-.425 1.857 1.857 0 0 0-.44 2.598c.282.393.72.675 1.276.693l.682.948c-1.037.194-2.079-.134-2.77-1.095-1.11-1.545-.35-3.232.664-3.961.985-.708 2.821-.897 3.945.666.657.913.71 2.032.13 3.011l-.67-.93Zm2.574 1.31 1.279 2.622-.879.428-.837-1.717-1.13.55.802 1.646-.878.428-.802-1.645-1.123.548.837 1.717-.878.428-1.279-2.622 4.888-2.383Z"/><path fill="#FF5E15" d="m6.097 33.366.793 2.44h2.566l-2.076 1.51.793 2.44-2.076-1.508-2.076 1.508.793-2.44-2.076-1.508h2.566l.793-2.441Zm60.952 0 .792 2.44h2.567l-2.076 1.509.793 2.44-2.076-1.508-2.077 1.508.794-2.44-2.077-1.508h2.567l.793-2.441Z"/><path fill="#fff" d="M36.456 61.746c-6.878 0-13.343-2.678-18.206-7.54-4.863-4.864-7.541-11.33-7.541-18.206 0-6.878 2.678-13.343 7.541-18.206 4.863-4.863 11.328-7.541 18.206-7.541 6.877 0 13.342 2.678 18.205 7.54 4.863 4.864 7.541 11.33 7.541 18.207 0 6.877-2.678 13.342-7.54 18.205-4.864 4.863-11.33 7.541-18.206 7.541Zm0-50.824c-13.828 0-25.077 11.25-25.077 25.078 0 13.827 11.25 25.077 25.077 25.077 13.827 0 25.077-11.25 25.077-25.077 0-13.828-11.25-25.078-25.077-25.078Z"/><path fill="#000" d="M49.854 40.79s.142-2.274-.536-3.044c-.679-.769-2.495-1.609-2.398-3.16.097-1.551 1.893-2.062 2.986-1.267 1.092.795.995 2.346 1.77 3.225.776.88 1.92.847 1.92.847s1.904-.989 2.87.595c.997 1.634-.002 2.661-.002 2.661s-.573 1.56.177 2.852c.75 1.292 2.443 2.436 2.591 3.38.149.944-.627 1.726-1.37 1.99-.743.266-1.984.188-2.702-1.621-.717-1.81-1.06-2.974-3.121-3.206l-2.185-3.251Z"/><path fill="#fff" d="M57.105 49.133c-.76-.047-1.562-.544-2.072-1.831l-.115-.292c-.639-1.626-1.024-2.607-2.88-2.817l-.071-.008-2.255-3.354.004-.053c.001-.022.13-2.22-.498-2.931-.176-.2-.443-.413-.726-.638-.796-.635-1.786-1.426-1.71-2.636.044-.709.431-1.286 1.062-1.583a2.17 2.17 0 0 1 2.17.2c.66.481.906 1.203 1.143 1.9.174.51.339.992.653 1.349.647.733 1.586.79 1.768.794.28-.13 2.085-.893 3.038.669.953 1.564.16 2.635.002 2.822-.067.203-.479 1.57.174 2.694.324.56.83 1.09 1.32 1.604.617.647 1.2 1.258 1.29 1.83.16 1.007-.64 1.865-1.47 2.161-.259.092-.54.138-.827.12Zm-4.96-5.24c1.98.248 2.412 1.348 3.062 3.003l.115.291c.782 1.973 2.115 1.672 2.505 1.534.714-.255 1.401-.98 1.269-1.82-.075-.476-.626-1.054-1.209-1.665-.502-.526-1.021-1.07-1.364-1.662-.778-1.34-.212-2.917-.188-2.983l.012-.031.023-.024c.036-.038.898-.968-.02-2.472-.88-1.443-2.593-.576-2.665-.538l-.032.016-.035.002c-.05 0-1.227.023-2.04-.9-.357-.403-.539-.937-.715-1.454-.222-.652-.451-1.326-1.032-1.748a1.853 1.853 0 0 0-1.854-.17c-.533.25-.848.72-.885 1.32-.066 1.05.816 1.753 1.594 2.373.294.235.571.456.765.676.662.75.596 2.743.578 3.103l2.116 3.149Z"/><path fill="#fff" d="M56.099 40.968a3.302 3.302 0 0 1-1.55.105 2.58 2.58 0 0 1-.75-.271c-.113-.074-.23-.144-.327-.239l-.075-.067-.038-.034-.034-.038-.131-.154a1.802 1.802 0 0 1-.348-.73 1.864 1.864 0 0 1 .01-.803c.057-.261.162-.507.293-.733a2.95 2.95 0 0 1 .474-.616c-.15.21-.28.432-.384.663-.106.23-.185.472-.224.716-.04.245-.038.494.022.73.058.234.165.458.32.647l.118.14.03.036.034.03.068.062c.086.088.192.15.292.222.21.126.442.217.684.282a4.157 4.157 0 0 0 1.516.053Zm-7.535-7.114s-.801 1.196-.116 1.861c.685.666 2.074 1.687 2.074 1.687l-.633-1.493s1.06 1.312 1.221 2.049c0 0-2.23-.866-3.18-2.275-.95-1.41.634-1.83.634-1.83Z"/><path fill="#fff" d="M26.237 57.696c.03-.466.049-3.267.456-4.799 0 0-2.51-2.181-2.928-2.986-.417-.805 3.025-6.04 4.14-6.437 1.115-.397 1.903-2.411 2.423-4.047.603-1.9 4.217-15.003 6.835-19.51 2.617-4.508 5.826-8.512 13.097-7.746 7.27.766 10.373 10.925 10.373 10.925s-.1 1.603-4.802 2.088c0 0-4.408.762-5.135-.062 0 0-2.045-4.643-2.937-5.322 0 0-2.191.175-3.577 4.915-1.387 4.74-4.014 16.878-1.949 18.72 0 0 1.832.582 2.938 2.83 1.105 2.25 1.027 3.491 1.027 3.491s-4.12 3.635-4.479 4.392c-.358.756-.717 4.003-.717 4.003s-1.047 1.804-6.32 1.474c-5.275-.33-8.445-1.93-8.445-1.93Z"/><path fill="#000" d="M34.684 59.882c-5.266-.33-8.413-1.89-8.544-1.957l-.153-.077.011-.17c.005-.076.01-.214.015-.4.03-.903.096-2.972.41-4.292-.547-.48-2.48-2.208-2.868-2.957-.12-.23-.075-.58.144-1.134.667-1.695 3.095-5.295 4.138-5.667 1.162-.414 1.99-3.024 2.263-3.882.094-.294.258-.854.487-1.63 1.24-4.22 4.147-14.1 6.371-17.931 2.457-4.231 5.716-8.678 13.349-7.874 3.054.322 5.856 2.351 8.104 5.868 1.684 2.636 2.457 5.135 2.49 5.24l.013.045-.003.047c-.012.186-.252 1.834-5.025 2.328-.78.134-4.584.737-5.365-.147l-.026-.03-.016-.037c-.54-1.226-2.048-4.439-2.775-5.148-.416.111-2.11.796-3.254 4.71-1.675 5.728-3.777 16.716-2.06 18.42.337.124 1.99.822 3.032 2.943 1.123 2.285 1.057 3.567 1.054 3.62l-.007.107-.08.072c-1.578 1.392-4.172 3.792-4.416 4.308-.28.588-.596 3.03-.694 3.921l-.006.055-.028.047c-.046.079-1.189 1.937-6.56 1.602Zm-8.161-2.35c.684.31 3.672 1.55 8.194 1.833 4.569.285 5.86-1.065 6.054-1.31.063-.554.385-3.284.734-4.02.352-.743 3.75-3.774 4.453-4.397-.011-.33-.12-1.467-1-3.26-1.04-2.114-2.767-2.692-2.785-2.698l-.052-.017-.041-.036c-2.4-2.14.922-15.736 1.872-18.986 1.42-4.856 3.709-5.093 3.806-5.1l.098-.009.08.06c.895.682 2.712 4.735 2.998 5.382.502.461 3.131.254 4.872-.047l.018-.003c3.937-.406 4.49-1.588 4.561-1.816a23.703 23.703 0 0 0-2.417-5.06c-1.506-2.352-4.066-5.237-7.716-5.622-7.324-.77-10.362 3.34-12.846 7.619-2.192 3.776-5.086 13.615-6.322 17.817-.23.779-.395 1.341-.49 1.641-.506 1.594-1.324 3.764-2.583 4.213-.716.255-2.868 3.207-3.714 5.094-.353.787-.282.98-.282.982.323.622 2.18 2.31 2.867 2.908l.122.106-.041.156c-.332 1.25-.402 3.41-.432 4.334l-.008.237Z"/><path fill="#000" d="M60.65 23.099s-3.2-.42-5.728.148c-2.527.569-4.21 1.878-4.21 1.878s1.85.572 5.554-.133c4.518-.86 4.378-1.941 4.378-1.941l.006.048Z"/><path fill="#fff" d="M52.316 25.06s3.258-2.288 6.716-1.137l.4 1.893s-1.124.949-3.302 1.351c-2.1.388-3.407-.317-3.407-.317l-.407-1.79Z"/><path fill="#000" d="M54.444 27.524c-1.154-.072-1.835-.43-1.875-.452l-.103-.056-.472-2.074.142-.1c.138-.096 3.405-2.35 6.946-1.171l.141.046.464 2.191-.119.1c-.048.04-1.202.998-3.422 1.408a6.97 6.97 0 0 1-1.702.108Zm-1.527-.861c.335.143 1.48.549 3.135.243 1.692-.312 2.726-.963 3.062-1.203l-.335-1.586c-2.841-.866-5.556.654-6.201 1.056l.339 1.49Z"/><path fill="#fff" d="M43.193 42.969s3.335-1.868 4.176-2.023c.84-.155 2.12.963 2.682 1.932.562.97.885 2.443.75 2.954-.136.51-3.626 3.2-3.626 3.2s-.207-1.675-1.047-3.18c-.949-1.7-2.935-2.883-2.935-2.883Z"/><path fill="#000" d="m46.978 49.509-.056-.45c-.002-.016-.212-1.644-1.016-3.086-.905-1.62-2.822-2.774-2.841-2.786l-.385-.23.391-.218c.345-.194 3.397-1.894 4.255-2.052 1.024-.19 2.396 1.096 2.953 2.057.558.963.943 2.523.776 3.15-.143.538-2.648 2.514-3.718 3.338l-.36.277ZM43.7 42.982c.635.437 1.929 1.432 2.658 2.739.602 1.079.886 2.226 1.005 2.836 1.534-1.199 3.075-2.511 3.194-2.803.106-.402-.175-1.8-.726-2.75-.535-.922-1.73-1.933-2.411-1.808-.58.107-2.622 1.184-3.72 1.786Z"/><path fill="#000" d="m48.994 41.463.873-.672s.917.265 1.383 1.124c.465.86.801 2.127.801 2.127l-1.273.439s-1.092-2.456-1.784-3.018Z"/><path fill="#fff" d="m50.698 44.672-.058-.13c-.01-.025-1.085-2.429-1.74-2.961l-.152-.124 1.09-.84.076.022c.04.011.986.293 1.477 1.2.469.865.8 2.108.815 2.16l.037.14-1.545.533Zm-1.46-3.2c.613.648 1.405 2.328 1.628 2.813l1-.345c-.1-.35-.386-1.285-.748-1.953-.357-.658-1.003-.945-1.218-1.025l-.663.51Z"/><path fill="#000" d="M24.966 51.357a3.263 3.263 0 0 1-.52-.069.263.263 0 0 1-.087-.04c-.889-.636-.863-1.285-.858-1.357l.517.042-.258-.021.258.014c0 .018-.005.419.6.87.358.074 2.585.422 4.216-1.908 1.065-1.52 1.385-3.25.797-4.306-.317-.568-.866-.862-1.594-.853l-4.04 5.75-.423-.297 4.113-5.856a.26.26 0 0 1 .197-.11c.987-.056 1.768.34 2.2 1.114.682 1.225.35 3.176-.825 4.855-1.447 2.066-3.38 2.229-4.293 2.172Zm21.901-4.111s2.818-1.9 3.154-2.295c.336-.394.291-1.331.291-1.331s.55 1.176.524 1.59c-.026.414-3.827 3.083-3.827 3.083l-.142-1.047ZM43.98 43.43l4.182-2.126.821.155-4.31 2.534-.693-.562Z"/><path fill="#000" d="m46.129 45.849 4.188-2.23.071.523-3.884 2.353-.375-.646Zm-.268 2.473s-.22-1.467-.886-2.443c0 0-1.906.608-2.889-.284-.982-.892-1.81-2.605-1.357-6.521.453-3.917 1.861-11.512 2.773-14.465 0 0-1.687 2.074-2.786 8.027-1.099 5.953-1.732 9.443-1.17 12.073.563 2.631 1.267 2.986 2.12 2.624.853-.361 2.295-.167 2.25.556-.046.724-.778 1.225-1.203 1.517-1.012.698-3.516 1.995-3.516 1.995s3.167-.84 4.675-1.715c1.333-.773 1.989-1.364 1.989-1.364ZM32.94 45.08s1.583-.42 1.628-1.144c.045-.724.976-7.31 2.327-12.313 1.35-5.002 3.62-9.74 3.62-9.74s-2.424 2.236-4.105 9.19c-1.68 6.955-2.45 12.617-3.47 14.007Zm9.789-23.359 1.853-1.96-1.026 4.226s.73-1.719 2.088-3.503c1.357-1.784 2.393-.646 2.393-.646s-.525-1.002-2.62-2.378c-2.093-1.377-5.41 1.842-5.41 1.842l3.2-.804-1.19 2.417 1.91-1.75-1.198 2.556Zm6.564-4.946s1.635 2.075 2.256 3.774c.62 1.7 1.124 3.6 1.124 3.6l1.351-.573s-.486-2.364-1.46-4.313c-1.108-2.215-2.573-3.69-2.573-3.69l.672 1.98-1.37-.778Zm10 6.225s-2.704-6.018-4.45-7.996c0 0 3.023 2.577 3.96 4.193l1.836 3.852-1.346-.05Z"/><path fill="#000" d="m46.096 48.336-1.885.817s-.589 1.49-2.355 2.24c-.924.392-2.053 1.844-2.156 3.499-.104 1.654.228 4.097.228 4.097l1.1-.837s.07-2.631.717-4.004c.648-1.372 4.577-4.448 4.577-4.448s.265-.918-.226-1.364ZM26.17 51.25s1.447 1.751 2.255 2.113c.808.362 1.623.62 1.623.62s-1.959-.225-2.204.382c-.246.607-.324 3.51-.64 3.594l-.96-.257.455-4.799-2.178-1.86s.698.459 1.649.207Zm26.527-24.402s.466-.801 3.083-1.157c2.618-.355 3.452-.407 3.626.123 0 0-2.398.162-3.658.394-1.26.233-2.346.996-2.346.996l-.705-.356Zm.754-2.235.233 1.26.536-.277-.22-1.467-.549.484Zm1.629-.729.052.834 1.06-.349-.058-.73-1.054.245Zm-14.352-6.09a5.956 5.956 0 0 1 1.466-1.103c.546-.288 1.147-.5 1.78-.552a3.606 3.606 0 0 1 1.865.335c.579.282 1.063.694 1.506 1.128.432.445.826.922 1.188 1.418.356.5.697 1.01 1.004 1.54a23.013 23.013 0 0 1 1.61 3.283 54.02 54.02 0 0 0-1.885-3.112c-.335-.503-.676-1-1.044-1.476a13.552 13.552 0 0 0-1.167-1.361c-.418-.422-.873-.806-1.385-1.069a3.378 3.378 0 0 0-1.672-.365 4.793 4.793 0 0 0-1.712.413 7.183 7.183 0 0 0-1.553.92ZM33.105 42.42a65.56 65.56 0 0 1 .699-4.11c.13-.682.281-1.36.425-2.039.15-.678.31-1.354.469-2.03l.253-1.01c.087-.337.168-.674.26-1.01.185-.669.362-1.34.565-2.006.396-1.332.824-2.657 1.35-3.946l-.96 4.05-.965 4.044-.496 2.02c-.17.671-.333 1.345-.509 2.017a116.76 116.76 0 0 1-1.09 4.02Z"/><path fill="#fff" d="M24.265 50.295s-2.43-2.644-3.109-3.413c-.678-.769-1.415-2.268.039-3.942 1.454-1.674 2.902-1.584 3.71-1.222.808.362 3.684 2.514 4.085 2.747.4.233.691 2.223-.776 4.104-1.852 2.375-3.949 1.726-3.949 1.726Z"/><path fill="#000" d="M24.741 50.633a2.455 2.455 0 0 1-.557-.09l-.067-.02-.047-.052c-.024-.026-2.44-2.654-3.113-3.416-.435-.494-1.72-2.261.038-4.284 1.79-2.06 3.523-1.507 4.011-1.288.564.252 2.017 1.287 3.08 2.042.486.347.907.646 1.03.717.237.138.348.483.4.748.166.86-.023 2.356-1.102 3.74-1.376 1.763-2.88 1.952-3.673 1.903Zm-.341-.568c.352.08 2.048.343 3.605-1.654.904-1.159 1.122-2.4 1.025-3.176-.048-.377-.153-.527-.178-.547-.14-.081-.529-.358-1.067-.74-.985-.702-2.474-1.761-2.99-1.992-.521-.233-1.895-.588-3.409 1.155-1.44 1.658-.508 3.07-.04 3.601.614.696 2.699 2.966 3.054 3.353Z"/><path fill="#000" d="M21.362 45.34s1.177 1.111 2.417-.472c1.241-1.584-.452-2.728-.452-2.728s-2.01 2.262-1.965 3.2Z"/><path fill="#fff" d="M22.244 45.972a1.83 1.83 0 0 1-1.06-.447l-.076-.072-.006-.104c-.048-1.013 1.817-3.144 2.03-3.384l.151-.17.188.128c.035.023.856.587 1 1.503.084.54-.08 1.077-.489 1.599-.46.587-.97.905-1.52.946a1.587 1.587 0 0 1-.218.001Zm-.618-.756c.14.099.438.267.803.238.396-.032.781-.284 1.146-.749.315-.402.445-.804.384-1.195-.071-.465-.395-.825-.602-1.014-.702.82-1.645 2.102-1.731 2.72Z"/><path fill="#000" d="M20.833 45.513c.446-.49 1.396-.743 2.055-1.325.66-.581.517-1.628.963-2.12.446-.49 1.6-.448 2.32-.581 1.26-.233 2.12-.698 2.191-1.836.072-1.137-.672-2.533-2.572-2.03-1.9.505-1.797 2.172-3.516 1.442-1.72-.73.252-2.372.026-3.736-.226-1.364-1.325-2.055-2.489-1.713-1.163.343-1.745 1.345-1.493 2.295s.621 1.7.285 2.094c0 0-1.267.336-2.075 1.635-.789 1.27-.678 2.553-.678 2.553s-1.08.66-2.521.465c-.924-.124-1.94 1.125-1.603 2.392.336 1.267 1.945 2.094 3.374.834 1.428-1.26 2.469-1.3 2.837-.55.369.75.104 1.668-.161 2.586-.265.917-.071 2.798 2.01 2.72 2.08-.077 2.314-2.139 1.654-3.218-.66-1.08-.607-1.907-.607-1.907Z"/><path fill="#fff" d="M19.446 50.79c-.644-.04-1.156-.285-1.494-.717-.499-.638-.537-1.564-.353-2.199.264-.914.513-1.778.171-2.474a.682.682 0 0 0-.496-.392c-.514-.102-1.26.25-2.099.99-.677.597-1.456.802-2.195.578a2.135 2.135 0 0 1-1.432-1.489 2.225 2.225 0 0 1 .487-2.015c.366-.416.847-.628 1.287-.57a4.097 4.097 0 0 0 2.34-.4c-.01-.338.02-1.442.707-2.546a4.025 4.025 0 0 1 2.114-1.688c.164-.248.021-.711-.158-1.29-.061-.2-.125-.408-.184-.63-.283-1.064.405-2.132 1.6-2.483.592-.175 1.187-.102 1.675.204.532.333.89.913 1.01 1.632.094.572-.153 1.157-.393 1.722-.407.964-.596 1.527.274 1.896.892.38 1.219.067 1.713-.406.38-.364.854-.817 1.703-1.042 1.035-.275 1.673.013 2.026.302.504.414.788 1.137.741 1.887-.087 1.39-1.284 1.788-2.318 1.979-.198.037-.422.06-.659.084-.603.062-1.287.133-1.574.45-.171.188-.25.496-.331.822-.113.447-.24.953-.645 1.31-.336.296-.731.504-1.113.704-.348.182-.678.355-.89.567.004.194.056.895.585 1.762.432.707.468 1.696.088 2.404-.245.457-.768 1.01-1.869 1.052-.11.004-.215.002-.318-.004Zm-2.266-6.106c.053.003.105.01.155.02a.99.99 0 0 1 .714.56c.395.803.117 1.765-.152 2.696-.156.541-.129 1.373.3 1.922.332.425.856.627 1.555.6.755-.027 1.31-.334 1.608-.887.325-.606.291-1.487-.08-2.094-.677-1.109-.632-1.962-.63-1.998l.004-.054.036-.04c.246-.272.62-.468 1.015-.675.366-.192.744-.39 1.053-.663.331-.292.442-.73.548-1.152.092-.365.18-.71.403-.956.367-.404 1.114-.481 1.773-.549.23-.024.448-.046.634-.08 1.388-.257 2.006-.763 2.064-1.693.032-.511-.116-1.208-.628-1.627-.426-.35-1.03-.433-1.75-.243-.771.205-1.194.61-1.567.966-.52.498-.97.927-2.05.469-1.197-.51-.794-1.463-.438-2.304.222-.525.452-1.068.372-1.55-.104-.63-.413-1.134-.868-1.42-.412-.258-.917-.318-1.423-.169-1.046.308-1.629 1.194-1.387 2.106.058.216.12.42.181.617.216.698.386 1.249.072 1.617l-.032.037-.047.013c-.011.003-1.219.34-1.982 1.567-.753 1.21-.657 2.445-.656 2.457l.008.096-.082.05c-.046.028-1.143.686-2.622.487-.337-.046-.715.13-1.013.467-.326.37-.608 1.02-.42 1.73.161.605.63 1.092 1.222 1.272.632.191 1.307.009 1.9-.514.838-.74 1.615-1.118 2.21-1.081Z"/><path fill="#fff" d="M19.52 41.608c-.904 1.36-2.292 2.028-3.1 1.491-.81-.537-.733-2.075.17-3.435.903-1.36 2.29-2.028 3.1-1.491.809.537.732 2.075-.17 3.435Z"/><path fill="#000" d="M16.974 43.542a1.399 1.399 0 0 1-.695-.228c-.942-.626-.9-2.292.098-3.794.997-1.503 2.517-2.19 3.459-1.564.942.625.899 2.292-.098 3.794-.778 1.172-1.873 1.847-2.764 1.792Zm2.137-5.295c-.696-.044-1.646.57-2.303 1.559-.808 1.218-.92 2.627-.242 3.077.676.449 1.931-.2 2.74-1.42.809-1.217.92-2.626.243-3.075a.879.879 0 0 0-.438-.141Z"/><path fill="#000" d="M18.841 41.174c-.549.826-1.392 1.232-1.883.906-.492-.327-.446-1.261.103-2.088.549-.827 1.392-1.232 1.884-.906.491.326.445 1.26-.104 2.088Z"/><path fill="#fff" d="M17.29 42.293a.793.793 0 0 1-.394-.13c-.269-.178-.405-.514-.384-.947.02-.412.183-.868.459-1.283.276-.416.632-.743 1.005-.922.39-.187.753-.192 1.022-.014.27.18.406.516.385.948-.02.413-.184.869-.46 1.284-.275.415-.632.742-1.004.921a1.279 1.279 0 0 1-.628.143Zm1.3-3.217a1.077 1.077 0 0 0-.524.122c-.34.163-.667.465-.922.85-.255.384-.406.803-.425 1.178-.018.357.086.629.292.765.206.137.497.127.818-.027.34-.164.667-.465.922-.85.255-.384.406-.803.425-1.179.017-.356-.086-.628-.292-.765a.588.588 0 0 0-.293-.094Z"/><path fill="#000" d="m29.185 46.553-3.276-2.385-.15-.944s2.987 2.056 3.394 2.185l.032 1.144Zm-7.892-.181c.298.086.593.152.885.163.292.015.578-.016.846-.093.54-.155.996-.492 1.364-.93.373-.432.653-.933.726-1.489.075-.554-.055-1.15-.35-1.69a2.31 2.31 0 0 1 .751 1.716 2.486 2.486 0 0 1-.21.97c-.13.306-.313.583-.523.83a3.11 3.11 0 0 1-.74.649 2.508 2.508 0 0 1-.932.347 2.38 2.38 0 0 1-.974-.054 2.462 2.462 0 0 1-.843-.42Z"/><path fill="#fff" d="M11.848 44.452s.793.487 2.161-.302c1.368-.789 1.233-.856 1.233-.856s-.894.702-1.857.292-1.537.866-1.537.866Zm7.1 2.912s-.911 1.293-.44 2.049c.473.756.44-2.049.44-2.049Zm.4.131s-.323 1.848.31 1.68c.634-.168-.31-1.68-.31-1.68Z"/><path fill="#000" d="M54.139 38.162s-.921 2.279 1.764 1.668c0 0-1.852-.272-1.764-1.668ZM20.54 44.925s-.155-.84.736-1.822c.892-.983 1.843-1.235 1.843-1.235s.129 1.254-.64 1.933c-.77.678-1.94 1.124-1.94 1.124Z"/><path fill="#fff" d="M24.053 41.144s1.68-.31 2.624-.46c.944-.148 1.629-1.143.95-1.912-.679-.77-1.125-.278-1.125-.278s1.073 1.105-.2 1.545a10.629 10.629 0 0 0-2.25 1.105Zm18.167 2.291s.037-.737.955-.472c.918.265 2.295 1.493 2.934 2.883.64 1.39 1.067 2.87 1.035 3.387-.033.517-.88.775-.88.775s-.536-3.044-1.486-4.453c-.95-1.409-2.557-2.12-2.557-2.12Z"/><path fill="#000" d="M46.287 50.267a.258.258 0 0 1-.24-.214c-.004-.03-.537-3.006-1.445-4.353-.895-1.328-2.433-2.022-2.448-2.029a.26.26 0 0 1-.154-.25.856.856 0 0 1 .338-.622c.236-.17.555-.198.947-.084.946.273 2.4 1.506 3.098 3.022.63 1.37 1.095 2.912 1.057 3.512-.042.676-.957.975-1.061 1.007a.26.26 0 0 1-.092.01Zm-3.718-6.97c.477.247 1.675.946 2.462 2.113.797 1.182 1.3 3.41 1.467 4.238.204-.105.415-.262.425-.431.029-.454-.37-1.873-1.01-3.263-.617-1.34-1.931-2.5-2.771-2.742-.227-.065-.4-.063-.5.006a.255.255 0 0 0-.073.08ZM25.18 50.302l-2.82-3.082s.648-.124 1.09.017c.203.064 3.057 2.578 3.057 2.578s-.67.737-1.329.488Zm-.924-3.332 2.692 2.608.485-.28-2.79-2.718-.387.39Zm-6.838-3.537s1.606.048 2.576-1.345c.97-1.392.445-2.983.445-2.983s-.103 1.655-1.05 2.686c-.947 1.03-1.971 1.642-1.971 1.642Z"/><path fill="#fff" d="M20.45 34.116s.972.217 1.169 1.215c.197.999-.743 1.926-.695 2.812.049.885.508 1.018.508 1.018l-.983-.062-.265-.743s-.042-.989.585-1.884c.627-.895-.32-2.356-.32-2.356Z"/><path fill="#000" d="M26.283 51.771c.484-.16.94-.38 1.37-.636a6.64 6.64 0 0 0 1.191-.908 6.39 6.39 0 0 0 .952-1.153c.27-.423.494-.876.685-1.349a5.252 5.252 0 0 1-.546 1.432 5.337 5.337 0 0 1-2.202 2.118c-.457.237-.944.42-1.45.496Z"/><path fill="#000" d="M26.473 52.001c.245-.07.482-.158.713-.26.232-.099.456-.213.673-.338.11-.06.214-.13.32-.195.104-.071.21-.138.308-.215l.15-.113c.049-.038.096-.079.144-.118.098-.078.187-.165.278-.25.365-.34.68-.73.954-1.15a7.87 7.87 0 0 0 .688-1.347 5.096 5.096 0 0 1-.55 1.43 5.172 5.172 0 0 1-2.93 2.391c-.244.076-.494.14-.748.165Z"/><path fill="#000" d="M26.664 52.22c.247-.063.487-.143.72-.239.235-.092.461-.202.681-.321.111-.058.216-.127.324-.189.104-.07.211-.134.31-.21l.151-.11c.05-.038.097-.078.146-.117.099-.077.189-.163.28-.247.366-.337.681-.73.955-1.149a7.92 7.92 0 0 0 .693-1.344c-.109.498-.3.98-.555 1.428a4.953 4.953 0 0 1-2.952 2.355c-.246.07-.498.125-.753.143Z"/><path fill="#000" d="M26.883 52.448c.497-.11.97-.291 1.416-.521.112-.056.218-.121.327-.182.105-.068.213-.13.313-.205l.153-.108c.05-.037.097-.078.146-.116.1-.075.19-.16.282-.244a6.01 6.01 0 0 0 .959-1.147c.274-.42.503-.871.694-1.344a5.13 5.13 0 0 1-.556 1.429 5.061 5.061 0 0 1-.956 1.214 4.71 4.71 0 0 1-1.293.848 4.516 4.516 0 0 1-.727.256c-.25.063-.503.111-.758.12Z"/><path fill="#000" d="M27.076 52.675c.5-.095.98-.262 1.43-.482a5.16 5.16 0 0 0 1.232-.838c.37-.334.688-.724.963-1.144a7.88 7.88 0 0 0 .697-1.344c-.11.5-.304.981-.56 1.429a5.314 5.314 0 0 1-.43.643 5.127 5.127 0 0 1-.53.569 4.49 4.49 0 0 1-1.306.832 4.09 4.09 0 0 1-1.496.335Z"/><path fill="#000" d="M27.268 52.899a5.425 5.425 0 0 0 1.443-.442 4.863 4.863 0 0 0 1.243-.82 5.91 5.91 0 0 0 .968-1.141c.276-.42.506-.872.698-1.345-.11.5-.303.982-.56 1.43a4.99 4.99 0 0 1-.967 1.209c-.388.347-.835.63-1.319.815-.48.189-.994.301-1.506.294Z"/><path fill="#000" d="M27.459 53.122a5.25 5.25 0 0 0 1.456-.402c.46-.199.885-.47 1.254-.803.186-.165.361-.345.521-.537.164-.19.313-.392.454-.6.277-.42.508-.872.698-1.346-.107.5-.302.984-.56 1.43a5.015 5.015 0 0 1-.974 1.207c-.39.347-.844.624-1.333.798a3.902 3.902 0 0 1-1.516.253Z"/><path fill="#000" d="M27.65 53.35a5.08 5.08 0 0 0 1.469-.36 4.328 4.328 0 0 0 1.265-.786c.096-.079.182-.172.273-.258.085-.091.172-.181.252-.278a5.67 5.67 0 0 0 .457-.599c.28-.419.512-.87.699-1.348a4.74 4.74 0 0 1-.562 1.434 4.97 4.97 0 0 1-.982 1.203c-.099.086-.198.172-.306.245a3.936 3.936 0 0 1-1.04.537 3.819 3.819 0 0 1-1.525.21Z"/><path fill="#000" d="M27.828 53.577a4.976 4.976 0 0 0 1.48-.321c.47-.178.904-.437 1.276-.767.097-.078.183-.172.275-.257.084-.092.174-.18.254-.277a6.43 6.43 0 0 0 1.16-1.947 4.49 4.49 0 0 1-.563 1.436 5.038 5.038 0 0 1-.989 1.2l-.15.127c-.05.042-.107.077-.16.116-.104.08-.217.146-.33.212a3.82 3.82 0 0 1-.72.309 3.767 3.767 0 0 1-1.533.169Z"/><path fill="#000" d="M28.023 53.801a4.904 4.904 0 0 0 1.49-.28 3.937 3.937 0 0 0 1.289-.749l.072-.06.068-.065.136-.13c.087-.092.174-.183.256-.278a6.052 6.052 0 0 0 1.165-1.947c-.088.509-.3.992-.563 1.439a5.148 5.148 0 0 1-.998 1.197l-.152.127c-.05.042-.107.076-.16.115-.106.078-.22.143-.335.208-.234.12-.474.228-.727.295a3.73 3.73 0 0 1-1.54.128Z"/><path fill="#000" d="M27.246 53.288c.351.087.7.175 1.054.25.351.08.704.153 1.057.227.706.141 1.415.268 2.127.372.711.112 1.426.19 2.143.253l.538.042.54.028c.36.03.72.017 1.082.036-.72.063-1.446.094-2.17.055a8.862 8.862 0 0 1-.543-.03c-.18-.016-.361-.025-.542-.044l-.54-.061c-.18-.02-.359-.05-.538-.074a23.607 23.607 0 0 1-2.132-.42 18.271 18.271 0 0 1-2.076-.634Z"/><path fill="#000" d="M27.215 53.644c.352.09.704.179 1.058.256.353.083.708.157 1.062.232.71.145 1.422.274 2.137.38.715.114 1.434.194 2.154.259l.542.044.542.029.271.017.272.006c.181.003.363.009.545.016-.724.06-1.454.09-2.182.05a8.64 8.64 0 0 1-.546-.033c-.181-.015-.363-.025-.544-.045a23.497 23.497 0 0 1-3.227-.566 18.133 18.133 0 0 1-2.084-.645Z"/><path fill="#000" d="M27.154 54.008c.354.092.707.184 1.063.263.355.084.711.16 1.067.237.713.148 1.429.28 2.148.388.718.116 1.44.198 2.165.264l.544.046.545.03.273.018.273.007c.182.003.365.01.548.017a15.87 15.87 0 0 1-2.194.044c-.092-.004-.183-.006-.275-.012l-.274-.022c-.182-.015-.365-.026-.547-.046a23.276 23.276 0 0 1-3.242-.577 18.051 18.051 0 0 1-2.094-.657Z"/><path fill="#000" d="M27.164 54.367c.355.094.71.187 1.067.268a38.935 38.935 0 0 0 3.23.638 31.61 31.61 0 0 0 2.176.27l.547.048.548.031.274.019.275.007c.183.004.367.01.55.02-.732.054-1.47.083-2.205.037l-.276-.012-.275-.023c-.184-.016-.368-.028-.55-.047-.367-.044-.732-.086-1.096-.145a23.08 23.08 0 0 1-2.163-.444c-.713-.182-1.417-.4-2.102-.667Z"/><path fill="#000" d="M27.102 54.732a41.541 41.541 0 0 0 4.316.926c.725.12 1.455.207 2.187.276l.55.049.55.032.276.02.276.008c.184.004.369.011.554.02a16.25 16.25 0 0 1-2.218.032l-.277-.012-.277-.024c-.184-.016-.369-.03-.553-.049-.367-.044-.735-.088-1.1-.148a22.839 22.839 0 0 1-2.174-.452 17.756 17.756 0 0 1-2.11-.678Zm-.03.358a40.246 40.246 0 0 0 4.336.946c.729.121 1.462.212 2.198.282l.553.05.553.034.278.02.277.008c.185.005.37.013.556.022-.74.051-1.486.077-2.229.027l-.279-.013-.277-.024c-.186-.017-.371-.032-.557-.05-.369-.047-.739-.09-1.106-.152a22.747 22.747 0 0 1-2.183-.46c-.72-.188-1.43-.412-2.12-.69Z"/><path fill="#000" d="M27.05 55.453a39.109 39.109 0 0 0 4.356.964c.733.124 1.47.217 2.21.288l.555.051.556.036.279.02.279.01c.186.005.372.014.56.023a16.64 16.64 0 0 1-2.242.022l-.28-.014-.28-.025-.558-.052c-.371-.047-.743-.091-1.112-.154a22.54 22.54 0 0 1-2.194-.468 17.542 17.542 0 0 1-2.128-.7Z"/><path fill="#000" d="M27.02 55.815c.72.21 1.447.389 2.175.555.73.165 1.462.31 2.2.429.367.067.738.112 1.107.167l.556.067c.185.024.37.043.557.06l.558.051.56.038.28.02.28.01c.187.007.374.015.562.026a16.83 16.83 0 0 1-2.253.015l-.282-.014-.28-.025-.562-.053c-.373-.05-.747-.094-1.117-.158a22.432 22.432 0 0 1-2.204-.476 17.398 17.398 0 0 1-2.137-.712Z"/><path fill="#000" d="M26.998 56.178a36.84 36.84 0 0 0 2.185.566 35.36 35.36 0 0 0 2.21.437c.369.068.741.114 1.112.17.373.044.745.097 1.119.129l.56.053.563.04c.094.006.188.015.282.02l.281.012c.188.006.377.015.565.026-.752.045-1.51.065-2.264.01l-.283-.015c-.095-.007-.188-.017-.283-.026l-.564-.054c-.375-.05-.75-.096-1.123-.161a26.753 26.753 0 0 1-1.113-.214l-.553-.128c-.183-.045-.366-.094-.548-.142-.73-.198-1.45-.433-2.146-.723Z"/><path fill="#000" d="M26.969 56.538c.725.22 1.458.405 2.194.578.735.17 1.475.321 2.22.444.37.07.745.116 1.118.174.374.044.748.099 1.124.131l.564.055.565.04c.094.007.188.017.283.022l.283.012c.19.007.379.016.568.028a17.46 17.46 0 0 1-2.276.004l-.285-.016c-.095-.006-.189-.017-.283-.026l-.568-.055c-.376-.052-.754-.098-1.128-.165a26.969 26.969 0 0 1-1.12-.217l-.554-.13c-.184-.045-.367-.096-.55-.145-.733-.2-1.456-.439-2.155-.734Z"/><path fill="#000" d="M26.91 56.9a34.95 34.95 0 0 0 2.203.59c.74.173 1.482.327 2.23.452.373.071.75.118 1.124.177.376.045.752.1 1.13.134l.566.056.569.041c.378.038.759.035 1.14.065-.76.041-1.527.057-2.288-.001-.383-.015-.761-.066-1.142-.1-.378-.053-.758-.1-1.134-.168-.377-.063-.75-.142-1.124-.22l-.557-.134c-.186-.045-.37-.097-.554-.146a17.007 17.007 0 0 1-2.163-.746Z"/><path fill="#000" d="M26.89 57.258c.731.23 1.47.422 2.213.601a33.55 33.55 0 0 0 2.24.46c.375.073.753.121 1.13.18.378.048.755.103 1.135.137.758.087 1.52.127 2.286.167-.764.04-1.534.055-2.3-.005-.384-.016-.765-.068-1.147-.104-.19-.024-.38-.053-.57-.08a13.14 13.14 0 0 1-.57-.09 27.604 27.604 0 0 1-1.13-.224l-.559-.136c-.186-.045-.37-.098-.556-.148a16.867 16.867 0 0 1-2.171-.758Zm-.03.365c.733.234 1.476.43 2.22.612.746.18 1.496.34 2.251.468a30.69 30.69 0 0 0 2.276.323c.762.088 1.528.13 2.298.172-.769.038-1.542.05-2.312-.01-.386-.018-.768-.07-1.153-.107-.191-.024-.382-.055-.573-.081a12.546 12.546 0 0 1-.572-.093c-.38-.065-.758-.146-1.135-.227-.375-.092-.75-.181-1.12-.29a16.776 16.776 0 0 1-2.18-.767Z"/><path fill="#000" d="M26.84 57.981c.736.24 1.482.439 2.23.624.749.183 1.502.346 2.261.477.758.137 1.52.247 2.287.328.766.09 1.536.133 2.31.177-.773.036-1.55.047-2.324-.016-.388-.018-.773-.07-1.159-.11-.192-.023-.384-.055-.576-.082l-.288-.043-.286-.05a27.44 27.44 0 0 1-1.14-.232c-.378-.093-.755-.184-1.127-.293a16.616 16.616 0 0 1-2.188-.78Zm-4.479-10.759a3.885 3.885 0 0 0 1.64-.391c.062-.03.12-.07.18-.104l.088-.051.083-.061c.055-.041.113-.08.165-.123l.15-.14c.053-.043.096-.096.141-.147l.134-.155.114-.17c.037-.058.08-.112.107-.175a4.3 4.3 0 0 0 .331-.764l.067-.2.05-.202c.009-.034.018-.067.025-.101l.017-.103c.01-.069.028-.137.034-.206a2.824 2.824 0 0 0-.02-.831c-.01-.07-.03-.137-.046-.206-.022-.066-.04-.135-.067-.2a1.62 1.62 0 0 0-.2-.38c.111.096.202.214.277.342.042.062.069.13.104.197.026.069.057.137.08.209.088.285.128.588.113.888 0 .075-.012.149-.017.224l-.012.111-.02.11-.044.22-.06.216a4.352 4.352 0 0 1-.342.828c-.288.535-.777.96-1.331 1.193a3.056 3.056 0 0 1-1.74.172Z"/><path fill="#000" d="M23.043 47.555a4.17 4.17 0 0 0 .846-.264c.268-.116.52-.262.747-.439a6.213 6.213 0 0 0 1.23-1.266 2.8 2.8 0 0 1-.453.787 3.82 3.82 0 0 1-.65.643 2.666 2.666 0 0 1-.818.426c-.292.092-.6.14-.902.113Z"/><path fill="#000" d="M23.262 47.808c.299-.06.584-.148.856-.263.27-.117.527-.26.755-.442a6.903 6.903 0 0 0 1.236-1.286c-.104.289-.27.552-.458.794-.19.243-.407.462-.651.655l-.094.071-.098.064c-.065.045-.134.081-.203.119a2.71 2.71 0 0 1-.432.176 2.392 2.392 0 0 1-.911.112Z"/><path fill="#000" d="M23.467 48.058c.302-.06.59-.149.866-.262.274-.117.535-.259.762-.444a6.59 6.59 0 0 0 .658-.61c.205-.22.403-.449.585-.697a3.09 3.09 0 0 1-.463.802c-.093.124-.199.238-.305.352a3.85 3.85 0 0 1-.346.315c-.124.1-.26.182-.399.258a2.81 2.81 0 0 1-.438.175c-.299.09-.612.137-.92.11Z"/><path fill="#000" d="M23.697 48.313a4.91 4.91 0 0 0 .877-.261c.276-.117.542-.258.77-.446.23-.186.45-.403.658-.623a8.54 8.54 0 0 0 .59-.704c-.11.292-.278.56-.467.809-.191.25-.405.476-.652.68a2.5 2.5 0 0 1-.846.436 2.59 2.59 0 0 1-.93.108Z"/><path fill="#000" d="M23.893 48.563c.307-.06.603-.148.886-.26.14-.06.28-.118.409-.196.066-.035.128-.077.192-.116.059-.045.123-.084.178-.135.115-.09.227-.2.337-.306a9.7 9.7 0 0 0 .918-1.042 3.464 3.464 0 0 1-.473.816 4.296 4.296 0 0 1-.652.693c-.253.207-.55.348-.856.439a2.678 2.678 0 0 1-.94.107Z"/><path fill="#000" d="M24.117 48.814c.31-.062.61-.147.897-.26.141-.06.283-.117.413-.195.068-.035.13-.077.195-.117.06-.044.123-.086.18-.135.114-.092.226-.204.335-.313a11.079 11.079 0 0 0 .924-1.056 3.677 3.677 0 0 1-.477.823 4.43 4.43 0 0 1-.652.706 2.44 2.44 0 0 1-.866.44c-.31.088-.631.13-.949.107Z"/><path fill="#000" d="M24.326 49.07c.314-.063.617-.147.907-.26.144-.058.287-.117.419-.194a2.42 2.42 0 0 0 .378-.253c.113-.095.226-.207.335-.32.11-.11.216-.226.322-.342.21-.235.412-.476.608-.73a3.91 3.91 0 0 1-.482.832c-.194.26-.4.498-.652.72-.26.209-.563.354-.877.44a2.835 2.835 0 0 1-.958.107Z"/><path fill="#000" d="M24.559 49.32c.316-.064.624-.146.917-.258.074-.026.144-.06.216-.09.07-.034.142-.064.208-.104.138-.07.263-.16.382-.254.113-.097.226-.21.334-.326.111-.113.216-.232.323-.35.21-.238.414-.483.613-.737a4.237 4.237 0 0 1-.487.839 5.41 5.41 0 0 1-.304.38 3.878 3.878 0 0 1-.347.353 2.43 2.43 0 0 1-.888.442 2.918 2.918 0 0 1-.967.106Z"/><path fill="#000" d="M24.75 49.567c.32-.065.63-.146.927-.258a2.84 2.84 0 0 0 .816-.449c.057-.051.113-.1.169-.157.056-.057.11-.116.164-.174.111-.116.216-.237.323-.357.21-.242.416-.49.619-.746-.13.3-.302.58-.492.846a5.676 5.676 0 0 1-.303.387 3.491 3.491 0 0 1-.348.36c-.267.214-.578.36-.898.444-.32.087-.65.124-.977.104Z"/><path fill="#000" d="M24.979 49.821a6.28 6.28 0 0 0 .937-.257c.3-.111.587-.253.825-.45.06-.05.113-.102.169-.158l.164-.179c.111-.118.215-.242.323-.364.211-.246.418-.497.623-.755a4.856 4.856 0 0 1-.496.855 6.124 6.124 0 0 1-.302.393c-.052.064-.108.125-.163.187-.058.06-.12.125-.186.18a2.291 2.291 0 0 1-.434.273 3.098 3.098 0 0 1-1.46.275Zm21.148-5.183c.176.212.327.44.468.675a7.318 7.318 0 0 1 .542 1.105c.045.13.095.258.13.392.075.264.134.538.127.814a8.096 8.096 0 0 0-.28-.761 20.374 20.374 0 0 0-.325-.738c-.22-.492-.457-.977-.662-1.487Zm.35-.202c.177.205.328.428.47.656.141.229.268.466.382.71a5.3 5.3 0 0 1 .288.757c.074.26.13.53.123.801a8.37 8.37 0 0 0-.276-.747 18.58 18.58 0 0 0-.323-.724c-.108-.24-.225-.479-.336-.72a15.674 15.674 0 0 1-.328-.733Zm.351-.203c.178.198.33.414.472.637.142.223.27.455.383.695.11.24.214.486.285.743.073.255.126.52.12.787a8.63 8.63 0 0 0-.349-.912l-.08-.177a11.03 11.03 0 0 0-.163-.353c-.108-.236-.225-.469-.337-.705a19.133 19.133 0 0 1-.33-.715Zm.315-.2c.178.19.332.401.474.618.142.218.27.444.383.679.11.236.212.477.282.73.072.251.122.512.116.774a9 9 0 0 0-.343-.896l-.08-.173a9.848 9.848 0 0 0-.162-.346c-.107-.23-.224-.457-.336-.688-.114-.23-.227-.46-.334-.698Zm.353-.2c.18.183.334.387.477.599.143.211.27.433.383.663.11.231.21.468.28.716.07.247.118.504.111.76a9.459 9.459 0 0 0-.264-.706c-.051-.114-.097-.23-.152-.341-.05-.114-.106-.226-.16-.339-.108-.225-.225-.447-.337-.672a23.685 23.685 0 0 1-.338-.68Zm.352-.204a3.9 3.9 0 0 1 .48.58c.143.205.27.422.383.647.11.226.207.46.277.703.068.243.113.495.107.747a10.16 10.16 0 0 0-.26-.693c-.098-.225-.2-.446-.31-.666-.107-.22-.222-.436-.336-.655-.115-.219-.23-.438-.341-.663Zm.352-.2c.181.167.338.359.481.559a4.35 4.35 0 0 1 .658 1.322c.067.239.11.487.104.734-.08-.234-.164-.458-.256-.68-.098-.22-.197-.437-.306-.651-.216-.43-.454-.847-.682-1.284Zm.34-.2c.183.16.34.344.485.538.145.194.27.402.384.617.11.217.202.443.27.678.066.234.105.478.1.72-.08-.23-.16-.45-.252-.666a11.474 11.474 0 0 0-.303-.637c-.214-.42-.452-.826-.685-1.25Zm.35-.205c.186.151.345.33.49.518.145.188.27.391.383.602.11.211.2.434.267.664.066.23.101.47.097.708-.081-.225-.157-.442-.25-.654-.048-.104-.09-.212-.143-.314l-.074-.156-.08-.153c-.212-.41-.45-.804-.69-1.215Zm.352-.199c.187.142.347.313.493.496.146.182.272.38.383.587.11.206.2.426.264.652.066.225.096.462.093.695-.082-.22-.154-.434-.246-.642a7.987 7.987 0 0 0-.294-.609c-.21-.4-.448-.783-.693-1.18Zm3.699-17.623c.29-.211.608-.38.936-.524.163-.074.331-.135.5-.197.17-.056.34-.11.514-.156.173-.048.35-.081.526-.118.177-.025.353-.06.533-.07a5.14 5.14 0 0 1 1.072.005c-.355.05-.704.087-1.05.155-.346.061-.69.136-1.028.228-.34.086-.675.19-1.009.303-.333.114-.664.238-.994.374Zm.094.453c.29-.196.606-.35.929-.484.16-.069.327-.125.492-.183.167-.052.334-.103.504-.145.17-.045.342-.077.514-.111.174-.024.346-.058.52-.069a5.32 5.32 0 0 1 1.048-.003c-.345.055-.687.096-1.025.163a14.3 14.3 0 0 0-1.006.22c-.334.081-.664.177-.992.28a23.36 23.36 0 0 0-.984.332Zm.07.455c.291-.181.604-.323.922-.446.318-.124.646-.222.978-.303.166-.04.335-.072.503-.104.17-.023.337-.055.508-.066a5.64 5.64 0 0 1 1.023-.013c-.336.06-.67.106-1 .173a21.853 21.853 0 0 0-1.961.466c-.324.093-.647.19-.973.292Zm-5.882-9.244a13 13 0 0 1 1.316 1.335 16.625 16.625 0 0 1 1.649 2.282c.08.134.154.272.231.409l.115.205c.037.069.07.14.105.21.293.554.518 1.142.713 1.734-.07-.14-.137-.28-.203-.422l-.1-.21-.11-.206-.214-.414-.228-.406a22.097 22.097 0 0 0-.987-1.576 27.844 27.844 0 0 0-1.096-1.504l-.29-.365-.294-.361c-.196-.243-.401-.476-.607-.711ZM33.273 43.88c.54.165 1.092.266 1.646.343.138.018.277.037.416.049.139.012.277.03.417.035.14.007.279.02.418.025l.418.007c.14.006.28-.003.419-.004.14-.002.28-.005.418-.017l.419-.025.416-.044c.28-.023.555-.076.833-.114.279-.04.551-.108.831-.151a13.52 13.52 0 0 1-.403.13c-.135.04-.269.09-.407.12-.275.063-.55.138-.831.175a9.833 9.833 0 0 1-1.696.137 9.482 9.482 0 0 1-1.694-.164 6.702 6.702 0 0 1-1.62-.503Z"/><path fill="#000" d="M33.453 43.303c.533.163 1.078.268 1.624.346.137.018.273.037.41.05.138.012.275.032.413.037l.412.026.413.01c.138.006.276-.002.414-.003.138-.001.275-.003.413-.014l.413-.023.412-.041c.276-.022.548-.072.823-.109.139-.014.273-.049.41-.072.136-.026.274-.05.412-.073a19.87 19.87 0 0 1-.398.129c-.134.04-.267.087-.403.116-.273.06-.544.133-.822.169a9.5 9.5 0 0 1-1.676.127 9.33 9.33 0 0 1-1.673-.17c-.549-.109-1.093-.262-1.597-.505Z"/><path fill="#000" d="M33.629 42.722c.526.161 1.063.267 1.603.346.27.039.54.07.812.09l.407.029.408.01c.136.01.272 0 .408.001.136-.001.272-.001.408-.011l.408-.021c.136-.011.271-.027.407-.039.273-.02.541-.068.813-.103.137-.013.27-.047.405-.07l.407-.07c-.13.044-.262.086-.394.127-.132.039-.263.084-.398.113-.269.06-.538.13-.812.163a9.447 9.447 0 0 1-1.656.118 9.186 9.186 0 0 1-1.651-.178c-.542-.11-1.079-.263-1.575-.505Z"/><path fill="#000" d="M33.805 42.143c.52.16 1.049.268 1.581.348.266.04.533.07.801.093l.402.03.403.013c.134.009.268.002.403.003.134-.001.268 0 .403-.01l.403-.018c.134-.01.267-.025.402-.036.269-.018.535-.063.803-.097.135-.013.266-.045.4-.067.134-.024.268-.046.402-.067-.129.042-.258.083-.389.123-.13.038-.26.083-.393.11-.266.058-.532.126-.803.159a9.273 9.273 0 0 1-3.265-.078 6.506 6.506 0 0 1-1.553-.506Z"/><path fill="#000" d="M33.957 41.567c.513.16 1.035.268 1.56.35.263.04.526.072.79.095l.397.032.398.015c.132.01.265.004.397.005.133 0 .266.002.398-.007l.398-.016c.133-.007.265-.023.397-.033.266-.017.529-.06.794-.092.133-.011.263-.042.395-.063.132-.023.264-.044.398-.065a13.17 13.17 0 0 1-.385.12c-.129.038-.257.081-.389.108-.263.057-.526.122-.794.153a9.072 9.072 0 0 1-3.223-.094 6.471 6.471 0 0 1-1.531-.508Z"/><path fill="#000" d="M34.117 40.993a10.95 10.95 0 0 0 1.54.35c.258.04.518.074.779.099l.391.033.392.017c.131.01.262.006.393.008.13 0 .262.004.392-.004l.393-.015c.131-.005.261-.02.392-.03.263-.015.522-.055.784-.086.132-.01.26-.04.39-.06.13-.023.262-.043.393-.062-.126.04-.252.08-.38.117-.127.037-.254.08-.384.105-.26.055-.52.118-.784.147a8.893 8.893 0 0 1-1.596.087 8.765 8.765 0 0 1-1.586-.198 6.43 6.43 0 0 1-1.509-.508Zm.182-.583c.499.157 1.007.267 1.517.35.256.042.512.077.77.103l.386.035.387.018a12.41 12.41 0 0 0 1.55-.03c.258-.013.515-.051.773-.08.13-.01.257-.04.386-.058.128-.021.258-.041.388-.06-.125.04-.25.079-.376.116-.126.036-.25.076-.38.101-.256.054-.513.114-.775.142-.52.08-1.049.092-1.575.077a8.65 8.65 0 0 1-1.564-.205 6.39 6.39 0 0 1-1.487-.51Z"/><path fill="#000" d="M34.45 39.834c.491.156.992.267 1.496.352.252.042.505.078.758.105l.38.037.383.02c.508.023 1.02.022 1.529-.02.255-.012.508-.047.764-.075.128-.01.254-.036.38-.055.128-.02.255-.038.384-.056-.123.039-.247.076-.371.112-.124.036-.248.075-.375.1-.254.051-.508.109-.766.135a8.555 8.555 0 0 1-1.555.066 8.55 8.55 0 0 1-1.543-.21 6.348 6.348 0 0 1-1.465-.51Zm.177-.578c.485.155.979.266 1.475.353.497.084.997.148 1.5.169.502.025 1.006.027 1.509-.01.252-.011.502-.044.754-.07.127-.009.25-.034.376-.052.125-.019.251-.037.378-.053-.121.038-.243.074-.366.11-.123.034-.245.072-.37.095l-.377.075c-.125.03-.253.037-.38.056-.254.039-.51.048-.766.063-.128.01-.257.001-.385.003-.128-.001-.256 0-.384-.01a8.445 8.445 0 0 1-1.521-.218 6.313 6.313 0 0 1-1.443-.51Zm.18-.576c.478.153.964.266 1.454.354.49.085.982.151 1.478.175.495.029.992.034 1.488 0 .25-.009.496-.039.745-.064.125-.008.247-.032.371-.049.124-.018.248-.034.374-.05a7.531 7.531 0 0 1-1.475.324c-.25.038-.504.045-.756.059-.127.008-.253-.001-.38 0-.127-.002-.253-.003-.38-.013a8.338 8.338 0 0 1-1.498-.224 6.275 6.275 0 0 1-1.421-.512Zm.171-.576c.472.152.951.265 1.434.355.482.087.968.154 1.457.18.487.033.978.04 1.467.011.491-.018.977-.088 1.47-.151-.472.147-.96.263-1.456.312-.248.036-.497.041-.747.053-.125.007-.25-.002-.374-.002a8.232 8.232 0 0 1-1.852-.246 6.23 6.23 0 0 1-1.398-.512Zm.182-.582c.465.15.937.265 1.412.355.475.09.954.158 1.436.188.48.036.964.046 1.447.02.484-.014.964-.08 1.45-.14a7.14 7.14 0 0 1-1.438.302c-.244.034-.49.036-.736.048-.123.005-.246-.004-.37-.006a4.68 4.68 0 0 1-.368-.017c-.123-.012-.246-.02-.368-.035l-.366-.05c-.242-.045-.484-.089-.722-.152a6.204 6.204 0 0 1-1.377-.513Zm.15-.578c.459.15.923.264 1.392.356.468.09.94.161 1.414.194.474.04.95.052 1.426.031.478-.01.951-.072 1.431-.128-.46.14-.936.248-1.42.29-.24.032-.483.032-.726.042-.121.003-.243-.006-.364-.008l-.182-.006-.182-.014c-.12-.013-.242-.02-.362-.037l-.36-.052c-.239-.046-.477-.09-.711-.155a6.177 6.177 0 0 1-1.355-.513Zm.178-.577c.452.147.91.263 1.37.356.462.092.926.164 1.394.2.466.043.936.058 1.405.041.471-.006.938-.064 1.412-.116-.455.136-.925.24-1.401.278-.238.03-.478.028-.717.037-.12.001-.24-.008-.36-.01l-.179-.008-.179-.015a9.898 9.898 0 0 1-.712-.093c-.234-.047-.47-.092-.7-.157a6.16 6.16 0 0 1-1.333-.514Zm.18-.574c.445.147.895.262 1.35.357.453.094.91.167 1.371.207.46.046.922.064 1.385.05.464-.002.925-.056 1.392-.103a6.58 6.58 0 0 1-1.383.265c-.235.03-.47.024-.707.032-.118 0-.236-.01-.354-.013l-.177-.009-.176-.016a9.842 9.842 0 0 1-.7-.096l-.347-.073c-.115-.025-.229-.058-.343-.087a6.127 6.127 0 0 1-1.311-.514Zm.174-.583c.438.145.881.262 1.328.358.447.095.897.17 1.35.213.453.049.91.07 1.365.061.458.002.912-.049 1.373-.092a6.433 6.433 0 0 1-1.365.254c-.232.027-.464.02-.697.026-.116-.002-.233-.011-.349-.016a4.549 4.549 0 0 1-.348-.028 9.591 9.591 0 0 1-.69-.1l-.34-.074c-.114-.025-.226-.058-.338-.088a6.101 6.101 0 0 1-1.29-.514Zm.18-.574a13.062 13.062 0 0 0 2.636.577c.223.032.447.04.67.058.225.006.45.02.674.014.45.005.899-.041 1.353-.08a6.252 6.252 0 0 1-1.346.241c-.229.026-.458.016-.688.021-.228-.013-.458-.02-.686-.048a9.37 9.37 0 0 1-.68-.104l-.334-.075c-.112-.027-.222-.06-.332-.09a6.087 6.087 0 0 1-1.267-.514Zm.15-.578a13.365 13.365 0 0 0 2.595.583c.218.033.44.043.66.063.22.007.441.024.663.02.444.009.885-.034 1.333-.068a6.074 6.074 0 0 1-1.328.229c-.225.024-.451.011-.678.015-.225-.015-.451-.023-.675-.053a7.748 7.748 0 0 1-1.324-.275 6.07 6.07 0 0 1-1.246-.514Zm.178-.576a13.262 13.262 0 0 0 2.553.589c.215.035.432.047.649.069.217.009.435.027.653.024.437.014.872-.024 1.314-.055-.426.115-.866.2-1.31.217l-.167.011c-.056.003-.111 0-.167 0l-.334-.002c-.222-.016-.445-.026-.665-.058a7.706 7.706 0 0 1-1.302-.28 6.049 6.049 0 0 1-1.224-.515Zm.18-.584c.411.14.826.258 1.245.36.418.1.84.18 1.265.236.212.035.426.05.64.072.213.011.427.032.642.031.43.017.859-.017 1.294-.043-.42.111-.854.192-1.292.205l-.164.01-.164-.002-.33-.005c-.218-.017-.437-.03-.654-.063a7.695 7.695 0 0 1-1.28-.286 6.038 6.038 0 0 1-1.203-.515Zm.134-.577c.406.139.813.257 1.225.36.411.1.826.183 1.244.242.417.065.839.1 1.26.113.424.022.846-.008 1.276-.03a5.572 5.572 0 0 1-1.274.192l-.162.008-.162-.003c-.108-.003-.216-.003-.324-.008-.215-.018-.43-.034-.644-.067a7.669 7.669 0 0 1-1.258-.293 6.01 6.01 0 0 1-1.18-.514Zm.178-.575c.399.137.8.256 1.204.359a12.9 12.9 0 0 0 1.223.248c.41.069.825.106 1.24.124.417.026.832 0 1.255-.017a7.705 7.705 0 0 1-.309.07l-.155.034-.158.022-.316.038c-.105.007-.212.01-.318.015l-.16.006-.158-.004c-.106-.004-.213-.004-.32-.01-.21-.02-.423-.038-.633-.073a7.695 7.695 0 0 1-1.236-.298 6.008 6.008 0 0 1-1.16-.514Zm.178-.576c.392.135.786.254 1.183.358.398.103.799.19 1.202.255.403.071.81.11 1.22.134l.306.014.308-.001.155.001.154-.008c.103-.005.207-.008.311-.01-.1.023-.202.046-.304.067l-.154.031-.154.02-.312.036-.313.011c-.053.002-.105.005-.157.005l-.157-.006c-.104-.005-.21-.005-.313-.014a7.709 7.709 0 0 1-1.837-.38 6 6 0 0 1-1.139-.514Zm.173-.577c.772.267 1.55.482 2.345.619.395.074.796.116 1.198.144l.302.017.303.002.152.004.152-.007c.101-.004.203-.006.306-.008-.1.023-.2.045-.3.065l-.152.03-.152.018-.307.032-.309.009c-.051 0-.103.004-.154.002l-.154-.006c-.103-.006-.206-.007-.309-.017a7.715 7.715 0 0 1-1.805-.391 5.98 5.98 0 0 1-1.116-.513Zm.182-.58c.759.265 1.523.482 2.303.624.388.078.782.123 1.177.155.396.037.792.027 1.195.022a10.04 10.04 0 0 1-.295.061l-.15.028-.15.017-.302.028-.304.006a2.824 2.824 0 0 1-.304-.008c-.1-.007-.203-.008-.303-.02l-.302-.036c-.1-.013-.2-.033-.3-.05a7.655 7.655 0 0 1-1.17-.315 5.87 5.87 0 0 1-1.095-.512Zm.15-.578c.746.262 1.497.481 2.262.63.381.08.768.127 1.156.165.389.04.778.035 1.175.034a4.873 4.873 0 0 1-1.183.127 6.437 6.437 0 0 1-1.188-.124 7.643 7.643 0 0 1-1.148-.321 5.928 5.928 0 0 1-1.074-.511Zm.178-.579c.733.26 1.47.481 2.22.635.375.083.754.134 1.135.176.382.043.765.045 1.156.048a4.74 4.74 0 0 1-1.165.113 6.377 6.377 0 0 1-1.167-.134 7.642 7.642 0 0 1-1.127-.328 5.9 5.9 0 0 1-1.052-.51Zm.18-.576c.72.256 1.442.479 2.18.638l.275.06.278.048c.093.02.186.029.28.042.093.011.186.03.28.037.375.046.751.054 1.135.062a4.65 4.65 0 0 1-1.147.099 6.351 6.351 0 0 1-1.146-.145 7.644 7.644 0 0 1-1.104-.333 5.89 5.89 0 0 1-1.031-.509Zm.176-.58c.708.255 1.415.48 2.138.645l.27.061.274.05c.09.02.182.032.273.046.092.011.183.032.275.04.368.049.738.063 1.116.075a4.54 4.54 0 0 1-1.13.086 6.32 6.32 0 0 1-1.124-.156 7.662 7.662 0 0 1-1.083-.339 5.863 5.863 0 0 1-1.01-.507Zm.151-.577c.696.251 1.39.478 2.099.648l.265.063.268.053c.088.02.178.035.268.049.09.012.18.033.27.043.36.052.724.073 1.095.09a4.4 4.4 0 0 1-1.111.07 6.34 6.34 0 0 1-1.104-.166 7.677 7.677 0 0 1-1.06-.344 5.867 5.867 0 0 1-.99-.506Zm.177-.579c.683.25 1.362.478 2.057.653l.26.065.262.055c.087.022.175.037.263.052.088.014.176.034.264.046.355.056.71.083 1.075.104a4.332 4.332 0 0 1-1.092.057 6.363 6.363 0 0 1-1.083-.178 7.674 7.674 0 0 1-1.038-.348 5.839 5.839 0 0 1-.968-.506Zm.178-.575c.67.246 1.336.476 2.016.657l.255.067c.085.021.172.037.257.058.085.021.171.039.258.054.086.015.172.035.258.049.347.06.697.093 1.055.119-.353.06-.716.072-1.075.041a6.386 6.386 0 0 1-1.061-.188 7.714 7.714 0 0 1-1.016-.353 5.839 5.839 0 0 1-.947-.504Zm.177-.581c.659.244 1.31.475 1.977.661.166.047.332.092.5.129.168.046.338.071.507.11.34.062.682.102 1.033.133-.347.056-.704.06-1.056.026a6.42 6.42 0 0 1-1.04-.198 7.774 7.774 0 0 1-.994-.358 5.844 5.844 0 0 1-.927-.503Zm.174-.577c.646.241 1.285.474 1.936.665.326.097.655.176.986.249.333.066.668.113 1.012.148-.341.051-.692.05-1.037.011a6.491 6.491 0 0 1-1.019-.209 7.83 7.83 0 0 1-.972-.363 5.82 5.82 0 0 1-.906-.5Zm.182-.575a33.98 33.98 0 0 0 1.896.669c.319.098.64.182.965.258.325.07.653.123.99.164a3.98 3.98 0 0 1-1.018-.004 6.548 6.548 0 0 1-.998-.22 7.866 7.866 0 0 1-.95-.368 5.812 5.812 0 0 1-.885-.499Zm.398-.394.965.289c.32.093.64.19.962.27.321.083.644.16.97.215.327.054.655.095.994.092-.328.09-.675.094-1.014.069a5.837 5.837 0 0 1-1.002-.176 7.975 7.975 0 0 1-.963-.318 6.473 6.473 0 0 1-.912-.44Zm.336-.477.936.304c.31.099.62.2.933.285.311.09.625.172.943.233.317.06.637.106.968.11-.322.082-.662.081-.992.05a5.583 5.583 0 0 1-.976-.193 7.603 7.603 0 0 1-.933-.334 6.185 6.185 0 0 1-.879-.455Zm.332-.479.907.32c.3.104.6.21.904.301.302.094.606.182.915.249.309.065.62.118.943.127-.316.077-.648.07-.97.032a5.33 5.33 0 0 1-.95-.21 7.312 7.312 0 0 1-.903-.35 5.928 5.928 0 0 1-.846-.47Zm.34-.476.877.336c.291.11.581.22.875.317.293.1.588.193.888.265.3.071.602.13.918.145-.31.071-.635.058-.95.014a5.107 5.107 0 0 1-.922-.228 6.958 6.958 0 0 1-.873-.366 5.69 5.69 0 0 1-.813-.483Zm.295-.476.848.351c.282.115.562.232.846.334.283.105.569.204.86.281.29.077.584.14.893.162-.304.066-.622.046-.928-.004a4.88 4.88 0 0 1-.897-.245 6.684 6.684 0 0 1-.843-.382 5.437 5.437 0 0 1-.78-.497Zm.338-.473.819.367c.271.12.541.242.816.349.274.11.55.215.832.298.282.082.567.152.868.18-.297.06-.608.033-.907-.023a4.668 4.668 0 0 1-.87-.263 6.428 6.428 0 0 1-.813-.398 5.22 5.22 0 0 1-.745-.51Zm.336-.479.79.382c.261.125.522.252.787.365.264.116.53.226.803.315a4.3 4.3 0 0 0 .844.197c-.292.053-.596.02-.886-.041a4.47 4.47 0 0 1-.844-.281 6.128 6.128 0 0 1-.782-.414 5.03 5.03 0 0 1-.712-.523Zm.308-.48.76.398c.253.13.503.262.76.38.253.122.51.237.774.332.265.094.533.175.82.214-.287.048-.584.009-.867-.06a4.284 4.284 0 0 1-.817-.298 7.66 7.66 0 0 1-.384-.201c-.124-.075-.25-.146-.368-.229-.24-.16-.47-.334-.678-.536Zm.339-.475.73.412c.242.137.483.273.73.397.244.127.492.247.747.348.255.1.515.187.795.232-.282.042-.572-.004-.847-.079a4.095 4.095 0 0 1-.79-.317 7.398 7.398 0 0 1-.37-.209c-.119-.077-.239-.151-.352-.236a4.635 4.635 0 0 1-.644-.548Zm.292-.475c.238.141.47.285.702.428.232.141.463.283.7.412.234.133.473.258.719.364.247.106.498.2.77.25-.276.037-.56-.017-.826-.098-.135-.038-.263-.094-.392-.147a5.615 5.615 0 0 1-.373-.188 7.102 7.102 0 0 1-.354-.217c-.113-.08-.228-.157-.336-.244a4.474 4.474 0 0 1-.61-.56Zm.336-.475c.228.147.45.296.672.443.223.147.444.294.67.428.226.138.455.269.692.381.238.112.48.212.746.268-.272.03-.549-.03-.807-.118-.131-.041-.255-.1-.38-.157a5.623 5.623 0 0 1-.358-.197 6.887 6.887 0 0 1-.34-.225c-.108-.082-.217-.161-.32-.25a4.328 4.328 0 0 1-.575-.573Zm.334-.479c.437.302.85.619 1.284.901.215.144.435.28.663.398.23.117.463.223.722.286-.267.024-.538-.044-.788-.138-.128-.045-.246-.108-.367-.167a5.466 5.466 0 0 1-.344-.206 6.583 6.583 0 0 1-.325-.233c-.102-.085-.207-.167-.304-.258a4.178 4.178 0 0 1-.541-.583Z"/><path fill="#fff" d="M50.713 25.125c.258-.36.597-.658.952-.924a7.13 7.13 0 0 1 1.148-.687c.201-.097.41-.177.617-.263.102-.046.21-.074.316-.11l.32-.104.16-.05c.053-.016.108-.026.162-.04l.326-.074.327-.075c.11-.021.22-.035.33-.053.221-.03.442-.063.663-.088l.666-.04c.111-.006.222-.013.333-.015l.333.007c.222.004.444.011.666.02.441.031.88.092 1.318.145.434.087.867.173 1.294.277-.442-.013-.879-.045-1.314-.075l-.655-.011c-.218-.001-.435-.02-.653-.013a27.3 27.3 0 0 1-.65.02l-.326.007c-.108.007-.215.02-.323.029l-.647.052c-.214.027-.426.064-.64.095-.106.015-.214.026-.32.046l-.316.067c-.21.048-.424.082-.629.146l-.311.086c-.103.03-.21.052-.31.092l-.303.109c-.101.036-.207.064-.305.109a9.097 9.097 0 0 0-1.166.56 5.808 5.808 0 0 0-1.063.755Zm2.722 13.081s1.345-1.577 2.482.155c1.138 1.732-.355 2.366-.355 2.366s.504-1.422-.375-2.308c-.879-.885-1.752-.213-1.752-.213Zm2.46 5.552s1.35 1.642 2.042 2.204c.692.563.71 1.913-.24 2.165-.95.253-1.428-.4-1.428-.4s2.301-.272 1.119-1.28c-1.183-1.008-1.493-2.689-1.493-2.689Z"/></svg>