<svg xmlns="http://www.w3.org/2000/svg" width="66" height="32" fill="none"><g clip-path="url(#a)"><mask id="b" width="323" height="158" x="-128" y="-63" maskUnits="userSpaceOnUse" style="mask-type:luminance"><path fill="#fff" d="M-127.588 94.802h321.837V-62.802h-321.837V94.802Z"/></mask><g mask="url(#b)"><path fill="#fff" d="M64.848 17.89c-.417-.317-.486-.365-2.994-1.194 2.173-.536 2.266-.594 2.651-.848.872-.593 1.338-1.577 1.27-2.643l-.008-.116c-.177-1.711-2.373-4.94-3.852-5.664-.975-.467-2.06-.401-2.913.175-.403.267-.456.303-2.107 2.566-.161-2.644-.471-7.305-.547-7.741l-.016-.1-.025-.097c-.282-1.024-1.083-1.793-2.142-2.06-1.77-.443-6.448.88-7.703 2.18-.737.771-1.02 1.81-.766 2.785l.052.194.086.18c.12.248.437.775 3.152 5.05l1.001 1.583c-2.43-.998-2.527-1.001-3.03-1.006-.958-.042-1.919.473-2.497 1.382l-.01.017c-.299.482-.483 1.138-.598 1.825-.783-1.06-1.962-1.909-3.75-2.26-1.266-.256-2.455-.102-3.575.352-1.026-.657-2.435-.733-3.614-.058a2.974 2.974 0 0 0-.85.72V11.66l-.113-.863-.034-.155c-.237-.935-.94-1.724-1.883-2.112l-.008-.004c-1.034-.42-2.194-.32-3.178.272-1.048.621-1.585 1.653-1.585 3.063v2.96a5.82 5.82 0 0 0-1.381-1.505c-1.472-1.12-3.446-1.498-5.705-1.09-1.31.227-2.405.801-3.273 1.643l-.042-.087c-.44-.792-1.156-1.337-2.072-1.578-1.53-.421-3.472.1-4.273 2.847l-.308 1.05c-.351-.647-1.26-2.411-1.298-2.464-.82-1.247-2.461-1.787-3.929-1.202-1.418.536-2.239 1.789-2.239 3.26 0 .465.08.948.25 1.439l.04.12 3.758 7.68c-1.355.358-2.32 1.373-2.477 2.764a3.19 3.19 0 0 0 1.012 2.748c1.02.944 2.603 1.256 4.462.874 2.02-.398 3.182-1.62 3.996-4.212l1.24-3.908c.403 1.646 1.136 2.72 1.833 3.41 1 .993 2.834 2.092 5.869 1.681 2.255-.317 3.816-1.33 4.659-2.52l.055.287c.24.85.893 1.604 1.77 2.006a3.429 3.429 0 0 0 2.911-.02 3.096 3.096 0 0 0 1.219-.965v1.232c0 2.036 1.174 2.901 1.873 3.237a3.498 3.498 0 0 0 2.958.083c.899-.39 1.566-1.135 1.828-2.038l.04-.139.123-.84v-.36c1.22.124 2.493-.075 3.614-.659a6.032 6.032 0 0 0 1.316-.926h.824c.449.236.958.384 1.506.384.55 0 1.06-.148 1.507-.384h2.389c1.582.893 3.895 1.57 5.133 1.357 1.066-.19 1.906-.878 2.261-1.844l.019-.049c.15-.439.174-.52.185-3.003 1.356 2.199 1.427 2.257 1.808 2.559.818.64 1.894.781 2.888.38 1.595-.643 4.032-3.753 4.277-5.46.02-.148.032-.299.032-.446 0-.894-.384-1.722-1.072-2.273Zm-24.754-5.795c.003.002.005.002.008.002.003.002.005.002.008.002l-.016-.004Zm21.519 13.974h-.002c-.003 0-.005.003-.008.004l.01-.004Z"/><path stroke="#BDBCBC" stroke-linecap="round" stroke-linejoin="round" stroke-width=".992" d="M64.848 17.89c-.417-.317-.486-.365-2.994-1.194 2.173-.536 2.266-.594 2.651-.848.872-.593 1.338-1.577 1.27-2.643l-.008-.116c-.177-1.711-2.373-4.94-3.852-5.664-.975-.467-2.06-.401-2.913.175-.403.267-.456.303-2.107 2.566-.161-2.644-.471-7.305-.547-7.741l-.016-.1-.025-.097c-.282-1.024-1.083-1.793-2.142-2.06-1.77-.443-6.448.88-7.703 2.18-.737.771-1.02 1.81-.766 2.785l.052.194.086.18c.12.248.437.775 3.152 5.05l1.001 1.583c-2.43-.998-2.527-1.001-3.03-1.006-.958-.042-1.919.473-2.497 1.382l-.01.017c-.299.482-.483 1.138-.598 1.825-.783-1.06-1.962-1.909-3.75-2.26-1.266-.256-2.455-.102-3.575.352-1.026-.657-2.435-.733-3.614-.058a2.974 2.974 0 0 0-.85.72V11.66l-.113-.863-.034-.155c-.237-.935-.94-1.724-1.883-2.112l-.008-.004c-1.034-.42-2.194-.32-3.178.272-1.048.621-1.585 1.653-1.585 3.063v2.96a5.82 5.82 0 0 0-1.381-1.505c-1.472-1.12-3.446-1.498-5.705-1.09-1.31.227-2.405.801-3.273 1.643l-.042-.087c-.44-.792-1.156-1.337-2.072-1.578-1.53-.421-3.472.1-4.273 2.847l-.308 1.05c-.351-.647-1.26-2.411-1.298-2.464-.82-1.247-2.461-1.787-3.929-1.202-1.418.536-2.239 1.789-2.239 3.26 0 .465.08.948.25 1.439l.04.12 3.758 7.68c-1.355.358-2.32 1.373-2.477 2.764a3.19 3.19 0 0 0 1.012 2.748c1.02.944 2.603 1.256 4.462.874 2.02-.398 3.182-1.62 3.996-4.212l1.24-3.908c.403 1.646 1.136 2.72 1.833 3.41 1 .993 2.834 2.092 5.869 1.681 2.255-.317 3.816-1.33 4.659-2.52l.055.287c.24.85.893 1.604 1.77 2.006a3.429 3.429 0 0 0 2.911-.02 3.096 3.096 0 0 0 1.219-.965v1.232c0 2.036 1.174 2.901 1.873 3.237a3.498 3.498 0 0 0 2.958.083c.899-.39 1.566-1.135 1.828-2.038l.04-.139.123-.84v-.36c1.22.124 2.493-.075 3.614-.659a6.032 6.032 0 0 0 1.316-.926h.824c.449.236.958.384 1.506.384.55 0 1.06-.148 1.507-.384h2.389c1.582.893 3.895 1.57 5.133 1.357 1.066-.19 1.906-.878 2.261-1.844l.019-.049c.15-.439.174-.52.185-3.003 1.356 2.199 1.427 2.257 1.808 2.559.818.64 1.894.781 2.888.38 1.595-.643 4.032-3.753 4.277-5.46.02-.148.032-.299.032-.446 0-.894-.384-1.722-1.072-2.273Z"/><path stroke="#BDBCBC" stroke-linecap="round" stroke-linejoin="round" stroke-width=".992" d="m40.094 12.095.008.002c.004.002.005.003.009.003l-.017-.005Zm21.52 13.974h-.003c-.003 0-.004.003-.007.004l.01-.004Z"/></g><path fill="#E9E9E9" d="M45.874 14.442c-.388.622-.55 2.578-.416 3.877.047.428.123.786.238.998.154.296.414.473.71.483.188.01.307-.022 3.877-1.177 0 0 1.587-.506 1.595-.51.393-.102.661-.466.687-.932.025-.48-.222-.9-.626-1.053l-1.12-.459c-3.838-1.589-4.009-1.65-4.204-1.651-.295-.014-.558.138-.741.424Zm8.581 11.835c.063-.18.07-.304.08-4.069 0 0 .009-1.663.012-1.681.024-.405-.238-.778-.67-.945-.442-.172-.92-.067-1.19.27 0 0-.78.93-.783.93-2.687 3.172-2.8 3.316-2.865 3.506a.753.753 0 0 0-.044.344.902.902 0 0 0 .22.487c.622.746 3.611 1.85 4.564 1.686.331-.06.574-.25.676-.528Zm6.061-1.31c.904-.36 2.87-2.872 3.008-3.836.047-.338-.057-.626-.288-.812-.15-.114-.269-.159-3.833-1.334 0 0-1.568-.52-1.585-.528-.38-.149-.812-.012-1.103.349-.302.37-.35.855-.106 1.224l.63 1.028c2.119 3.454 2.278 3.698 2.43 3.819.237.184.538.217.847.09Zm-1.84-8.89c4.055-.984 4.21-1.035 4.372-1.14.245-.169.367-.444.346-.786v-.033c-.105-.998-1.848-3.599-2.707-4.02-.306-.146-.61-.136-.862.032-.157.105-.273.256-2.443 3.238 0 0-.981 1.342-.993 1.354-.258.314-.262.768-.01 1.156.26.402.704.598 1.11.485l-.022.034c.199-.076.56-.164 1.21-.32Zm-4.072-3.36c-.07-1.613-.553-8.794-.61-9.125-.082-.304-.317-.518-.655-.603-1.033-.259-4.99.856-5.723 1.615-.234.245-.322.55-.252.82.114.236 5.016 7.977 5.016 7.977.725 1.18 1.316.996 1.51.935.193-.06.78-.244.714-1.619Z"/><path fill="#BF2519" d="M46.198 13.628c-.386.621-.55 2.577-.415 3.876.047.428.124.786.237 1 .154.294.414.47.71.48.19.01.308-.022 3.878-1.174 0 0 1.587-.508 1.593-.512.396-.1.662-.466.688-.932.026-.478-.22-.9-.626-1.053l-1.12-.458c-3.837-1.588-4.01-1.65-4.203-1.652-.296-.012-.559.137-.742.425ZM54.78 25.46c.062-.18.07-.305.08-4.069l.01-1.68c.026-.408-.237-.78-.667-.945-.443-.171-.92-.066-1.189.27 0 0-.783.932-.785.932-2.687 3.168-2.8 3.315-2.865 3.502a.772.772 0 0 0-.043.346.925.925 0 0 0 .217.489c.624.743 3.612 1.846 4.567 1.683.332-.06.573-.248.675-.528Zm6.063-1.31c.901-.361 2.867-2.87 3.005-3.837.049-.336-.056-.625-.287-.81-.152-.115-.266-.159-3.834-1.335 0 0-1.566-.519-1.586-.528-.379-.148-.811-.01-1.102.349-.302.369-.347.857-.106 1.225l.63 1.03c2.117 3.451 2.28 3.696 2.432 3.815.236.186.536.217.848.09ZM59 15.263c4.055-.986 4.212-1.038 4.372-1.143.245-.166.369-.444.347-.782 0-.01.003-.022 0-.034-.104-1-1.848-3.599-2.707-4.02-.305-.147-.61-.138-.863.032-.156.103-.271.258-2.443 3.238 0 0-.98 1.34-.992 1.354-.258.315-.263.768-.01 1.155.262.402.704.598 1.11.485l-.02.034c.199-.075.556-.164 1.206-.319Zm-4.07-3.36c-.07-1.613-.553-8.795-.61-9.127-.082-.302-.317-.517-.654-.602-1.035-.258-4.991.854-5.724 1.614-.236.246-.323.55-.252.819.116.238 5.017 7.978 5.017 7.978.724 1.18 1.316.997 1.51.935.192-.06.78-.242.713-1.617Z"/><path fill="#231F20" d="M4.72 28.926c.511.475 1.479.61 2.654.37 1.102-.219 1.786-.713 2.443-2.812l3.275-10.328c.17-.548.157-1.024-.037-1.377-.158-.284-.42-.477-.792-.576-.584-.16-1.312-.144-1.771 1.43l-1.719 5.859s-3.5-6.638-3.502-6.639c-.221-.443-.87-.76-1.53-.498-.86.328-1.146 1.105-.803 2.105 0 0 4.258 8.697 4.268 8.72 0 0 .116.31.116.361 0 0 .038.236.038.245-.008.334-.12.616-.32.805-.195.185-.468.282-.787.27 0 0-.664-.016-.714-.016-.682.084-1.112.477-1.18 1.084a1.12 1.12 0 0 0 .361.997Zm16.778-9.793h-4.56c-.123-.09-.183-.242-.091-.698.058-.24.12-.456.303-.757.059-.09.12-.183.179-.276a2.292 2.292 0 0 1 1.299-.815c1.603-.393 2.72.424 2.902 1.819.087.608.03.727-.032.727Zm2.802-.796c-.147-1.493-.721-2.658-1.662-3.371-1.002-.764-2.42-1.007-4.1-.706-2.104.366-3.368 1.876-3.657 4.372-.357 2.983.133 5.232 1.419 6.503.97.962 2.404 1.344 4.149 1.107 2.487-.351 3.606-1.722 3.606-2.588 0-.638-.384-1.14-.948-1.216-.323-.065-.596 0-1.199.542-.869.76-1.876 1.066-2.768.838a2.07 2.07 0 0 1-1.452-1.289s-.107-.426-.1-.379c-.074-.384-.107-.765.129-.92l.063-.043h5.465c.504 0 .76-.066.907-.226.3-.334.276-1.29.148-2.624Zm4.954-7.893c-.433-.176-.92-.129-1.349.127-.412.245-.583.617-.583 1.29V24.94s.072.468.08.488c.091.326.332.604.665.756.37.172.797.169 1.18-.011.474-.207.755-.684.755-1.275V11.794s-.083-.633-.083-.644c-.076-.304-.326-.567-.665-.706Zm10.311 13.284c-1.804 0-2.091-1.608-2.148-2.821a52.89 52.89 0 0 1-.024-.71l.02-.547c.117-2.1.55-2.927 1.654-3.158.74-.172 1.307-.088 1.732.255.638.516.92 1.608.894 3.43-.019 2.133-.389 3.55-2.127 3.55Zm.134-9.602c-1.209-.248-2.243-.04-3.237.636 0 0-.112.09-.155.116l-.089.046-.272.122-.078-.307-.065-.11-.022-.07-.008-.02-.076-.103c-.285-.446-1.061-.65-1.76-.25-.343.195-.539.47-.539 1.289V28.31c0 .704.22 1.14.7 1.371.406.205.862.22 1.254.052.332-.147.577-.405.668-.72l.08-.55v-2.221l-.023-.357.01-.106.013-.05.132-.424.4.267s.101.067.144.112l.12.08.14.082.128.062c1.073.508 2.509.45 3.664-.149 1.455-.762 2.173-2.114 2.34-4.385.347-4.538-.693-6.707-3.469-7.248Zm5.607 10.606h.149c.121 0 .235-.006.235-.143 0-.123-.104-.135-.197-.135h-.187v.278Zm-.123-.388h.32c.21 0 .307.076.307.25 0 .158-.1.223-.23.237l.252.387H45.7l-.239-.376h-.155v.376h-.123v-.874Zm.283 1.076a.635.635 0 0 0 .637-.648.634.634 0 0 0-.637-.642.636.636 0 0 0-.639.65.636.636 0 0 0 .639.64Zm0-1.4c.412 0 .758.326.758.752a.753.753 0 0 1-.758.758.75.75 0 0 1-.759-.75c0-.434.346-.76.759-.76Z"/></g><defs><clipPath id="a"><path fill="#fff" d="M.666 0h65.333v32H.666z"/></clipPath></defs></svg>