<svg xmlns="http://www.w3.org/2000/svg" width="55" height="72" fill="none"><path fill="#EE9D06" d="m54.187 64.106-8.223 1.09L41.219 72l-8.797-14.645L45.39 49.46l8.797 14.645Zm-52.371 0 8.224 1.09L14.785 72l8.796-14.645-12.968-7.894-8.797 14.645Z"/><path fill="#142F45" d="M54.853 47.403V15.8L27.485 0 .117 15.8v31.602l27.368 15.8 27.368-15.8Z"/><path stroke="#F4D350" stroke-miterlimit="10" stroke-width=".422" d="M52.775 46.203V17L27.485 2.4 2.195 17v29.203l25.29 14.6 25.29-14.6Z"/><mask id="a" width="55" height="64" x="0" y="0" maskUnits="userSpaceOnUse" style="mask-type:luminance"><path fill="#fff" d="M54.855 47.403V15.8L27.487 0 .119 15.8v31.602l27.368 15.8 27.368-15.8Z"/></mask><g fill="#6E8ED6" fill-opacity=".5" mask="url(#a)" opacity=".45"><path d="M2.018-2.238H-.087V70.4H2.02V-2.24Zm5.686 0H5.598V70.4h2.106V-2.24Zm5.682 0h-2.107V70.4h2.107V-2.24Zm5.681 0h-2.106V70.4h2.106V-2.24Zm5.683 0h-2.105V70.4h2.106V-2.24Zm5.683 0h-2.107V70.4h2.107V-2.24Zm5.681 0h-2.106V70.4h2.106V-2.24Zm5.686 0h-2.107V70.4H41.8V-2.24Zm5.681 0h-2.106V70.4h2.106V-2.24Zm4.42 0h-2.106V70.4H51.9V-2.24Zm4.42 0h-2.106V70.4h2.106V-2.24Z" opacity=".4"/></g><path fill="#E2E7E9" d="m13.291 42.748 22.186.283.013-1.006-22.186-.282-.948-.818-3.321.655-.008.611-.007.612 3.303.739.968-.794Z"/><path fill="#E3A349" d="m31.135 40.39-.423-.005c-.512-.007-.723-.888-1.335-.896-.612-.008-.83.078-.84.824-.008.745-.024 1.942-.024 1.942l-.024 1.943c-.01.746.205.837.817.844.613.008.846-.868 1.358-.861.134.002.09 0 .423.005.457.006.69.887 1.192.894l10.973.14c1.532.019 1.894-.838 1.918-2.753.024-1.915-.316-2.781-1.848-2.8l-10.973-.14c-.501-.007-.757.868-1.214.863Z"/><path fill="#F3D34F" d="M43.628 43.643a.484.484 0 0 1 .478.49v.038a.484.484 0 0 1-.49.477l-10.383-.132a.484.484 0 0 1-.477-.49v-.038a.484.484 0 0 1 .49-.477l10.382.132ZM43.65 42c.267.004.48.223.477.49v.038a.484.484 0 0 1-.49.478l-10.382-.132a.484.484 0 0 1-.478-.49v-.038a.484.484 0 0 1 .49-.478L43.65 42Zm.023-1.753c.267.003.48.223.477.49v.038a.484.484 0 0 1-.49.477l-10.382-.132a.484.484 0 0 1-.477-.49v-.037a.484.484 0 0 1 .49-.478l10.382.132Zm-14.258-.949c.4.006.722.334.717.735l-.057 4.483a.725.725 0 0 1-.735.716l-.217-.002a.726.726 0 0 1-.717-.735l.057-4.483a.725.725 0 0 1 .735-.716l.217.002ZM30.77 13.56l-.111-.023a3.144 3.144 0 0 0-.125-.324 1.193 1.193 0 0 0-.04-.08 1.753 1.753 0 0 0-.04-.087l.502-.769-.552-.551-.55-.551-.673.44-.096.063c-.02-.011-.042-.02-.063-.03l-.052-.029c-.012-.006-.026-.01-.038-.015a3.194 3.194 0 0 0-.23-.091c-.019-.008-.038-.017-.058-.024l-.03-.009-.02-.007-.024-.11-.164-.787h-1.56l-.164.786-.023.11c-.17.055-.334.125-.491.206l-.097-.063-.672-.44-.551.551-.551.551.44.673.063.096c-.082.157-.151.32-.206.49l-.11.024-.787.165v1.559l.787.164.11.024.016.04c.006.02.011.041.018.06.006.018.015.034.022.05.036.098.078.193.123.286.007.014.012.03.02.043.001.005.004.008.006.013l-.062.095-.44.672.551.552.551.55.673-.439.096-.063c.05.026.1.05.15.073.015.006.028.014.042.02l.01.004c.022.01.044.018.067.027.064.026.13.05.196.072l.026.01.188.897h1.559l.188-.897a3.21 3.21 0 0 0 .49-.206l.097.063.673.44.55-.551.552-.551-.503-.769c.082-.157.151-.32.206-.491l.11-.023.787-.165v-1.56l-.787-.164Zm-3.143 2.427a1.482 1.482 0 1 1 0-2.965 1.482 1.482 0 0 1 0 2.965ZM21.32 13.97l-.062-.014a1.812 1.812 0 0 0-.07-.183l-.023-.046-.024-.05.285-.435-.312-.313-.312-.312-.381.25-.055.035-.036-.017-.03-.016-.02-.01a1.838 1.838 0 0 0-.13-.051c-.012-.004-.022-.01-.034-.013l-.017-.005-.011-.005-.014-.063-.093-.445h-.884l-.093.446-.013.062c-.097.031-.19.07-.278.117l-.055-.036-.381-.25-.312.313-.313.312.25.382.035.054a1.804 1.804 0 0 0-.116.278l-.063.014-.445.093v.883l.445.094.063.013.009.024c.004.01.006.023.01.034.003.01.009.018.012.028.021.055.045.11.07.162l.011.024.004.007-.036.054-.249.381.313.313.312.312.381-.25.055-.035c.027.015.056.028.085.041l.023.012a.28.28 0 0 1 .005.002l.039.015a1.114 1.114 0 0 0 .126.046l.106.509h.884l.106-.509c.097-.03.19-.07.279-.116l.054.036.381.25.313-.313.312-.313-.285-.436c.046-.088.086-.181.116-.278l.063-.013.446-.094v-.883l-.445-.093Zm-1.781 1.375a.84.84 0 1 1 0-1.68.84.84 0 0 1 0 1.68ZM37.21 13.97l-.064-.014a1.836 1.836 0 0 0-.07-.183l-.022-.046-.024-.05.285-.435-.312-.313-.313-.312-.38.25-.055.035-.036-.017-.03-.016-.021-.01a1.877 1.877 0 0 0-.13-.051c-.01-.004-.022-.01-.033-.013l-.018-.005-.01-.005-.014-.063-.093-.445h-.884l-.093.446-.013.062c-.097.031-.19.07-.279.117l-.054-.036-.381-.25-.313.313-.312.312.25.382.035.054a1.805 1.805 0 0 0-.116.278l-.063.014-.446.093v.883l.446.094.063.013.008.024c.004.01.007.023.01.034.004.01.01.018.013.028.021.055.044.11.07.162l.01.024.005.007-.036.054-.249.381.312.313.313.312.38-.25.055-.035c.028.015.056.028.085.041l.024.012.005.002.039.015a1.114 1.114 0 0 0 .126.046l.106.509h.884l.106-.509c.097-.03.19-.07.279-.116l.054.036.381.25.313-.313.312-.313-.285-.436a1.75 1.75 0 0 0 .116-.278l.063-.013.446-.094v-.883l-.446-.093Zm-1.782 1.375a.84.84 0 1 1 0-1.681.84.84 0 0 1 0 1.68Z"/><path fill="#fff" d="M13.125 38.911c-.746 0-1.363-.098-1.85-.294-.487-.2-.876-.468-1.167-.801l-.3.924h-1.62v-3.157h2.197c.075.455.303.83.684 1.125.38.29.862.436 1.443.436.318 0 .564-.063.737-.189a.627.627 0 0 0 .259-.53.62.62 0 0 0-.289-.554 2.325 2.325 0 0 0-.766-.294c-.318-.071-.667-.14-1.048-.206a9.293 9.293 0 0 1-1.143-.278 3.63 3.63 0 0 1-1.05-.518 2.446 2.446 0 0 1-.765-.925c-.193-.393-.289-.895-.289-1.508 0-.593.142-1.112.424-1.556.287-.443.698-.79 1.232-1.037.534-.247 1.174-.37 1.92-.37.668 0 1.226.096 1.674.288.447.193.813.466 1.096.819l.3-.925h1.62v3.04H14.18c-.114-.467-.342-.827-.684-1.078a1.92 1.92 0 0 0-1.178-.377c-.318 0-.572.06-.76.182a.579.579 0 0 0-.283.525c0 .216.096.38.289.495.192.114.447.206.765.277.319.07.668.143 1.05.218.38.074.761.176 1.142.306.381.13.73.312 1.049.548.318.232.573.542.766.93.192.39.289.883.289 1.48 0 .934-.31 1.669-.931 2.203-.62.534-1.477.801-2.57.801Zm3.953-.17v-2.033h.855l1.761-5.314h-1.267V29.36h5.821l2.204 7.347h.854v2.032h-5.285v-2.032h.972l-.27-1.031h-2.428l-.306 1.03h.972v2.033h-3.883Zm3.653-4.537h1.603l-.749-2.863-.854 2.863Zm7.082 4.536v-2.032h.943v-5.314h-.943V29.36h5.302v2.033H31.82v5.343h1.92l.236-2.197h1.945v4.2h-8.107Zm8.755 0v-2.032h.943v-5.314h-.943V29.36h8.342v3.73h-1.944l-.206-1.727h-2.257v1.59h1.591v2.004h-1.59v1.78h2.256l.206-1.986h1.944v3.988h-8.342ZM9.464 24.183v-3.711h.858v3.011h1.862v.7h-2.72Zm2.732 0 1.655-3.711h.848l1.66 3.711h-.902L14.1 20.907h.34l-1.364 3.276h-.88Zm.827-.795.228-.652h1.91l.232.652h-2.37Zm3.72.795v-3.711h1.814c.466 0 .816.088 1.05.265.236.177.355.41.355.7a.904.904 0 0 1-.143.509.945.945 0 0 1-.393.329 1.336 1.336 0 0 1-.572.116l.1-.217c.234 0 .44.039.62.117a.9.9 0 0 1 .42.334.94.94 0 0 1 .154.546.87.87 0 0 1-.377.747c-.251.177-.62.265-1.108.265h-1.92Zm.854-.646H18.6c.223 0 .39-.036.504-.107.117-.074.175-.19.175-.35 0-.155-.058-.27-.175-.344-.113-.078-.281-.117-.504-.117h-1.066v-.625h.918c.208 0 .367-.036.477-.107a.373.373 0 0 0 .17-.334.355.355 0 0 0-.17-.323c-.11-.074-.269-.111-.477-.111h-.854v2.418Zm5.003.71c-.293 0-.565-.048-.816-.143a1.96 1.96 0 0 1-.647-.403 1.892 1.892 0 0 1-.424-.61 1.934 1.934 0 0 1-.149-.763c0-.276.05-.53.149-.764.102-.233.246-.436.43-.61.183-.173.399-.307.646-.403.248-.095.516-.143.806-.143.294 0 .562.048.806.143a1.903 1.903 0 0 1 1.071 1.013c.103.23.154.484.154.764a1.854 1.854 0 0 1-.583 1.379c-.18.169-.395.301-.642.397-.244.095-.51.143-.8.143Zm-.005-.732c.166 0 .318-.028.456-.085a1.095 1.095 0 0 0 .615-.62c.06-.145.09-.306.09-.482 0-.177-.03-.338-.09-.483a1.083 1.083 0 0 0-.61-.62 1.23 1.23 0 0 0-.46-.085c-.167 0-.32.028-.462.085a1.146 1.146 0 0 0-.616.62 1.319 1.319 0 0 0-.084.483c0 .173.028.334.085.482.06.145.141.27.244.377.106.106.23.187.37.243.142.057.296.085.462.085Zm4.325.732c-.526 0-.938-.147-1.235-.44-.297-.293-.445-.712-.445-1.257v-2.078h.859v2.046c0 .354.072.608.217.764.145.155.348.233.61.233.261 0 .464-.078.61-.233.144-.155.217-.41.217-.764v-2.046h.848v2.078c0 .545-.148.963-.445 1.257-.297.293-.709.44-1.236.44Zm2.53-.064v-3.711h1.606c.333 0 .619.055.86.164.24.106.425.26.556.462.13.201.196.441.196.72 0 .276-.065.515-.196.716-.13.198-.316.35-.557.456-.24.106-.526.16-.859.16h-1.129l.382-.377v1.41h-.86Zm2.36 0-.929-1.346h.918l.938 1.346h-.928Zm-1.501-1.315-.382-.402h1.082c.265 0 .463-.057.593-.17a.607.607 0 0 0 .197-.477c0-.205-.066-.364-.197-.478-.13-.113-.328-.17-.593-.17h-1.082l.382-.407v2.104Zm4.541 1.315v-3.711h1.686c.403 0 .759.078 1.066.233.308.152.548.366.721.642.173.275.26.602.26.98 0 .375-.087.702-.26.981a1.78 1.78 0 0 1-.72.647 2.375 2.375 0 0 1-1.067.228H34.85Zm.86-.705h.784a1.4 1.4 0 0 0 .642-.138c.183-.095.325-.23.424-.403.102-.173.154-.376.154-.61 0-.236-.052-.44-.154-.61a.983.983 0 0 0-.425-.397 1.353 1.353 0 0 0-.641-.143h-.785v2.301Zm2.981.705 1.654-3.711h.849l1.66 3.711h-.902l-1.357-3.276h.339l-1.363 3.276h-.88Zm.827-.795.228-.652h1.91l.232.652h-2.37Zm4.415.795v-1.516l.196.52-1.633-2.715h.912l1.252 2.084h-.525l1.256-2.084h.843l-1.633 2.715.191-.52v1.516h-.859Z"/></svg>