<svg xmlns="http://www.w3.org/2000/svg" width="94" height="32" fill="none"><g clip-path="url(#a)"><path fill="url(#b)" d="M15.065 15.55h4.015v5.638c-1.253.403-2.835.623-4.48.623-6.664 0-10.582-5.705-10.582-11.278 0-5.465 3.544-9.299 8.487-9.299 3.128 0 4.948 1.06 6.576 2.535v1.84l3.053-3.052C20.204 1.25 17.407.009 13.41.009 4.636.01.625 6.285.625 11.442c0 7.34 5.348 11.763 12.07 11.763 3.258 0 6.152-.498 9.494-1.427v-5.826c0-.297.131-.502.327-.681l1.055-1.055h-7.163l-1.344 1.334Z"/><path fill="url(#c)" d="M33.053 7.887c-5.05 0-8.18 3.69-8.18 7.605 0 3.38 2.521 7.394 7.629 7.394 4.913 0 7.927-3.697 7.927-7.681 0-3.712-2.946-7.316-7.376-7.316v-.002Zm-.838 1.076c3.56 0 5.146 4.637 5.146 7.945 0 4.92-3.691 5.017-4.133 5.017-1.689 0-2.87-1.021-3.753-2.36-.778-1.233-1.539-3.526-1.539-5.765 0-2.231.73-3.32 1.88-4.122.94-.6 1.82-.715 2.398-.715Z"/><path fill="url(#d)" d="M66.067 7.886c-4.41 0-6.797 2.792-6.797 5.91 0 2.372 1.7 5.05 5.209 5.05h.888s-.242.586-.243 1.153c0 .837.3 1.306.938 2.03-6.036.367-8.462 2.801-8.462 5.417 0 2.291 2.194 4.546 6.805 4.546 5.46 0 8.287-3.03 8.287-6.004 0-2.096-1.044-3.245-3.69-5.227-.778-.604-.929-.99-.929-1.442 0-.648.388-1.077.53-1.239.25-.264.684-.566.847-.71.888-.753 2.144-1.867 2.144-4.09 0-1.526-.635-2.838-2.08-4.067h1.764l1.327-1.326h-6.538Zm-1.216.992c.8 0 1.468.283 2.174.87.783.706 2.033 2.601 2.033 4.947 0 2.531-1.967 3.224-3.032 3.224a3.027 3.027 0 0 1-1.674-.507c-1.174-.761-2.34-2.788-2.34-5.2 0-2.176 1.296-3.334 2.839-3.334Zm1.746 14.111c.337 0 .579.028.579.028s.794.567 1.349.99c1.291 1.021 2.097 1.801 2.097 3.191 0 1.91-1.773 3.409-4.644 3.409-3.152 0-5.56-1.467-5.56-3.862 0-1.985 1.65-3.692 6.18-3.756Z"/><path fill="url(#e)" d="M73.56 22.448h6.056l.922-.922-1.736-.217a.854.854 0 0 1-.746-.852V2.172c0-.36.167-.545.29-.662l1.09-1.092h-5.163L72.93 1.762h2.007v18.94a.84.84 0 0 1-.267.64l-1.11 1.106Z"/><path fill="url(#f)" d="M87.82 7.887c-3.38 0-6.972 2.576-6.972 7.202 0 3.82 2.577 7.797 7.391 7.797 1.201 0 2.19-.155 3.116-.58a7.033 7.033 0 0 0 2.648-2.134c-1.318.665-2.392 1.1-3.82 1.1-2.713 0-5.329-1.956-6.244-5.553l9.584-3.872c-.554-1.973-2.115-3.96-5.701-3.96h-.002Zm-.625 1.058c1.814 0 3.125 1.492 3.125 2.66 0 .378-.237.577-.706.761l-5.89 2.382s-.16-.741-.16-1.543c0-3.361 2.431-4.26 3.63-4.26Z"/><path fill="url(#g)" d="M50.191 7.887c-5.05 0-8.18 3.69-8.18 7.605 0 3.38 2.522 7.394 7.63 7.394 4.913 0 7.927-3.697 7.927-7.681 0-3.712-2.946-7.316-7.377-7.316v-.002Zm-.838 1.076c3.561 0 5.147 4.637 5.147 7.945 0 4.92-3.692 5.017-4.133 5.017-1.69 0-2.87-1.021-3.754-2.36-.778-1.233-1.538-3.526-1.538-5.765 0-2.231.73-3.32 1.88-4.122.94-.6 1.82-.715 2.397-.715h.002Z"/></g><defs><linearGradient id="b" x1="12.041" x2="12.041" y1="-.056" y2="23.203" gradientUnits="userSpaceOnUse"><stop stop-color="#196EEF"/><stop offset=".5" stop-color="#186DEE"/><stop offset="1" stop-color="#1065E7"/></linearGradient><linearGradient id="c" x1="32.595" x2="32.595" y1="7.852" y2="22.892" gradientUnits="userSpaceOnUse"><stop stop-color="#DE5744"/><stop offset=".5" stop-color="#DB4632"/><stop offset="1" stop-color="#D13D29"/></linearGradient><linearGradient id="d" x1="65.091" x2="65.091" y1="7.852" y2="32.001" gradientUnits="userSpaceOnUse"><stop stop-color="#1A6FEF"/><stop offset=".25" stop-color="#1E72EF"/><stop offset=".5" stop-color="#166BEC"/><stop offset=".75" stop-color="#1267E9"/><stop offset="1" stop-color="#1063E5" stop-opacity=".87"/></linearGradient><linearGradient id="e" x1="76.679" x2="76.679" y1=".366" y2="22.469" gradientUnits="userSpaceOnUse"><stop stop-color="#0AA561"/><stop offset=".5" stop-color="#009B58"/><stop offset="1" stop-color="#00914B"/></linearGradient><linearGradient id="f" x1="87.37" x2="87.37" y1="7.852" y2="22.851" gradientUnits="userSpaceOnUse"><stop stop-color="#DE5644"/><stop offset=".5" stop-color="#DA4531"/><stop offset="1" stop-color="#CE3A28"/></linearGradient><linearGradient id="g" x1="49.734" x2="49.734" y1="7.884" y2="22.862" gradientUnits="userSpaceOnUse"><stop stop-color="#FFC01A"/><stop offset=".5" stop-color="#FFBA03"/><stop offset="1" stop-color="#FFB300"/></linearGradient><clipPath id="a"><path fill="#fff" d="M.623 0H94v32H.623z"/></clipPath></defs></svg>